<svg xmlns="http://www.w3.org/2000/svg" width="34.88" height="34.881" viewBox="0 0 34.88 34.881">
  <g id="_003-cancel" data-name="003-cancel" transform="translate(0 0)">
    <path id="Trazado_2007" data-name="Trazado 2007" d="M52.435,69.881a17.388,17.388,0,1,1,6.676-1.32A17.384,17.384,0,0,1,52.435,69.881Zm0-32.09a14.558,14.558,0,1,0,5.61,1.109A14.552,14.552,0,0,0,52.436,37.791Z" transform="translate(-35 -35)" fill="#ff5a5f"/>
    <path id="Trazado_2008" data-name="Trazado 2008" d="M164.4,177.771a1.394,1.394,0,0,1-.987-2.382l11.841-11.841a1.4,1.4,0,1,1,1.973,1.973l-11.841,11.841a1.386,1.386,0,0,1-.987.409Z" transform="translate(-152.883 -153.011)" fill="#ff5a5f"/>
    <path id="Trazado_2009" data-name="Trazado 2009" d="M176.27,177.771a1.392,1.392,0,0,1-.987-.409l-11.841-11.841a1.4,1.4,0,1,1,1.973-1.973l11.841,11.841a1.394,1.394,0,0,1-.987,2.382Z" transform="translate(-152.914 -153.011)" fill="#ff5a5f"/>
  </g>
</svg>