<svg xmlns="http://www.w3.org/2000/svg" width="23.848" height="23.848" viewBox="0 0 23.848 23.848">
  <g id="Icon_ionic-ios-checkbox-outline" data-name="Icon ionic-ios-checkbox-outline" transform="translate(0)">
    <path id="Trazado_159" data-name="Trazado 159" d="M26.361,4.5H6.487A1.985,1.985,0,0,0,4.5,6.487V26.361a1.985,1.985,0,0,0,1.987,1.987H26.361a1.985,1.985,0,0,0,1.987-1.987V6.487A1.985,1.985,0,0,0,26.361,4.5Zm.248,21.612a.5.5,0,0,1-.5.5H6.736a.5.5,0,0,1-.5-.5V6.736a.5.5,0,0,1,.5-.5H26.112a.5.5,0,0,1,.5.5Z" transform="translate(-4.5 -4.5)" fill="#ff5a5f"/>
    <path id="Trazado_160" data-name="Trazado 160" d="M23.807,13.4l-1.093-1.124a.235.235,0,0,0-.174-.075h0a.226.226,0,0,0-.174.075L14.79,19.913l-2.757-2.757a.24.24,0,0,0-.348,0l-1.105,1.105a.247.247,0,0,0,0,.354l3.478,3.478a1.1,1.1,0,0,0,.727.354,1.152,1.152,0,0,0,.72-.342h.006l8.3-8.347A.265.265,0,0,0,23.807,13.4Z" transform="translate(-5.201 -5.4)" fill="#ff5a5f"/>
  </g>
</svg>
