<svg viewBox="0 0 32 32" xmlns="http://www.w3.org/2000/svg" style="height: 23px; width: 23px; fill: #7d7d7d;">
    <path d="m24 0v6l-4.3021747.00082967c.1306462 1.39610702.6676758 2.71446935 1.5267143 3.77710353l.1915717.2266664-1.4988893 1.3241341c-1.2367562-1.39997958-2.012806-3.18058178-2.2041322-5.07402062-.822227.3712648-1.315455 1.13882393-1.3738966 2.19656724l-.0058599.21538635-.0003333 4.24333333 4.1477763 4.0219556c.8497262.8239986 1.3755872 1.9184904 1.4937755 3.0854643l.0190556.2511031.0063926.2528889v8.6285994c0 1.5153883-1.1271622 2.7797073-2.6427359 2.97614l-.1765556.0178797-.2128766.0058078-11.99999996-.1286796c-1.58548916-.0170017-2.87287867-1.2616425-2.96281276-2.8248707l-.00501918-.1749569v-8.2971456c0-1.2896657.49813902-2.5259201 1.38447233-3.4536987l.18241001-.1813671 4.43311766-4.1871202v-4.054l-4.01143595-3.39387762.01753705-.70285591c.12691014-2.58196951 2.20493967-4.63441607 4.7726448-4.74644862l.2212541-.00481785zm-5.032489 25.6860029c-2.2620527-.0011072-4.4437323-.8444711-6.1250979-2.4078908l-.2367463-.2282308c-1.3302626-1.3311149-3.10186892-2.0498832-4.94715461-2.0498832-.56286474-.0002734-1.11904943.0663827-1.65802355.1969257l-.00048864 7.8244078c0 .5089517.38042847.9298352.87359118.9920703l.11568613.0078722 11.95783119.1291168.1285765-.0031549c.4789309-.0353342.8612637-.4083815.9172502-.8779589l.0070648-.1192658.0003109-3.5225419c-.3414108.0390422-.6861843.0587024-1.0327999.0585335zm-1.301511-23.6860029h-6.666c-1.42060049 0-2.61770688.99018832-2.92343215 2.30833012l-.03476723.17373696-.01180062.07993292 3.669 3.104h2.723l.0187798-.09756843c.3514449-1.72848098 1.5417352-2.97932242 3.225548-3.40720134zm12.334 2c.5522847 0 1 .44771525 1 1s-.4477153 1-1 1-1-.44771525-1-1 .4477153-1 1-1zm-3-2c.5522847 0 1 .44771525 1 1s-.4477153 1-1 1-1-.44771525-1-1 .4477153-1 1-1zm-5 0h-2.334v2h2.334zm8-2c.5522847 0 1 .44771525 1 1s-.4477153 1-1 1-1-.44771525-1-1 .4477153-1 1-1zm-10 20.5214119c0-.7440035-.2763378-1.4589047-.7711979-2.0081033l-.1403363-.1455705-4.7551325-4.6111586-.0003333-4.0905795h-2.333v4.0983798l-5.0598706 4.7787667c-.1701943.1607391-.31947298.3393522-.44600943.5316019.38539265-.0499308.77396354-.07494 1.16488003-.0747495 2.26246453 0 4.4444831.8435543 6.1243595 2.4073789l.2365208.22829c1.3314314 1.3305789 3.1034818 2.049432 4.9486075 2.0503351.3474478.0001686.6923826-.0252075 1.0323301-.0754105z"></path>
</svg>