<svg xmlns="http://www.w3.org/2000/svg" width="40.471" height="30.803" viewBox="0 0 40.471 30.803">
  <g id="_001-guests" data-name="001-guests" transform="translate(0 0)">
    <g id="Grupo_35480" data-name="Grupo 35480" transform="translate(0 0)">
      <g id="Grupo_35479" data-name="Grupo 35479">
        <path id="Trazado_1995" data-name="Trazado 1995" d="M184.548,77.412a1.3,1.3,0,0,0,1.425-2.163c-2.753-1.813-4.221-3.82-4.62-6.316a5.451,5.451,0,0,1,1.034-4.091,3.152,3.152,0,0,1,2.546-1.1,3.41,3.41,0,0,1,3.32,2.405,5.887,5.887,0,0,1-1.524,6.271A1.3,1.3,0,0,0,188.4,74.4a8.474,8.474,0,0,0,2.283-9.139,5.965,5.965,0,0,0-5.752-4.1,5.752,5.752,0,0,0-4.515,2,8.009,8.009,0,0,0-1.623,6.179A11.865,11.865,0,0,0,184.548,77.412Z" transform="translate(-164.581 -61.156)" fill="#ff5a5f"/>
        <path id="Trazado_1996" data-name="Trazado 1996" d="M135.941,256.336H117.447c.047-5.8.405-7.523.566-8,.354-1.059,1.806-2.147,3.078-2.859a5.916,5.916,0,0,0,5,2.889h0a5.868,5.868,0,0,0,4.957-2.888c1.272.711,2.722,1.8,3.075,2.857a16.151,16.151,0,0,1,.409,4.844c0,.318-.008.621-.008.9a1.295,1.295,0,1,0,2.59,0c0-.27,0-.561.008-.867a17.905,17.905,0,0,0-.542-5.7c-.978-2.931-5.127-4.757-5.6-4.956a1.294,1.294,0,0,0-1.707.712,3.542,3.542,0,0,1-3.186,2.5h0a3.612,3.612,0,0,1-3.231-2.5,1.294,1.294,0,0,0-1.707-.712c-.469.2-4.619,2.024-5.6,4.957-.467,1.4-.7,4.808-.7,10.119a1.3,1.3,0,0,0,1.295,1.295h19.794a1.295,1.295,0,0,0,0-2.589Z" transform="translate(-105.775 -228.122)" fill="#ff5a5f"/>
        <path id="Trazado_1997" data-name="Trazado 1997" d="M33.692,134.227c-1.8,0-3.258-1.88-3.258-4.19s1.461-4.186,3.258-4.186a2.9,2.9,0,0,1,2.378,1.387,3.856,3.856,0,0,1,.073,3.843,1.295,1.295,0,1,0,2.351,1.085,6.493,6.493,0,0,0-.244-6.324,5.435,5.435,0,0,0-4.559-2.58c-3.224,0-5.847,3.039-5.847,6.775s2.623,6.779,5.847,6.779a1.295,1.295,0,1,0,0-2.589Z" transform="translate(-25.643 -118.353)" fill="#ff5a5f"/>
        <path id="Trazado_1998" data-name="Trazado 1998" d="M6.411,293.162H2.637a37.305,37.305,0,0,1,.385-4.31A4.172,4.172,0,0,1,4.7,286.129a1.295,1.295,0,1,0-1.5-2.111,6.8,6.8,0,0,0-2.72,4.358A51.445,51.445,0,0,0,0,294.425a1.295,1.295,0,0,0,1.295,1.326H6.411a1.294,1.294,0,1,0,0-2.588Z" transform="translate(0.001 -266.181)" fill="#ff5a5f"/>
        <path id="Trazado_1999" data-name="Trazado 1999" d="M351.911,130.018c0-3.736-2.623-6.775-5.847-6.775a5.438,5.438,0,0,0-4.561,2.579,6.5,6.5,0,0,0-.246,6.324,1.295,1.295,0,1,0,2.352-1.084,3.855,3.855,0,0,1,.074-3.843,2.9,2.9,0,0,1,2.38-1.387c1.8,0,3.258,1.878,3.258,4.186s-1.461,4.19-3.258,4.19a1.295,1.295,0,1,0,0,2.59C349.287,136.8,351.911,133.757,351.911,130.018Z" transform="translate(-313.64 -118.335)" fill="#ff5a5f"/>
        <path id="Trazado_2000" data-name="Trazado 2000" d="M421.727,289.317a6.8,6.8,0,0,0-2.587-4.263,1.3,1.3,0,0,0-1.55,2.076,4.163,4.163,0,0,1,1.591,2.663,37.233,37.233,0,0,1,.385,4.307h-3.775a1.295,1.295,0,0,0,0,2.59h5.118a1.295,1.295,0,0,0,1.295-1.326A51.151,51.151,0,0,0,421.727,289.317Z" transform="translate(-381.734 -267.12)" fill="#ff5a5f"/>
      </g>
    </g>
  </g>
</svg>