<svg viewBox="0 0 32 32" xmlns="http://www.w3.org/2000/svg" style="height: 23px; width: 23px; fill: #7d7d7d;">
    <path d="M28 2a2 2 0 0 1 1.995 1.85L30 4v24a2 2 0 0 1-1.85 1.995L28 30H4a2 2 0 0 1-1.995-1.85L2 28V4a2 2 0 0 1 1.85-1.995L4 2zm0 10H4v16h24zm-2 2v4a3.001 3.001 0 0 1-2 2.829V24h2v2h-6v-2l2-.001v-3.17a3.002 3.002 0 0 1-1.995-2.653L20 18v-4zm-14 0a6 6 0 1 1 0 12 6 6 0 0 1 0-12zm0 2a4 4 0 1 0 0 8 4 4 0 0 0 0-8zm12 0h-2v2a1 1 0 0 0 .77.974l.113.02L23 19a1 1 0 0 0 .993-.883L24 18zm4-12H4v6h24zm-6 2v2H10V6zM7 6a1 1 0 1 1 0 2 1 1 0 0 1 0-2z"></path>
</svg>