<svg id="Grupo_33256" data-name="Grupo 33256" xmlns="http://www.w3.org/2000/svg" xmlns:xlink="http://www.w3.org/1999/xlink" width="23.848" height="24.029" viewBox="0 0 23.848 24.029">
  <defs>
    <clipPath id="clip-path">
      <rect id="Rectángulo_3346" data-name="Rectángulo 3346" width="23.848" height="24.029" fill="#333"/>
    </clipPath>
  </defs>
  <g id="Grupo_33157" data-name="Grupo 33157" clip-path="url(#clip-path)">
    <path id="Trazado_90" data-name="Trazado 90" d="M52.4,64.217a1.21,1.21,0,0,1,.862-.745,13.417,13.417,0,0,0,3.527-1.516,10.075,10.075,0,0,0,4.068-5.317c.146-.435.285-.871.435-1.3a.923.923,0,0,1,1.783,0,27.963,27.963,0,0,0,1.046,2.737A9.8,9.8,0,0,0,70,63.108c.425.143.853.277,1.275.427a.9.9,0,0,1,.682.877.921.921,0,0,1-.685.907c-.887.329-1.81.587-2.655,1A9.822,9.822,0,0,0,63.5,72.213c-.128.376-.267.749-.372,1.132a1.173,1.173,0,0,1-.745.861h-.429a1.222,1.222,0,0,1-.745-.9c-.1-.373-.239-.735-.362-1.1a10.071,10.071,0,0,0-4.089-5.328,13.179,13.179,0,0,0-3.469-1.487,1.269,1.269,0,0,1-.9-.746Zm9.782-5.887a11.945,11.945,0,0,1-6.093,6.1,11.939,11.939,0,0,1,6.093,6.092,11.951,11.951,0,0,1,6.1-6.092,11.968,11.968,0,0,1-6.1-6.1" transform="translate(-48.106 -50.177)" fill="#333"/>
    <path id="Trazado_91" data-name="Trazado 91" d="M0,4.663a1.246,1.246,0,0,1,.823-.75A5.261,5.261,0,0,0,3.927.8,1.613,1.613,0,0,1,4.221.278a.9.9,0,0,1,1.52.393A5.054,5.054,0,0,0,7.551,3.156,10.956,10.956,0,0,0,9.1,3.992a.942.942,0,0,1,.605.874.885.885,0,0,1-.587.851c-.038.016-.075.032-.113.046a5.294,5.294,0,0,0-3.257,3.27.925.925,0,0,1-1.787-.006A5.283,5.283,0,0,0,.672,5.756,1.2,1.2,0,0,1,0,5.092ZM4.859,6.635,6.632,4.863,4.86,3.091,3.087,4.862,4.859,6.635" transform="translate(0 0)" fill="#333"/>
  </g>
</svg>
