<svg xmlns="http://www.w3.org/2000/svg" width="54.718" height="50.62" viewBox="0 0 54.718 50.62">
  <g id="Grupo_34940" data-name="Grupo 34940" transform="translate(-13729 12848.5)">
    <path id="Trazado_277" data-name="Trazado 277" d="M54.569,49.437,51.4,45.244h.354a2.768,2.768,0,0,0,0-5.536H8.581l7.3-25.261H26.23a2.768,2.768,0,0,0,0-5.536H15.11l-8.3-8.3a2.091,2.091,0,0,0-2.958,0L1.6,2.864a2.091,2.091,0,0,0,0,2.958l8.409,8.408a.737.737,0,0,0,.063.052L1.558,43.768H.738A.738.738,0,0,0,0,44.506v5.376a.738.738,0,0,0,.738.738H53.98a.738.738,0,0,0,.589-1.183ZM15.542,10.387H26.229a1.292,1.292,0,1,1,0,2.584H15.542Zm36.214,30.8a1.292,1.292,0,0,1,0,2.584H7.409l.746-2.584ZM2.645,4.778a.615.615,0,0,1,0-.87h0L4.9,1.656a.629.629,0,0,1,.87,0l8.3,8.3v3.016H10.837Zm8.918,9.67h2.778L5.872,43.768H3.094ZM1.476,49.144v-3.9H49.552l2.945,3.9Z" transform="translate(13729 -12848.5)" fill="#00b5dd"/>
    <path id="Trazado_278" data-name="Trazado 278" d="M149.5,153.643h-4.434a.738.738,0,0,0-.738.738v1.146h-2.3a.738.738,0,0,0-.738.738v2.9h-2.373a.738.738,0,0,0-.738.738v2.707a.738.738,0,0,0,.738.738h2.373v2.9a.738.738,0,0,0,.738.738h2.3v1.146a.738.738,0,0,0,.738.738H149.5a.738.738,0,0,0,.738-.738v-4.78h10.3v4.781a.738.738,0,0,0,.738.738h4.434a.738.738,0,0,0,.738-.738v-1.146h2.3a.738.738,0,0,0,.738-.738v-2.9h2.373a.738.738,0,0,0,.738-.738V159.9a.738.738,0,0,0-.738-.738h-2.373v-2.9a.738.738,0,0,0-.738-.738h-2.3v-1.146a.738.738,0,0,0-.738-.738h-4.434a.738.738,0,0,0-.738.738v4.781h-10.3v-4.781a.738.738,0,0,0-.738-.738Zm-8.211,8.225H139.65v-1.23h1.635Zm3.04,3.634h-1.563V157h1.563Zm4.434,1.884H145.8V155.119h2.957Zm20.727-6.749h1.635v1.23h-1.635ZM166.446,157h1.563v8.5h-1.563Zm-4.434-1.884h2.957v12.268h-2.957Zm-1.476,6.749h-10.3v-1.23h10.3Z" transform="translate(13607.825 -12983.241)" fill="#00b5dd"/>
  </g>
</svg>
