<svg id="Grupo_34972" data-name="Grupo 34972" xmlns="http://www.w3.org/2000/svg" xmlns:xlink="http://www.w3.org/1999/xlink" width="31.036" height="46.819" viewBox="0 0 31.036 46.819">
  <defs>
    <clipPath id="clip-path">
      <rect id="Rectángulo_4113" data-name="Rectángulo 4113" width="31.036" height="46.819" fill="#00b5dd"/>
    </clipPath>
  </defs>
  <g id="Grupo_34971" data-name="Grupo 34971" clip-path="url(#clip-path)">
    <path id="Trazado_393" data-name="Trazado 393" d="M30.594,8a8.11,8.11,0,0,0-5.311-1.982H21.827c-.08-.107-.165-.211-.254-.31V5.095a1.082,1.082,0,0,1,1.08-1.08h2.714A3.93,3.93,0,0,0,28.23,2.771l.6-.643A1.265,1.265,0,0,0,27.907,0H17.423a2.511,2.511,0,0,0-2.508,2.508V5.542a4.6,4.6,0,0,0-.5.6H10.731A1.439,1.439,0,0,0,9.294,7.58v.557a6.61,6.61,0,0,0-6.022,6.575V30.7a1.675,1.675,0,0,0-1.519,1.334L.878,36.361a.686.686,0,0,0,1.344.272L3.1,32.3a.3.3,0,0,1,.293-.239H4.525a.3.3,0,0,1,.293.239l1.721,8.514a.208.208,0,0,1-.2.25H1.58a.208.208,0,0,1-.2-.25l.208-1.03A.686.686,0,0,0,.24,39.516l-.208,1.03A1.579,1.579,0,0,0,1.58,42.438H6.334a1.58,1.58,0,0,0,1.548-1.893L6.161,32.031A1.675,1.675,0,0,0,4.643,30.7V14.712a5.237,5.237,0,0,1,4.651-5.2V9.9a1.439,1.439,0,0,0,1.437,1.437h3.686q.094.136.2.264l-2.934,1.138A4.233,4.233,0,0,0,9,16.657V29.312a.686.686,0,1,0,1.371,0V16.657a2.853,2.853,0,0,1,1.81-2.643l3.595-1.394a4.55,4.55,0,0,0,4.789,0l3.595,1.394a2.853,2.853,0,0,1,1.81,2.643v5.36H20.9a.686.686,0,0,0,0,1.371h5.066v6.56h-8.3a.536.536,0,0,1-.535-.535v-5.49a.536.536,0,0,1,.535-.535.686.686,0,1,0,0-1.371,1.908,1.908,0,0,0-1.906,1.906v5.49a1.908,1.908,0,0,0,1.906,1.906h8.3v2.8h-15.6V32.535a.686.686,0,0,0-1.371,0V44.305a2.517,2.517,0,0,0,2.514,2.514H24.823a2.517,2.517,0,0,0,2.514-2.514V16.657a4.233,4.233,0,0,0-2.685-3.922L21.719,11.6a4.558,4.558,0,0,0,.755-1.356h7.283A1.278,1.278,0,0,0,30.594,8ZM25.966,38.006h-15.6V35.49h15.6Zm-1.143,7.442H11.51a1.144,1.144,0,0,1-1.143-1.143V39.377h15.6v4.928a1.144,1.144,0,0,1-1.143,1.143m-7.4-44.077H27.661l-.433.464a2.554,2.554,0,0,1-1.86.808H22.653a2.455,2.455,0,0,0-2.415,2.032,4.546,4.546,0,0,0-3.952-.092V2.508a1.138,1.138,0,0,1,1.137-1.137M10.731,9.962a.066.066,0,0,1-.066-.066V7.58a.066.066,0,0,1,.066-.066h3.042a4.539,4.539,0,0,0,0,2.448H10.731Zm4.245-1.224a3.191,3.191,0,1,1,3.191,3.191A3.195,3.195,0,0,1,14.975,8.738Zm7.751.133c0-.044,0-.088,0-.132a4.546,4.546,0,0,0-.2-1.35h2.757A6.737,6.737,0,0,1,29.5,8.871Z" transform="translate(0)" fill="#00b5dd"/>
  </g>
</svg>
