<svg viewBox="0 0 32 32" xmlns="http://www.w3.org/2000/svg" style="height: 23px; width: 23px; fill: #7D7D7D;">
    <path d="M26.805 4.006a2.995 2.995 0 0 0-1.873.82l-.022.022-.113-.021a47.19 47.19 0 0 0-16.86-.132l-.848.153-.021-.022A3 3 0 0 0 2 7l.007.211c.04.56.234 1.09.554 1.536l.025.033-.044.278c-.718 4.722-.717 9.14.001 13.88l.044.279-.025.035A3 3 0 0 0 5 28l.195-.006a2.995 2.995 0 0 0 1.873-.82l.021-.023.114.022a47.19 47.19 0 0 0 16.86.132l.847-.154.022.023A3 3 0 0 0 30 25l-.007-.212a2.992 2.992 0 0 0-.554-1.536l-.027-.034.045-.28c.718-4.74.719-9.158 0-13.88l-.044-.278.026-.033A3 3 0 0 0 27 4l-.194.006zM27 6a1 1 0 0 1 .676 1.737l-.4.367.09.534c.84 5.04.84 9.662-.001 14.723l-.09.534.4.367a1 1 0 1 1-1.525 1.266l-.367-.59-.68.138a45.287 45.287 0 0 1-18.205 0l-.68-.138-.368.59a1 1 0 1 1-1.525-1.265l.4-.367-.09-.535c-.841-5.06-.842-9.683 0-14.723l.088-.534-.399-.367A1 1 0 1 1 5.85 6.473l.367.59.68-.139a45.287 45.287 0 0 1 18.205 0l.68.138.368-.59A.998.998 0 0 1 27 6z"></path>
</svg>