<svg xmlns="http://www.w3.org/2000/svg" xmlns:xlink="http://www.w3.org/1999/xlink" width="44" height="47" viewBox="0 0 44 47">
  <defs>
    <clipPath id="clip-path">
      <rect id="Rectángulo_4101" data-name="Rectángulo 4101" width="44" height="47" transform="translate(0 -0.152)" fill="#00b5dd"/>
    </clipPath>
  </defs>
  <g id="Grupo_35092" data-name="Grupo 35092" transform="translate(0 0.151)">
    <g id="Grupo_34949" data-name="Grupo 34949" transform="translate(0 0)" clip-path="url(#clip-path)">
      <path id="Trazado_372" data-name="Trazado 372" d="M15.6,0V2.338H1.561V24.187H0V46.819H43.7V24.187H42.136V2.338H28.093V0Zm1.562,1.561h9.365V3.115H17.165ZM3.121,3.9H15.6v.777h12.49V3.9H40.575V24.187H38.236V17.943h.777V16.38H37.452V13.265h.783V11.7H31.992v1.561h.783V16.38H31.214v1.562h.777v6.244H29.654V14.043H26.531V12.482h1.562V7.8H18.726v4.683h1.551l0,1.561H17.165V24.187H15.6V11.7H4.683V24.187H3.121ZM20.287,9.359h6.244v1.556c-2.081.009-4.163.006-6.244.006Zm4.683,3.129V15.6h3.123v8.583H18.726V15.6h3.128l-.011-3.1Zm-18.726.777h7.8V24.187h-7.8Zm28.093,0H35.9V16.38H34.337ZM7.8,16.38H9.365V14.82H7.8Zm3.123,0h1.561V14.82H10.928ZM7.8,19.5H9.365V17.943H7.8Zm3.123,0h1.561V17.943H10.928Zm11.7-1.561V19.5H21.07v1.561h1.562v1.561h1.561V21.064h1.554V19.5H24.193V17.943Zm10.92,0h3.123v6.244H33.552ZM7.8,22.624H9.365V21.064H7.8Zm3.123,0h1.561V21.064H10.928ZM1.561,25.747H42.136V45.257H1.561Zm35.114,2.338v1.562h2.338v2.344h1.562V28.085Zm-17.949,1.55v3.122H15.6v5.484h3.123v3.075l6.244.052V38.242h3.123V32.781H24.97V29.658ZM20.287,31.2l3.123.012v3.121h3.121V36.68H23.41V39.8l-3.123-.029V36.68H17.165V34.318h3.121ZM3.121,39.013v3.9h3.9V41.352H4.683V39.013Z" transform="translate(0 0.029)" fill="#00b5dd"/>
    </g>
  </g>
</svg>
