<svg xmlns="http://www.w3.org/2000/svg" width="18.989" height="19.376" viewBox="0 0 18.989 19.376">
  <g id="Grupo_33563" data-name="Grupo 33563" transform="translate(9595.974 15207.602)">
    <path id="Trazado_171" data-name="Trazado 171" d="M82.3,60.964A11.968,11.968,0,0,0,82.136,59H73v3.727h5.234A4.486,4.486,0,0,1,76.3,65.674V68.1h3.122A9.451,9.451,0,0,0,82.3,60.964Z" transform="translate(-9659.282 -15258.661)" fill="#4285f4"/>
    <path id="Trazado_172" data-name="Trazado 172" d="M17.352,93.631A9.267,9.267,0,0,0,23.77,91.29l-3.122-2.422A5.869,5.869,0,0,1,11.916,85.8H8.7v2.5A9.7,9.7,0,0,0,17.352,93.631Z" transform="translate(-9603.635 -15281.856)" fill="#34a853"/>
    <path id="Trazado_173" data-name="Trazado 173" d="M5.23,45.9a5.846,5.846,0,0,1,0-3.714V39.7H2.014a9.606,9.606,0,0,0,0,8.692Z" transform="translate(-9596.948 -15241.96)" fill="#fbbc04"/>
    <path id="Trazado_174" data-name="Trazado 174" d="M17.352,3.831a5.214,5.214,0,0,1,3.714,1.453l2.758-2.758A9.248,9.248,0,0,0,17.352,0,9.689,9.689,0,0,0,8.7,5.338l3.216,2.5A5.791,5.791,0,0,1,17.352,3.831Z" transform="translate(-9603.635 -15207.598)" fill="#ea4335"/>
  </g>
</svg>
