<svg id="Grupo_34914" data-name="Grupo 34914" xmlns="http://www.w3.org/2000/svg" xmlns:xlink="http://www.w3.org/1999/xlink" width="49.993" height="49.992" viewBox="0 0 49.993 49.992">
  <defs>
    <clipPath id="clip-path">
      <rect id="Rectángulo_4083" data-name="Rectángulo 4083" width="49.993" height="49.992" fill="#00b5dd"/>
    </clipPath>
  </defs>
  <g id="Grupo_34913" data-name="Grupo 34913" clip-path="url(#clip-path)">
    <path id="Trazado_264" data-name="Trazado 264" d="M39.092,15.473c-.018,0-.036-.006-.055-.008a46.362,46.362,0,0,0-13.116,0,32.155,32.155,0,0,0-4.206.891,19.506,19.506,0,0,0-2.55.9V2.5a2.5,2.5,0,0,0-2.5-2.5A12.5,12.5,0,0,0,4.209,11.665H2.5a2.5,2.5,0,0,0-2.5,2.5V20.83a2.5,2.5,0,0,0,2.5,2.5H4.209A12.5,12.5,0,0,0,16.664,34.995a2.5,2.5,0,0,0,2.457-2.076,17.346,17.346,0,0,0,1.948,1.965L15.337,45.711a2.917,2.917,0,0,0,5.155,2.73L26.06,37.923A17.457,17.457,0,0,0,30,38.968v6.859a2.5,2.5,0,1,0,5,0V38.968a17.478,17.478,0,0,0,3.935-1.045L44.5,48.44a2.917,2.917,0,1,0,5.155-2.73L43.926,34.892a17.347,17.347,0,0,0,6.067-13.229C49.993,18.467,45.077,16.358,39.092,15.473Zm3.241,10.043-2.237-8.2c.833.152,1.616.333,2.343.525L45.3,24.5A19.564,19.564,0,0,1,42.333,25.516Zm-5.762.964-.923-9.709c.922.062,1.8.152,2.645.263l2.416,8.86a37.655,37.655,0,0,1-4.138.587m-2.6-9.79.944,9.905c-.783.04-1.583.067-2.416.067-.816,0-1.621-.023-2.416-.064l.956-9.911q.728-.023,1.461-.023C33,16.664,33.483,16.675,33.968,16.69Zm-9.685,9.2,2.406-8.849c.864-.115,1.756-.2,2.666-.267l-.935,9.709a37.637,37.637,0,0,1-4.138-.594M22.17,17.956c.841-.244,1.755-.452,2.714-.629L22.658,25.51a18.08,18.08,0,0,1-3.495-1.28V19.1a16.134,16.134,0,0,1,3.006-1.145M1.666,20.83V14.165a.833.833,0,0,1,.833-.833H4.166v8.332H2.5a.833.833,0,0,1-.833-.833m15,12.5A10.844,10.844,0,0,1,5.832,22.5v-10A10.844,10.844,0,0,1,16.664,1.666.833.833,0,0,1,17.5,2.5v30a.833.833,0,0,1-.833.833M19.019,47.66a1.268,1.268,0,0,1-1.689.519,1.25,1.25,0,0,1-.52-1.689l6.617-12.5a1.245,1.245,0,0,1,.737-.609,1.269,1.269,0,0,1,.37-.054,1.25,1.25,0,0,1,1.1,1.833Zm13.476-1a.833.833,0,0,1-.833-.833V39.141c.271.013.547.02.833.02s.562-.008.833-.02v6.686a.833.833,0,0,1-.833.833m15.775.783a1.238,1.238,0,0,1-.612.737,1.271,1.271,0,0,1-1.687-.52l-6.617-12.5a1.25,1.25,0,0,1,1.1-1.834,1.272,1.272,0,0,1,.368.056,1.25,1.25,0,0,1,.738.61l6.617,12.5A1.239,1.239,0,0,1,48.27,47.443ZM43.126,33.382l-.09-.167a2.916,2.916,0,0,0-5.154,2.73l.265.5a15.691,15.691,0,0,1-11.3,0l.265-.5a2.916,2.916,0,1,0-5.154-2.73l-.083.161a15.713,15.713,0,0,1-2.707-3.195V26.071A22.639,22.639,0,0,0,23,27.307a.294.294,0,0,0,.036.018.61.61,0,0,0,.1.012,39.192,39.192,0,0,0,5.951.868h.01c.027,0,.054,0,.083,0,1.083.076,2.2.117,3.324.117,1.1,0,2.213-.04,3.313-.118h.011a.643.643,0,0,0,.083,0c.008,0,.014,0,.022-.007a40.014,40.014,0,0,0,5.929-.862.879.879,0,0,0,.112-.015c.017-.005.028-.017.045-.023A17.278,17.278,0,0,0,48,24.882,15.652,15.652,0,0,1,43.126,33.382Zm3.649-9.675-2.232-5.193c2.394.92,3.783,2.061,3.783,3.15,0,.682-.557,1.386-1.551,2.043" fill="#00b5dd"/>
    <path id="Trazado_265" data-name="Trazado 265" d="M77.633,45.719a.833.833,0,0,0,.833-.833,7.523,7.523,0,0,1,6-7.348.833.833,0,0,0-.333-1.632,9.193,9.193,0,0,0-7.332,8.98.833.833,0,0,0,.833.833" transform="translate(-69.301 -32.387)" fill="#00b5dd"/>
    <path id="Trazado_266" data-name="Trazado 266" d="M257.141,6.954a2.485,2.485,0,0,0-1.141,2,2.488,2.488,0,0,0,1.141,2c.417.342.526.46.526.708a.833.833,0,1,0,1.666,0,2.484,2.484,0,0,0-1.141-2c-.417-.342-.526-.462-.526-.71s.106-.367.526-.708a2.488,2.488,0,0,0,1.141-2,2.479,2.479,0,0,0-1.141-2c-.417-.341-.525-.459-.525-.706s.106-.365.526-.707a2.48,2.48,0,0,0,1.141-2,.833.833,0,1,0-1.666,0c0,.25-.106.365-.525.706a2.48,2.48,0,0,0-1.142,2,2.48,2.48,0,0,0,1.141,2c.417.342.526.46.526.707s-.106.367-.526.709" transform="translate(-231.004)" fill="#00b5dd"/>
    <path id="Trazado_267" data-name="Trazado 267" d="M308.341,6.954a2.485,2.485,0,0,0-1.141,2,2.488,2.488,0,0,0,1.141,2c.417.342.526.46.526.708a.833.833,0,1,0,1.666,0,2.484,2.484,0,0,0-1.141-2c-.417-.342-.526-.462-.526-.71s.106-.367.526-.708a2.488,2.488,0,0,0,1.141-2,2.479,2.479,0,0,0-1.141-2c-.417-.341-.525-.459-.525-.706s.106-.365.526-.707a2.48,2.48,0,0,0,1.141-2,.833.833,0,1,0-1.666,0c0,.25-.106.365-.525.706a2.48,2.48,0,0,0-1.142,2,2.48,2.48,0,0,0,1.141,2c.417.342.526.46.526.707s-.106.367-.526.709" transform="translate(-277.204)" fill="#00b5dd"/>
    <path id="Trazado_268" data-name="Trazado 268" d="M359.541,6.954a2.485,2.485,0,0,0-1.141,2,2.488,2.488,0,0,0,1.141,2c.417.342.526.46.526.708a.833.833,0,1,0,1.666,0,2.484,2.484,0,0,0-1.141-2c-.417-.342-.526-.462-.526-.71s.106-.367.526-.708a2.488,2.488,0,0,0,1.141-2,2.48,2.48,0,0,0-1.141-2c-.417-.341-.525-.459-.525-.706s.106-.365.526-.707a2.48,2.48,0,0,0,1.141-2,.833.833,0,1,0-1.666,0c0,.25-.106.365-.525.706a2.479,2.479,0,0,0-1.142,2,2.48,2.48,0,0,0,1.141,2c.417.342.526.46.526.707s-.106.367-.526.709" transform="translate(-323.405)" fill="#00b5dd"/>
  </g>
</svg>
