<svg width="22" height="22" viewBox="0 0 22 22" fill="none" xmlns="http://www.w3.org/2000/svg">
<path fill-rule="evenodd" clip-rule="evenodd" d="M16 19.0137V17.0137C16 16.7485 15.8946 16.4941 15.7071 16.3066C15.5196 16.119 15.2652 16.0137 15 16.0137C14.7348 16.0137 14.4804 16.1191 14.2929 16.3066C14.1054 16.4941 14 16.7485 14 17.0137V19.0137H12V5.2937L18 6.7937V19.0137H16ZM4.00001 4.7937L10 3.2937V19.0137H4.00001V4.7937ZM21 19.0137H20V6.0137C20.0067 5.78527 19.9349 5.56144 19.7966 5.37949C19.6583 5.19754 19.4619 5.06845 19.24 5.0137L12 3.2337V2.0137C12.0045 1.8595 11.9733 1.70635 11.9088 1.56623C11.8443 1.4261 11.7483 1.3028 11.6282 1.20596C11.5081 1.10912 11.3673 1.04138 11.2166 1.00803C11.066 0.974677 10.9097 0.976617 10.76 1.01371L2.76 3.01371C2.53812 3.06846 2.34169 3.19756 2.20341 3.3795C2.06513 3.56145 1.99334 3.78527 2 4.01371V19.0137H1C0.73478 19.0137 0.48043 19.1191 0.29289 19.3066C0.10535 19.4941 0 19.7485 0 20.0137C0 20.2789 0.10536 20.5333 0.29289 20.7208C0.48043 20.9084 0.73478 21.0137 1 21.0137H21C21.2652 21.0137 21.5196 20.9083 21.7071 20.7208C21.8946 20.5333 22 20.2789 22 20.0137C22 19.7485 21.8946 19.4941 21.7071 19.3066C21.5196 19.1191 21.2652 19.0137 21 19.0137L21 19.0137Z" fill="#FF5A5F"/>
<path fill-rule="evenodd" clip-rule="evenodd" d="M16 11.0137H14C13.7348 11.0137 13.4804 11.119 13.2929 11.3066C13.1054 11.4941 13 11.7485 13 12.0137C13 12.2789 13.1054 12.5332 13.2929 12.7208C13.4804 12.9083 13.7348 13.0137 14 13.0137H16C16.2652 13.0137 16.5196 12.9083 16.7071 12.7208C16.8946 12.5332 17 12.2789 17 12.0137C17 11.7485 16.8946 11.4941 16.7071 11.3066C16.5196 11.119 16.2652 11.0137 16 11.0137ZM16 8.01367H14C13.7348 8.01367 13.4804 8.11903 13.2929 8.30656C13.1054 8.4941 13 8.74845 13 9.01367C13 9.27889 13.1054 9.53324 13.2929 9.72078C13.4804 9.90832 13.7348 10.0137 14 10.0137H16C16.2652 10.0137 16.5196 9.90831 16.7071 9.72078C16.8946 9.53324 17 9.27889 17 9.01367C17 8.74845 16.8946 8.4941 16.7071 8.30656C16.5196 8.11902 16.2652 8.01367 16 8.01367ZM7 15.0137C6.73478 15.0137 6.48043 15.119 6.29289 15.3066C6.10535 15.4941 6 15.7485 6 16.0137V17.0137C6 17.2789 6.10536 17.5332 6.29289 17.7208C6.48043 17.9083 6.73478 18.0137 7 18.0137C7.26522 18.0137 7.51957 17.9083 7.70711 17.7208C7.89465 17.5332 8 17.2789 8 17.0137V16.0137C8 15.7485 7.89464 15.4941 7.70711 15.3066C7.51957 15.119 7.26522 15.0137 7 15.0137ZM7 10.0137C6.73478 10.0137 6.48043 10.119 6.29289 10.3066C6.10535 10.4941 6 10.7485 6 11.0137V13.0137C6 13.2789 6.10536 13.5332 6.29289 13.7208C6.48043 13.9083 6.73478 14.0137 7 14.0137C7.26522 14.0137 7.51957 13.9083 7.70711 13.7208C7.89465 13.5332 8 13.2789 8 13.0137V11.0137C8 10.7485 7.89464 10.4941 7.70711 10.3066C7.51957 10.119 7.26522 10.0137 7 10.0137ZM7 6.01367C6.73478 6.01367 6.48043 6.11903 6.29289 6.30656C6.10535 6.4941 6 6.74845 6 7.01367V8.01367C6 8.27889 6.10536 8.53324 6.29289 8.72078C6.48043 8.90832 6.73478 9.01367 7 9.01367C7.26522 9.01367 7.51957 8.90831 7.70711 8.72078C7.89465 8.53324 8 8.27889 8 8.01367V7.01367C8 6.74845 7.89464 6.4941 7.70711 6.30656C7.51957 6.11902 7.26522 6.01367 7 6.01367Z" fill="#FF5A5F"/>
</svg>
