<svg xmlns="http://www.w3.org/2000/svg" width="23.83" height="23.852" viewBox="0 0 23.83 23.852">
  <g id="Grupo_33190" data-name="Grupo 33190" transform="translate(-539.75 -2137.41)">
    <path id="Trazado_105" data-name="Trazado 105" d="M5.423,0c.158.048.321.084.474.145A2.237,2.237,0,0,1,7.3,1.684a.3.3,0,0,0,.225.241A1.9,1.9,0,0,1,8.84,3.73c0,.182.006.365,0,.547a.445.445,0,0,1-.464.46q-1.447.009-2.894,0a.434.434,0,0,1-.461-.412,4.518,4.518,0,0,1,.019-.863A1.91,1.91,0,0,1,6.4,1.886,1.235,1.235,0,0,0,5.452.97,2.86,2.86,0,0,0,4.438.959,1.294,1.294,0,0,0,3.376,2.237q-.01,4.705,0,9.41c0,.029.006.058.013.11H21.8a1.453,1.453,0,0,1,1.534,1.5,1.379,1.379,0,0,1-.809,1.253.3.3,0,0,0-.194.325c0,.63.016,1.263-.038,1.889a5.609,5.609,0,0,1-1.528,3.38c-.04.044-.079.09-.151.172.2.082.377.16.557.227a1.456,1.456,0,0,1,.9,1.773,1.44,1.44,0,0,1-1.7,1.014,3.8,3.8,0,0,1-1.768-.939c-.156-.143-.285-.317-.443-.458a.392.392,0,0,0-.262-.1c-.558.047-1.114.157-1.671.16q-4.591.024-9.182,0a12.991,12.991,0,0,1-1.579-.168.271.271,0,0,0-.288.109,3.889,3.889,0,0,1-2.208,1.4,1.436,1.436,0,0,1-1.686-1.007,1.458,1.458,0,0,1,.883-1.779c.182-.069.361-.144.567-.227-.153-.175-.281-.312-.4-.459A5.778,5.778,0,0,1,1,16.148c0-.463,0-.927,0-1.39C1,14.7.979,14.6.941,14.587A1.635,1.635,0,0,1,0,13.489v-.547c.01-.01.026-.019.031-.031a1.469,1.469,0,0,1,1.605-1.154h.825v-.3q0-4.552,0-9.105A2.2,2.2,0,0,1,3.488.389,5.429,5.429,0,0,1,4.42,0ZM21.412,14.674H13.917a1.908,1.908,0,0,1-.25-.006.453.453,0,0,1,.009-.9,1.92,1.92,0,0,1,.228,0H21.7c.463,0,.718-.189.724-.538s-.256-.556-.728-.556H1.642a1.947,1.947,0,0,0-.25.006.544.544,0,0,0-.005,1.08,1.807,1.807,0,0,0,.25.007H9.428a1.894,1.894,0,0,1,.25.006.453.453,0,0,1,.011.9,1.646,1.646,0,0,1-.25.007H1.915c0,.521,0,1.013,0,1.505a4.912,4.912,0,0,0,4.864,4.87c3.258.016,6.516.036,9.774-.008a4.755,4.755,0,0,0,4.414-2.857,7.394,7.394,0,0,0,.446-3.511M4.369,21.438l-.9-.534c-.355.167-.665.32-.98.459a.548.548,0,0,0-.337.663.534.534,0,0,0,.615.384,3.092,3.092,0,0,0,1.608-.972m14.6,0a3.119,3.119,0,0,0,1.574.967.536.536,0,0,0,.637-.347.545.545,0,0,0-.277-.673c-.338-.16-.678-.316-1.032-.48l-.9.532M5.929,3.817h2a.978.978,0,0,0-.474-.929.937.937,0,0,0-1.053,0,.97.97,0,0,0-.47.927" transform="translate(540 2137.66)" fill="#7d7d7d" stroke="#7d7d7d" stroke-width="0.5"/>
    <path id="Trazado_106" data-name="Trazado 106" d="M242.426,33.645c0,.1.006.2,0,.295a.453.453,0,0,1-.906-.012c-.009-.2-.008-.393,0-.589a.454.454,0,1,1,.907-.011c.006.105,0,.212,0,.317" transform="translate(316.576 2107.245)" fill="#7d7d7d" stroke="#7d7d7d" stroke-width="0.5"/>
    <path id="Trazado_107" data-name="Trazado 107" d="M217.36,58.653a3.022,3.022,0,0,1-.317,0,.453.453,0,0,1-.41-.462.445.445,0,0,1,.411-.437,5.182,5.182,0,0,1,.68,0,.446.446,0,0,1,.41.438.453.453,0,0,1-.411.461,3.609,3.609,0,0,1-.362,0" transform="translate(339.592 2084.244)" fill="#7d7d7d" stroke="#7d7d7d" stroke-width="0.5"/>
    <path id="Trazado_108" data-name="Trazado 108" d="M259.356,58.654c-.106,0-.212.008-.317,0a.454.454,0,0,1-.42-.454.448.448,0,0,1,.424-.448,5.476,5.476,0,0,1,.657,0,.448.448,0,0,1,.42.452.454.454,0,0,1-.424.45c-.112.01-.227,0-.34,0" transform="translate(300.751 2084.243)" fill="#7d7d7d" stroke="#7d7d7d" stroke-width="0.5"/>
    <path id="Trazado_109" data-name="Trazado 109" d="M150.574,71.351c0,.1,0,.2,0,.295a.452.452,0,0,1-.9.044,4.392,4.392,0,0,1,0-.679.452.452,0,0,1,.9.046c0,.1,0,.2,0,.295" transform="translate(401.55 2072.348)" fill="#7d7d7d" stroke="#7d7d7d" stroke-width="0.5"/>
    <path id="Trazado_110" data-name="Trazado 110" d="M125.559,96.378a3.272,3.272,0,0,1-.34,0,.459.459,0,0,1-.411-.463.451.451,0,0,1,.413-.437,5.182,5.182,0,0,1,.679,0,.438.438,0,0,1,.407.439.447.447,0,0,1-.409.461,3.356,3.356,0,0,1-.34,0" transform="translate(424.54 2049.344)" fill="#7d7d7d" stroke="#7d7d7d" stroke-width="0.5"/>
    <path id="Trazado_111" data-name="Trazado 111" d="M167.555,96.384c-.113,0-.227.008-.34,0a.458.458,0,0,1-.422-.453.453.453,0,0,1,.425-.449,5.916,5.916,0,0,1,.634,0,.444.444,0,0,1,.441.453.449.449,0,0,1-.443.452c-.1.007-.2,0-.295,0h0" transform="translate(385.699 2049.339)" fill="#7d7d7d" stroke="#7d7d7d" stroke-width="0.5"/>
    <path id="Trazado_112" data-name="Trazado 112" d="M242.411,75.819c0,.106.008.213,0,.318a.454.454,0,0,1-.455.42.449.449,0,0,1-.447-.428,5.334,5.334,0,0,1,0-.636.45.45,0,0,1,.454-.421.456.456,0,0,1,.448.428c.009.105,0,.212,0,.318" transform="translate(316.59 2068.21)" fill="#7d7d7d" stroke="#7d7d7d" stroke-width="0.5"/>
    <path id="Trazado_113" data-name="Trazado 113" d="M150.575,113.532c0,.1,0,.2,0,.3a.452.452,0,0,1-.9.027,4.519,4.519,0,0,1,0-.636.452.452,0,0,1,.472-.427.456.456,0,0,1,.431.445c.006.1,0,.2,0,.3" transform="translate(401.549 2033.316)" fill="#7d7d7d" stroke="#7d7d7d" stroke-width="0.5"/>
    <path id="Trazado_114" data-name="Trazado 114" d="M150.16,183.777a.454.454,0,1,1-.458.438.459.459,0,0,1,.458-.438" transform="translate(401.511 1967.647)" fill="#7d7d7d" stroke="#7d7d7d" stroke-width="0.5"/>
  </g>
</svg>
