<svg id="Grupo_34973" data-name="Grupo 34973" xmlns="http://www.w3.org/2000/svg" xmlns:xlink="http://www.w3.org/1999/xlink" width="39.352" height="37.809" viewBox="0 0 39.352 37.809">
  <defs>
    <clipPath id="clip-path">
      <rect id="Rectángulo_4082" data-name="Rectángulo 4082" width="39.352" height="37.809" fill="#00b5dd"/>
    </clipPath>
  </defs>
  <g id="Grupo_34911" data-name="Grupo 34911" clip-path="url(#clip-path)">
    <path id="Trazado_258" data-name="Trazado 258" d="M38.514,0H.837A.837.837,0,0,0,0,.837V8.546a.837.837,0,0,0,.837.837h.512V36.972a.837.837,0,0,0,.837.837H37.165A.837.837,0,0,0,38,36.972V9.384h.512a.837.837,0,0,0,.837-.837V.837A.837.837,0,0,0,38.514,0M1.675,1.675h36V7.709h-36ZM3.024,34.289H8.685v1.847H3.024Zm7.335-19.316H28.992V36.136H10.359ZM30.667,34.289h5.661v1.847H30.667Zm5.661-1.675H30.667V14.135a.837.837,0,0,0-.837-.837H9.522a.837.837,0,0,0-.837.837V32.614H3.024V9.384h33.3Z" fill="#00b5dd"/>
    <path id="Trazado_259" data-name="Trazado 259" d="M196.88,237.149a5.423,5.423,0,0,0,.5-5.675.837.837,0,0,0-1.494.754,3.691,3.691,0,0,1-.347,3.913l-.344.457a5.38,5.38,0,0,0-.126,6.31l.73,1.055a.837.837,0,1,0,1.377-.954l-.729-1.054a3.708,3.708,0,0,1,.084-4.349Z" transform="translate(-178.241 -212.15)" fill="#00b5dd"/>
    <path id="Trazado_260" data-name="Trazado 260" d="M253.5,302.826a.837.837,0,1,0-1.657.24c0,.01,0,.02,0,.03l.65,3.977a.837.837,0,1,0,1.653-.27Z" transform="translate(-231.239 -277.407)" fill="#00b5dd"/>
    <path id="Trazado_261" data-name="Trazado 261" d="M106.566,48.69a.78.78,0,0,0,.142.08,1.092,1.092,0,0,0,.155.046.73.73,0,0,0,.167.017.83.83,0,0,0,.59-.247,1.031,1.031,0,0,0,.1-.126.831.831,0,0,0,.075-.147.956.956,0,0,0,.05-.155.8.8,0,0,0,0-.327,1.006,1.006,0,0,0-.05-.159.954.954,0,0,0-.075-.142,1.563,1.563,0,0,0-.1-.13.849.849,0,0,0-.758-.226.725.725,0,0,0-.155.046.588.588,0,0,0-.142.08.761.761,0,0,0-.13.1.85.85,0,0,0-.247.595.841.841,0,0,0,.247.59.62.62,0,0,0,.13.1" transform="translate(-97.507 -43.303)" fill="#00b5dd"/>
    <path id="Trazado_262" data-name="Trazado 262" d="M230.467,48.3a.638.638,0,0,0,.08.147.9.9,0,0,0,.23.23.933.933,0,0,0,.142.08,1,1,0,0,0,.159.046.807.807,0,0,0,.327,0,1.135,1.135,0,0,0,.159-.046.926.926,0,0,0,.142-.08.893.893,0,0,0,.231-.23.839.839,0,0,0,.08-.147.7.7,0,0,0,.046-.155.8.8,0,0,0,0-.327.737.737,0,0,0-.046-.159.983.983,0,0,0-.08-.142.746.746,0,0,0-.1-.13.728.728,0,0,0-.126-.1.662.662,0,0,0-.142-.08.759.759,0,0,0-.159-.046.784.784,0,0,0-.327,0,.7.7,0,0,0-.159.046.679.679,0,0,0-.142.08.736.736,0,0,0-.126.1.752.752,0,0,0-.1.13.707.707,0,0,0-.08.142.843.843,0,0,0-.046.486.675.675,0,0,0,.045.155" transform="translate(-211.566 -43.29)" fill="#00b5dd"/>
    <path id="Trazado_263" data-name="Trazado 263" d="M355.4,48.839a.725.725,0,0,0,.167-.017,1.084,1.084,0,0,0,.155-.046.761.761,0,0,0,.142-.08.774.774,0,0,0,.13-.1.841.841,0,0,0,.247-.59.858.858,0,0,0-.247-.594.751.751,0,0,0-.13-.1.58.58,0,0,0-.142-.08.726.726,0,0,0-.155-.046.854.854,0,0,0-.757.226,1.009,1.009,0,0,0-.1.13.908.908,0,0,0-.126.3,1.086,1.086,0,0,0-.017.163.841.841,0,0,0,.247.59A.829.829,0,0,0,355.4,48.839Z" transform="translate(-325.574 -43.309)" fill="#00b5dd"/>
  </g>
</svg>
