<svg xmlns="http://www.w3.org/2000/svg" width="27.423" height="27.467" viewBox="0 0 27.423 27.467">
  <g id="Grupo_33188" data-name="Grupo 33188" transform="translate(-537.748 -2056.842)">
    <path id="Trazado_98" data-name="Trazado 98" d="M253.5,19.511c0-1.859,0-3.719,0-5.578a.553.553,0,0,0-.186-.436,6.064,6.064,0,0,1-1.524-2.672,11.9,11.9,0,0,1,.308-8.037A5.035,5.035,0,0,1,253.636.652a2.533,2.533,0,0,1,3.3,0,5.489,5.489,0,0,1,1.783,2.759,11.815,11.815,0,0,1-.286,8.351,5.548,5.548,0,0,1-1.211,1.8.565.565,0,0,0-.131.366q-.011,4.541-.006,9.082c0,.682,0,1.364,0,2.046a1.8,1.8,0,1,1-3.587.008c0-1.85,0-3.7,0-5.55m.9-2.856V17q0,3.953,0,7.907c0,.093,0,.187,0,.28a.894.894,0,0,0,1.787.008c.006-.074,0-.149,0-.224q0-4.009,0-8.019v-.294Zm.981-15.62-.127.014a3,3,0,0,0-.189.462c-.155.671-.336,1.34-.433,2.021a27.864,27.864,0,0,0-.169,5.7,15.263,15.263,0,0,0,.555,3.56c.064.207.16.4.242.6h.1c.111-.331.243-.656.329-.994a18.75,18.75,0,0,0,.483-3.94,25.821,25.821,0,0,0-.377-5.97c-.1-.495-.272-.974-.411-1.461m-1.281,12.009a28.147,28.147,0,0,1-.016-11.568.138.138,0,0,0-.051.023c-.056.049-.11.1-.161.155A5.105,5.105,0,0,0,252.822,3.4a11,11,0,0,0-.527,5.649A7.689,7.689,0,0,0,253.48,12.3c.17.247.382.465.613.742M256.54,1.428l-.071.046a22.617,22.617,0,0,1,.612,5.743,22.913,22.913,0,0,1-.626,5.813,4.883,4.883,0,0,0,1.3-1.985,10.881,10.881,0,0,0,.6-5.178,8.31,8.31,0,0,0-1.086-3.47c-.209-.343-.481-.647-.724-.969M254.4,15.723h1.773V14.236a2.512,2.512,0,0,1-1.773,0Z" transform="translate(305.578 2057.097)" fill="#7d7d7d" stroke="#7d7d7d" stroke-width="0.5"/>
    <path id="Trazado_99" data-name="Trazado 99" d="M7.169,9.053v.36q0,7.837,0,15.674a1.8,1.8,0,0,1-3.584.214c-.007-.121,0-.243,0-.364q0-7.767,0-15.533V9.06c-.167-.036-.322-.059-.471-.1A2.186,2.186,0,0,1,1.516,7.272C1.008,5.081.517,2.887.021.693A.457.457,0,0,1,.516.071q4.864,0,9.728,0c.39,0,.57.243.482.632-.494,2.184-.98,4.371-1.489,6.552a2.249,2.249,0,0,1-2.067,1.8M1.016.977c.012.066.02.12.032.173C1.49,3.1,1.929,5.061,2.378,7.015A1.343,1.343,0,0,0,3.827,8.144q1.527,0,3.053,0A1.384,1.384,0,0,0,8.4,6.919q.469-2.074.941-4.147c.135-.595.266-1.19.4-1.8ZM4.478,17.129v4.459c0,1.186,0,2.373,0,3.559a.9.9,0,1,0,1.792-.039q0-3.881,0-7.763c0-.071-.012-.142-.018-.217Zm.016-.929H6.251V9.048H4.494Z" transform="translate(537.999 2057.069)" fill="#7d7d7d" stroke="#7d7d7d" stroke-width="0.5"/>
    <path id="Trazado_100" data-name="Trazado 100" d="M159.106,14.362v.372q0,5.145,0,10.29a1.839,1.839,0,0,1-1.354,1.841,1.806,1.806,0,0,1-2.23-1.681c-.006-.121,0-.243,0-.364q0-12.028-.007-24.056c0-.794.317-.8.874-.739a4.6,4.6,0,0,1,4.124,4.137c.31,2.493.659,4.98.992,7.47.1.713.192,1.425.285,2.138a.466.466,0,0,1-.518.59c-.709,0-1.417,0-2.161,0M156.434.944V13.45h4.4c-.059-.459-.114-.9-.173-1.344q-.525-3.941-1.05-7.883A3.725,3.725,0,0,0,158.347,1.8a3.462,3.462,0,0,0-1.913-.853m-.02,15.675v.211q0,4.093,0,8.187c0,.047,0,.094,0,.14a.894.894,0,0,0,1.786.019,2.212,2.212,0,0,0,0-.224q0-4.023,0-8.047v-.286Zm.012-.926h1.764V14.381h-1.764Z" transform="translate(394.137 2057.133)" fill="#7d7d7d" stroke="#7d7d7d" stroke-width="0.5"/>
    <path id="Trazado_101" data-name="Trazado 101" d="M37.216,39.119a.47.47,0,0,1-.386.517.452.452,0,0,1-.506-.412c-.117-.671-.226-1.343-.338-2.015-.037-.221-.084-.441-.106-.663a.434.434,0,0,1,.369-.485.4.4,0,0,1,.494.313c.174.926.322,1.857.473,2.745" transform="translate(504.809 2023.778)" fill="#7d7d7d" stroke="#7d7d7d" stroke-width="0.5"/>
    <path id="Trazado_102" data-name="Trazado 102" d="M91.093,36.524l-.361,2.164c-.029.175-.052.351-.088.524a.452.452,0,0,1-.5.387.446.446,0,0,1-.383-.528q.213-1.341.448-2.678a.442.442,0,0,1,.51-.372.462.462,0,0,1,.375.5" transform="translate(454.968 2023.814)" fill="#7d7d7d" stroke="#7d7d7d" stroke-width="0.5"/>
    <path id="Trazado_103" data-name="Trazado 103" d="M66.653,37.834c0,.42,0,.841,0,1.261,0,.329-.177.531-.448.531s-.446-.2-.447-.531q0-1.262,0-2.523c0-.33.176-.53.448-.53s.445.2.448.531c0,.42,0,.841,0,1.261" transform="translate(477.169 2023.79)" fill="#7d7d7d" stroke="#7d7d7d" stroke-width="0.5"/>
  </g>
</svg>
