<svg id="Grupo_34976" data-name="Grupo 34976" xmlns="http://www.w3.org/2000/svg" xmlns:xlink="http://www.w3.org/1999/xlink" width="41.863" height="35.327" viewBox="0 0 41.863 35.327">
  <defs>
    <clipPath id="clip-path">
      <rect id="Rectángulo_4100" data-name="Rectángulo 4100" width="41.864" height="35.327" fill="#00b5dd"/>
    </clipPath>
  </defs>
  <g id="Grupo_34938" data-name="Grupo 34938" clip-path="url(#clip-path)">
    <path id="Trazado_352" data-name="Trazado 352" d="M396.886,42a.448.448,0,0,1,.5-.407h2.043a2.07,2.07,0,0,1,2.308,2.288v.061a2.123,2.123,0,0,1-2.389,2.308h-1.139v2.359c0,.275-.336.417-.661.417s-.661-.142-.661-.417V42Zm1.322.752v2.46h1.139c.661,0,1.067-.376,1.067-1.169V43.92c0-.793-.407-1.169-1.067-1.169h-1.139Z" transform="translate(-364.435 -38.191)" fill="#00b5dd"/>
    <path id="Trazado_353" data-name="Trazado 353" d="M115.216,40.42a9.025,9.025,0,0,1,12.764,0,.6.6,0,0,0,.843-.843,10.218,10.218,0,0,0-14.451,0,.6.6,0,1,0,.843.843" transform="translate(-104.861 -33.593)" fill="#00b5dd"/>
    <path id="Trazado_354" data-name="Trazado 354" d="M153.572,82.166a.6.6,0,0,0,.422-1.018,6.746,6.746,0,0,0-9.53,0,.6.6,0,0,0,.843.843,5.552,5.552,0,0,1,7.843,0,.594.594,0,0,0,.422.175" transform="translate(-132.492 -72.704)" fill="#00b5dd"/>
    <path id="Trazado_355" data-name="Trazado 355" d="M174.078,122.008a.6.6,0,0,0,.843.843,2.124,2.124,0,0,1,3,0,.6.6,0,0,0,.843-.843,3.318,3.318,0,0,0-4.687,0" transform="translate(-159.684 -111.142)" fill="#00b5dd"/>
    <path id="Trazado_356" data-name="Trazado 356" d="M86.266,225.946c-.258-.142-.513-.3-.757-.462l-3.945-2.665a7.188,7.188,0,0,0-4.039-1.236h-7.24a7.169,7.169,0,0,0-5.092,2.1,9.665,9.665,0,0,1-2.37,1.734,1.551,1.551,0,0,0,.715,2.928h2.468a.6.6,0,1,0,0-1.193H63.539a.359.359,0,0,1-.166-.677,10.856,10.856,0,0,0,2.662-1.947,5.984,5.984,0,0,1,4.25-1.756h1.621v4.38H69.925a.6.6,0,1,0,0,1.193H86.278a.89.89,0,0,0,.889-.889,1.73,1.73,0,0,0-.9-1.513M73.1,227.155v-4.38h4.427a6,6,0,0,1,3.371,1.032l3.945,2.665c.274.185.56.36.85.519a.555.555,0,0,1,.185.165Z" transform="translate(-56.919 -203.464)" fill="#00b5dd"/>
    <path id="Trazado_357" data-name="Trazado 357" d="M188.581,315.418h-1.842a.6.6,0,1,0,0,1.193h1.842a.6.6,0,1,0,0-1.193" transform="translate(-170.922 -289.628)" fill="#00b5dd"/>
    <path id="Trazado_358" data-name="Trazado 358" d="M41.349,25.289l-.188-.313a4.909,4.909,0,0,0-3.24-2.276l-1.54-.306v-7.8h3.985A1.489,1.489,0,0,0,41.853,13.1V1.488A1.489,1.489,0,0,0,40.366,0H28.751a1.489,1.489,0,0,0-1.488,1.488V5.894a.6.6,0,1,0,1.193,0V1.488a.3.3,0,0,1,.3-.3H40.366a.3.3,0,0,1,.3.3V13.1a.3.3,0,0,1-.3.3H28.751a.3.3,0,0,1-.3-.3V9.771a.6.6,0,1,0-1.193,0V13.1a1.489,1.489,0,0,0,1.488,1.488h4.518v7.185l-.791-.157a8.409,8.409,0,0,1-2.863-1.354L25.67,17.6a9.011,9.011,0,0,0-5.062-1.55h-7.24a8.986,8.986,0,0,0-6.383,2.637,7.832,7.832,0,0,1-3.931,2.122l-.856.179a2.775,2.775,0,0,0-2.2,2.7v5.776a1.747,1.747,0,0,0,1.036,1.595L3.412,32.12a3.954,3.954,0,0,0,7.69.325H30.908a3.954,3.954,0,0,0,7.613,0h1.131a2.214,2.214,0,0,0,2.211-2.211V27.14a3.587,3.587,0,0,0-.515-1.85m-6.887-10.7h.726v7.567l-.726-.144ZM9.25,33.325a2.764,2.764,0,0,1-4.468-3.1l.011-.025c.014-.03.029-.06.044-.09l.022-.042c.014-.026.028-.052.043-.077l.031-.052.042-.067.04-.06.041-.058.049-.065.039-.05c.02-.024.04-.048.061-.072l.035-.041q.046-.051.094-.1l.008-.009L5.36,29.4c.027-.027.055-.053.083-.079l.022-.019c.028-.025.056-.049.085-.073l.008-.006a2.769,2.769,0,0,1,3.478,0l0,0c.031.025.061.051.091.078l.016.014q.052.047.1.1c.036.036.071.073.1.111l.043.05.052.062.055.071.03.04q.033.045.064.091l.01.016a2.768,2.768,0,0,1-.358,3.467m27.419,0A2.764,2.764,0,0,1,32.4,29.858l.01-.015q.031-.046.064-.092l.03-.04.055-.072.052-.061.044-.051c.034-.038.068-.074.1-.11a2.764,2.764,0,0,1,3.908,0c.036.036.071.073.1.111l.043.05.052.062.055.071.03.04c.022.03.043.061.064.091l.01.016a2.768,2.768,0,0,1-.359,3.467m4-3.092a1.02,1.02,0,0,1-1.019,1.019H38.67a3.907,3.907,0,0,0-.878-2.367l-.011-.014c-.034-.041-.069-.082-.105-.122l-.027-.031c-.038-.042-.077-.083-.117-.123l-.02-.021a3.932,3.932,0,0,0-1.831-1.041,4.016,4.016,0,0,0-1.745-.042,3.929,3.929,0,0,0-2.02,1.083l-.019.021c-.04.041-.079.082-.117.124l-.026.03c-.036.041-.072.082-.106.124l-.01.013a3.908,3.908,0,0,0-.879,2.368H11.251a3.907,3.907,0,0,0-.881-2.37l-.008-.01c-.036-.044-.073-.087-.111-.13l-.021-.024q-.067-.074-.138-.145a3.961,3.961,0,0,0-5.6,0c-.044.044-.087.089-.128.135l-.036.041q-.044.05-.087.1l-.037.046q-.044.055-.085.11l-.026.035q-.112.153-.208.316l-.005.009q-.047.08-.09.162l0,0A3.932,3.932,0,0,0,3.38,30.8l-1.859-.826a.553.553,0,0,1-.328-.5V23.693a1.578,1.578,0,0,1,1.249-1.537l.856-.179a9.022,9.022,0,0,0,4.529-2.445,7.8,7.8,0,0,1,5.541-2.289h7.24A7.823,7.823,0,0,1,25,18.588l3.945,2.665a9.511,9.511,0,0,0,3.3,1.535l5.443,1.082a3.713,3.713,0,0,1,2.451,1.722l.188.313a2.392,2.392,0,0,1,.343,1.235v3.093Z" transform="translate(0 0)" fill="#00b5dd"/>
    <path id="Trazado_359" data-name="Trazado 359" d="M68.891,361.53a1.811,1.811,0,1,0,1.28.53,1.8,1.8,0,0,0-1.28-.53m.437,2.247a.618.618,0,1,1,0-.874.614.614,0,0,1,0,.874" transform="translate(-61.595 -331.97)" fill="#00b5dd"/>
    <path id="Trazado_360" data-name="Trazado 360" d="M404.24,361.53a1.811,1.811,0,1,0,1.28.53,1.8,1.8,0,0,0-1.28-.53m.437,2.248a.618.618,0,1,1,.181-.437.614.614,0,0,1-.181.437" transform="translate(-369.526 -331.97)" fill="#00b5dd"/>
  </g>
</svg>
