<svg id="Grupo_34908" data-name="Grupo 34908" xmlns="http://www.w3.org/2000/svg" xmlns:xlink="http://www.w3.org/1999/xlink" width="40.619" height="48.435" viewBox="0 0 40.619 48.435">
  <defs>
    <clipPath id="clip-path">
      <rect id="Rectángulo_4080" data-name="Rectángulo 4080" width="40.619" height="48.434" fill="#00b5dd"/>
    </clipPath>
  </defs>
  <g id="Grupo_34907" data-name="Grupo 34907" clip-path="url(#clip-path)">
    <path id="Trazado_248" data-name="Trazado 248" d="M39.838,158.1H38.379l.671-5.371a.781.781,0,0,0-.775-.878h-.781v-.781a.781.781,0,0,1,.781-.781h.781v-1.562h-.781a2.343,2.343,0,0,0-2.343,2.343v.781H33.589a.781.781,0,0,0-.775.878l.671,5.371h-2.24v-2.343a.781.781,0,0,0-.781-.781h-.821a9.381,9.381,0,0,0-6.99-8.28v-.312a2.343,2.343,0,1,0-4.687,0v.312a9.381,9.381,0,0,0-6.99,8.28h-.821a.781.781,0,0,0-.781.781V158.1H7.134l.671-5.371a.781.781,0,0,0-.775-.878H4.687v-.781a2.343,2.343,0,0,0-2.343-2.343H1.562v1.562h.781a.781.781,0,0,1,.781.781v.781H2.343a.781.781,0,0,0-.775.878L2.24,158.1H.781a.781.781,0,0,0-.781.781v3.125a.781.781,0,0,0,.781.781h9.782L4.742,177.337a.781.781,0,0,0,.726,1.072H8.592a.781.781,0,0,0,.726-.491l1.99-4.977h18l1.99,4.977a.781.781,0,0,0,.726.491h3.125a.781.781,0,0,0,.726-1.072l-5.821-14.551h9.782a.781.781,0,0,0,.781-.781v-3.125a.781.781,0,0,0-.781-.781m-5.364-4.687h2.917L36.8,158.1H35.06Zm-14.945-7.03a.781.781,0,1,1,1.562,0v.04c-.259-.022-.517-.04-.781-.04s-.523.018-.781.04Zm.781,1.562a7.821,7.821,0,0,1,7.772,7.03H12.536a7.822,7.822,0,0,1,7.773-7.03m-9.374,8.592H29.683V158.1H10.936Zm-7.707-3.125H6.145L5.559,158.1H3.814Zm4.835,23.434H6.622l5.624-14.06h1.442Zm17.185-14.06,2.187,5.468H13.183l2.187-5.468Zm-13.315,8.592.625-1.562h15.5l.625,1.562ZM34,176.847H32.555l-5.624-14.06h1.442Zm5.059-15.623H1.562v-1.562H39.057Z" transform="translate(0 -129.975)" fill="#00b5dd"/>
    <path id="Trazado_249" data-name="Trazado 249" d="M306.793,7.034h6.249a2.344,2.344,0,0,0-.1-4.687,3.125,3.125,0,0,0-6.052,0,2.344,2.344,0,1,0-.1,4.687m0-3.125a.764.764,0,0,1,.4.116.781.781,0,0,0,1.181-.746c0-.009-.019-.143-.019-.152a1.562,1.562,0,1,1,3.117.048c0,.009-.011.095-.012.1a.781.781,0,0,0,1.181.746.781.781,0,1,1,.4,1.446h-6.249a.781.781,0,0,1,0-1.562" transform="translate(-274.767 0)" fill="#00b5dd"/>
    <path id="Trazado_250" data-name="Trazado 250" d="M10.793,47.034h6.249a2.344,2.344,0,1,0-.1-4.687,3.125,3.125,0,0,0-6.052,0,2.344,2.344,0,1,0-.1,4.687m0-3.125a.764.764,0,0,1,.4.116.781.781,0,0,0,1.181-.746c0-.009-.017-.143-.019-.152a1.562,1.562,0,1,1,3.118.048c0,.009-.011.095-.012.1a.781.781,0,0,0,1.181.746.781.781,0,1,1,.4,1.446H10.793a.781.781,0,0,1,0-1.562" transform="translate(-7.669 -36.094)" fill="#00b5dd"/>
  </g>
</svg>
