<svg xmlns="http://www.w3.org/2000/svg" width="25.667" height="22.406" viewBox="0 0 25.667 22.406">
  <g id="Icon_material-pets" data-name="Icon material-pets" transform="translate(-1 -3.5)">
    <path id="Trazado_154" data-name="Trazado 154" d="M8.241,13.121A2.621,2.621,0,1,1,5.621,10.5a2.621,2.621,0,0,1,2.621,2.621Z" transform="translate(-1 -0.906)" fill="none" stroke="#333" stroke-width="2"/>
    <path id="Trazado_155" data-name="Trazado 155" d="M14.991,7.121A2.621,2.621,0,1,1,12.371,4.5a2.621,2.621,0,0,1,2.621,2.621Z" transform="translate(-2.132)" fill="none" stroke="#333" stroke-width="2"/>
    <path id="Trazado_156" data-name="Trazado 156" d="M23.991,7.121A2.621,2.621,0,1,1,21.371,4.5a2.621,2.621,0,0,1,2.621,2.621Z" transform="translate(-3.942)" fill="none" stroke="#333" stroke-width="2"/>
    <path id="Trazado_157" data-name="Trazado 157" d="M30.741,13.121A2.621,2.621,0,1,1,28.121,10.5a2.621,2.621,0,0,1,2.621,2.621Z" transform="translate(-5.074 -0.906)" fill="none" stroke="#333" stroke-width="2"/>
    <path id="Trazado_158" data-name="Trazado 158" d="M20.56,20.51c-.95-1.113-1.747-2.063-2.707-3.177a4.631,4.631,0,0,0-1.91-1.441,2.21,2.21,0,0,0-.36-.1,5.494,5.494,0,0,0-.851-.044,4.58,4.58,0,0,0-.862.055,2.21,2.21,0,0,0-.36.1,4.7,4.7,0,0,0-1.91,1.441c-.95,1.113-1.747,2.063-2.707,3.177C7.46,21.951,5.7,23.533,6.03,25.75a3.427,3.427,0,0,0,2.544,2.533c.8.164,3.34-.48,6.048-.48h.2c2.707,0,5.251.633,6.048.48a3.444,3.444,0,0,0,2.544-2.533C23.748,23.523,21.99,21.94,20.56,20.51Z" transform="translate(-1 -3.388)" fill="none" stroke="#333" stroke-width="2"/>
  </g>
</svg>
