<svg id="Grupo_34931" data-name="Grupo 34931" xmlns="http://www.w3.org/2000/svg" xmlns:xlink="http://www.w3.org/1999/xlink" width="42.908" height="50.295" viewBox="0 0 42.908 50.295">
  <defs>
    <clipPath id="clip-path">
      <rect id="Rectángulo_4095" data-name="Rectángulo 4095" width="42.908" height="50.295" fill="#00b5dd"/>
    </clipPath>
  </defs>
  <g id="Grupo_34930" data-name="Grupo 34930" clip-path="url(#clip-path)">
    <path id="Trazado_312" data-name="Trazado 312" d="M63.96,109.195a.737.737,0,0,0-.737.737v.931a.737.737,0,0,0,1.473,0v-.931a.737.737,0,0,0-.737-.737" transform="translate(-55.46 -95.787)" fill="#00b5dd"/>
    <path id="Trazado_313" data-name="Trazado 313" d="M96.319,109.195a.737.737,0,0,0-.737.737v.931a.737.737,0,1,0,1.473,0v-.931a.737.737,0,0,0-.737-.737" transform="translate(-83.845 -95.787)" fill="#00b5dd"/>
    <path id="Trazado_314" data-name="Trazado 314" d="M128.683,109.195a.737.737,0,0,0-.737.737v.931a.737.737,0,0,0,1.473,0v-.931a.737.737,0,0,0-.737-.737" transform="translate(-112.236 -95.787)" fill="#00b5dd"/>
    <path id="Trazado_315" data-name="Trazado 315" d="M161.042,109.195a.737.737,0,0,0-.737.737v.931a.737.737,0,1,0,1.473,0v-.931a.737.737,0,0,0-.737-.737" transform="translate(-140.621 -95.787)" fill="#00b5dd"/>
    <path id="Trazado_316" data-name="Trazado 316" d="M193.4,109.195a.737.737,0,0,0-.737.737v.931a.737.737,0,1,0,1.473,0v-.931a.737.737,0,0,0-.737-.737" transform="translate(-169.01 -95.787)" fill="#00b5dd"/>
    <path id="Trazado_317" data-name="Trazado 317" d="M80.144,142.855a.737.737,0,0,0-.737.737v.93a.737.737,0,0,0,1.473,0v-.93a.737.737,0,0,0-.737-.737" transform="translate(-69.657 -125.314)" fill="#00b5dd"/>
    <path id="Trazado_318" data-name="Trazado 318" d="M112.5,142.855a.737.737,0,0,0-.737.737v.93a.737.737,0,1,0,1.473,0v-.93a.737.737,0,0,0-.737-.737" transform="translate(-98.042 -125.314)" fill="#00b5dd"/>
    <path id="Trazado_319" data-name="Trazado 319" d="M144.862,142.855a.737.737,0,0,0-.737.737v.93a.737.737,0,1,0,1.473,0v-.93a.737.737,0,0,0-.737-.737" transform="translate(-126.428 -125.314)" fill="#00b5dd"/>
    <path id="Trazado_320" data-name="Trazado 320" d="M177.222,142.855a.737.737,0,0,0-.737.737v.93a.737.737,0,1,0,1.473,0v-.93a.737.737,0,0,0-.737-.737" transform="translate(-154.814 -125.314)" fill="#00b5dd"/>
    <path id="Trazado_321" data-name="Trazado 321" d="M63.96,172.309a.736.736,0,0,0-.737.737v.93a.737.737,0,0,0,1.473,0v-.93a.737.737,0,0,0-.737-.737" transform="translate(-55.46 -151.151)" fill="#00b5dd"/>
    <path id="Trazado_322" data-name="Trazado 322" d="M96.319,172.309a.737.737,0,0,0-.737.737v.93a.737.737,0,1,0,1.473,0v-.93a.736.736,0,0,0-.737-.737" transform="translate(-83.845 -151.151)" fill="#00b5dd"/>
    <path id="Trazado_323" data-name="Trazado 323" d="M128.683,172.309a.736.736,0,0,0-.737.737v.93a.737.737,0,0,0,1.473,0v-.93a.737.737,0,0,0-.737-.737" transform="translate(-112.236 -151.151)" fill="#00b5dd"/>
    <path id="Trazado_324" data-name="Trazado 324" d="M161.042,172.309a.737.737,0,0,0-.737.737v.93a.737.737,0,0,0,1.473,0v-.93a.736.736,0,0,0-.737-.737" transform="translate(-140.621 -151.151)" fill="#00b5dd"/>
    <path id="Trazado_325" data-name="Trazado 325" d="M193.4,172.309a.736.736,0,0,0-.737.737v.93a.737.737,0,0,0,1.473,0v-.93a.737.737,0,0,0-.737-.737" transform="translate(-169.01 -151.151)" fill="#00b5dd"/>
    <path id="Trazado_326" data-name="Trazado 326" d="M80.144,205.969a.736.736,0,0,0-.737.737v.93a.737.737,0,0,0,1.473,0v-.93a.737.737,0,0,0-.737-.737" transform="translate(-69.657 -180.678)" fill="#00b5dd"/>
    <path id="Trazado_327" data-name="Trazado 327" d="M112.5,205.969a.736.736,0,0,0-.737.737v.93a.737.737,0,0,0,1.473,0v-.93a.737.737,0,0,0-.737-.737" transform="translate(-98.042 -180.678)" fill="#00b5dd"/>
    <path id="Trazado_328" data-name="Trazado 328" d="M144.862,205.969a.737.737,0,0,0-.737.737v.93a.737.737,0,0,0,1.473,0v-.93a.737.737,0,0,0-.737-.737" transform="translate(-126.428 -180.678)" fill="#00b5dd"/>
    <path id="Trazado_329" data-name="Trazado 329" d="M177.222,205.969a.737.737,0,0,0-.737.737v.93a.737.737,0,0,0,1.473,0v-.93a.737.737,0,0,0-.737-.737" transform="translate(-154.814 -180.678)" fill="#00b5dd"/>
    <path id="Trazado_330" data-name="Trazado 330" d="M63.96,235.418a.737.737,0,0,0-.737.737v.93a.737.737,0,0,0,1.473,0v-.93a.737.737,0,0,0-.737-.737" transform="translate(-55.46 -206.511)" fill="#00b5dd"/>
    <path id="Trazado_331" data-name="Trazado 331" d="M96.319,235.418a.737.737,0,0,0-.737.737v.93a.737.737,0,1,0,1.473,0v-.93a.737.737,0,0,0-.737-.737" transform="translate(-83.845 -206.511)" fill="#00b5dd"/>
    <path id="Trazado_332" data-name="Trazado 332" d="M128.683,235.418a.737.737,0,0,0-.737.737v.93a.737.737,0,0,0,1.473,0v-.93a.737.737,0,0,0-.737-.737" transform="translate(-112.236 -206.511)" fill="#00b5dd"/>
    <path id="Trazado_333" data-name="Trazado 333" d="M161.042,235.418a.737.737,0,0,0-.737.737v.93a.737.737,0,0,0,1.473,0v-.93a.737.737,0,0,0-.737-.737" transform="translate(-140.621 -206.511)" fill="#00b5dd"/>
    <path id="Trazado_334" data-name="Trazado 334" d="M193.4,235.418a.737.737,0,0,0-.737.737v.93a.737.737,0,1,0,1.473,0v-.93a.737.737,0,0,0-.737-.737" transform="translate(-169.01 -206.511)" fill="#00b5dd"/>
    <path id="Trazado_335" data-name="Trazado 335" d="M96.319,304.16a.737.737,0,0,0-.737.737v.93a.737.737,0,1,0,1.473,0v-.93a.737.737,0,0,0-.737-.737" transform="translate(-83.845 -266.812)" fill="#00b5dd"/>
    <path id="Trazado_336" data-name="Trazado 336" d="M128.683,304.16a.737.737,0,0,0-.737.737v.93a.737.737,0,1,0,1.473,0v-.93a.737.737,0,0,0-.737-.737" transform="translate(-112.236 -266.812)" fill="#00b5dd"/>
    <path id="Trazado_337" data-name="Trazado 337" d="M161.042,304.16a.737.737,0,0,0-.737.737v.93a.737.737,0,1,0,1.473,0v-.93a.737.737,0,0,0-.737-.737" transform="translate(-140.621 -266.812)" fill="#00b5dd"/>
    <path id="Trazado_338" data-name="Trazado 338" d="M80.144,269.918a.737.737,0,0,0-.737.737v.93a.737.737,0,0,0,1.473,0v-.93a.737.737,0,0,0-.737-.737" transform="translate(-69.657 -236.775)" fill="#00b5dd"/>
    <path id="Trazado_339" data-name="Trazado 339" d="M112.5,269.918a.737.737,0,0,0-.737.737v.93a.737.737,0,0,0,1.473,0v-.93a.737.737,0,0,0-.737-.737" transform="translate(-98.042 -236.775)" fill="#00b5dd"/>
    <path id="Trazado_340" data-name="Trazado 340" d="M144.862,269.918a.737.737,0,0,0-.737.737v.93a.737.737,0,0,0,1.473,0v-.93a.737.737,0,0,0-.737-.737" transform="translate(-126.428 -236.775)" fill="#00b5dd"/>
    <path id="Trazado_341" data-name="Trazado 341" d="M177.222,269.918a.737.737,0,0,0-.737.737v.93a.737.737,0,0,0,1.473,0v-.93a.737.737,0,0,0-.737-.737" transform="translate(-154.814 -236.775)" fill="#00b5dd"/>
    <path id="Trazado_342" data-name="Trazado 342" d="M41.68,44.145H38.7V39.784a.737.737,0,1,0-1.473,0v4.361H34.9V1.473h2.318V36.2a.737.737,0,0,0,1.473,0V1.228A1.229,1.229,0,0,0,37.467,0H16.938A1.229,1.229,0,0,0,15.71,1.228V2.951a5.14,5.14,0,0,0-4.392,4.734h-.45A1.229,1.229,0,0,0,9.641,8.913v1.813a1.229,1.229,0,0,0,1.228,1.228H22.025a1.229,1.229,0,0,0,1.228-1.228V8.913a1.229,1.229,0,0,0-1.228-1.228h-.45a5.139,5.139,0,0,0-4.391-4.734V1.473H33.431V22.817h-1.05a1.229,1.229,0,0,0-1.228,1.228v7.568a1.229,1.229,0,0,0,1.228,1.228h1.05v11.3H11.926a.737.737,0,1,0,0,1.473H41.434v3.2H1.473v-3.2H8.536a.737.737,0,1,0,0-1.473H1.228A1.229,1.229,0,0,0,0,45.373v3.694a1.229,1.229,0,0,0,1.228,1.228H41.68a1.229,1.229,0,0,0,1.228-1.228V45.373a1.23,1.23,0,0,0-1.228-1.228M20.1,7.685h-.608a.737.737,0,0,0,0,1.473h2.29V10.48H11.114V9.158h4.839a.737.737,0,1,0,0-1.473H12.8a3.668,3.668,0,0,1,7.3,0M33.431,31.368h-.8V24.29h.8Z" fill="#00b5dd"/>
  </g>
</svg>
