<svg xmlns="http://www.w3.org/2000/svg" width="48.908" height="46.819" viewBox="0 0 48.908 46.819">
  <g id="Grupo_34955" data-name="Grupo 34955" transform="translate(-13522.768 12235.819)">
    <path id="Trazado_373" data-name="Trazado 373" d="M167.687,34.585a2.26,2.26,0,1,0,2.26-2.26,2.263,2.263,0,0,0-2.26,2.26m3.088,0a.828.828,0,1,1-.828-.828.828.828,0,0,1,.828.828" transform="translate(13371.099 -12265.057)" fill="#00b5dd"/>
    <path id="Trazado_374" data-name="Trazado 374" d="M234.6,32.324a2.26,2.26,0,1,0,0,4.521h6.176a2.26,2.26,0,1,0,0-4.521H234.6Zm7,2.26a.828.828,0,0,1-.828.828H234.6a.828.828,0,1,1,0-1.655h6.176a.828.828,0,0,1,.828.828" transform="translate(13312.624 -12265.056)" fill="#00b5dd"/>
    <path id="Trazado_375" data-name="Trazado 375" d="M183.85,136.078v1.93a.716.716,0,1,0,1.433,0v-1.93a.716.716,0,1,0-1.433,0" transform="translate(13356.479 -12358.251)" fill="#00b5dd"/>
    <path id="Trazado_376" data-name="Trazado 376" d="M217.608,136.078a.716.716,0,1,0-1.433,0v1.93a.716.716,0,1,0,1.433,0Z" transform="translate(13327.242 -12358.251)" fill="#00b5dd"/>
    <path id="Trazado_377" data-name="Trazado 377" d="M151.524,136.078v1.93a.716.716,0,1,0,1.433,0v-1.93a.716.716,0,1,0-1.433,0" transform="translate(13385.717 -12358.251)" fill="#00b5dd"/>
    <path id="Trazado_378" data-name="Trazado 378" d="M249.216,138.725a.716.716,0,0,0,.716-.716v-1.93a.716.716,0,1,0-1.433,0v1.93a.716.716,0,0,0,.716.716" transform="translate(13298.005 -12358.251)" fill="#00b5dd"/>
    <path id="Trazado_379" data-name="Trazado 379" d="M282.258,138.008v-1.93a.716.716,0,1,0-1.433,0v1.93a.716.716,0,1,0,1.433,0" transform="translate(13268.768 -12358.251)" fill="#00b5dd"/>
    <path id="Trazado_380" data-name="Trazado 380" d="M314.583,138.008v-1.93a.716.716,0,1,0-1.433,0v1.93a.716.716,0,1,0,1.433,0" transform="translate(13239.53 -12358.251)" fill="#00b5dd"/>
    <path id="Trazado_381" data-name="Trazado 381" d="M346.909,138.008v-1.93a.716.716,0,1,0-1.433,0v1.93a.716.716,0,1,0,1.433,0" transform="translate(13210.293 -12358.251)" fill="#00b5dd"/>
    <path id="Trazado_382" data-name="Trazado 382" d="M47.227,0H1.681A1.683,1.683,0,0,0,0,1.681V9.014A1.684,1.684,0,0,0,1.681,10.7H4.187l1.491,7.156a2.657,2.657,0,0,0,2.591,2.106H9.746v.828a2.263,2.263,0,0,0,2.26,2.26h5.211a2.263,2.263,0,0,0,2.26-2.26v-.828h1.633a.716.716,0,1,0,0-1.433H8.268a1.218,1.218,0,0,1-1.188-.966L5.65,10.7H37.032a.716.716,0,1,0,0-1.433H1.681a.249.249,0,0,1-.248-.249V1.681a.249.249,0,0,1,.248-.248H47.227a.249.249,0,0,1,.248.248V9.014a.249.249,0,0,1-.248.249H40.376a.716.716,0,0,0,0,1.433h2.882l-1.43,6.864a1.218,1.218,0,0,1-1.188.966H24.454a.716.716,0,1,0,0,1.433H40.639a2.657,2.657,0,0,0,2.591-2.106L44.721,10.7h2.506a1.684,1.684,0,0,0,1.681-1.682V1.681A1.683,1.683,0,0,0,47.227,0ZM18.044,20.787a.828.828,0,0,1-.828.828H12.006a.828.828,0,0,1-.828-.828v-.828h6.866Z" transform="translate(13522.768 -12235.819)" fill="#00b5dd"/>
    <path id="Trazado_383" data-name="Trazado 383" d="M159.326,332.54h-2.084a7.51,7.51,0,0,0,2.029-4.687,8.877,8.877,0,0,0-2.019-5.595.716.716,0,0,0-.987-.072l-.962.792-2.194-4.144a.716.716,0,0,0-1.122-.189l-.747.7-1.887-3.775a.716.716,0,0,0-1.282,0l-1.887,3.775-.747-.7a.716.716,0,0,0-1.122.189l-2.194,4.144-.962-.792a.716.716,0,0,0-.987.073,8.351,8.351,0,0,0-1.337,2.229.716.716,0,1,0,1.323.55,7.77,7.77,0,0,1,.67-1.268l1.059.872a.716.716,0,0,0,1.089-.218l2.167-4.094.764.713a.716.716,0,0,0,1.129-.2l1.675-3.35,1.675,3.35a.716.716,0,0,0,1.129.2l.764-.713,2.167,4.094a.716.716,0,0,0,1.089.218l1.058-.872a7.585,7.585,0,0,1,1.244,4.082,6.183,6.183,0,0,1-2.859,4.687h-1.031a4.306,4.306,0,0,0,.729-2.166,5.1,5.1,0,0,0-1.163-3.208.716.716,0,0,0-.987-.073l-.2.162-.979-1.849a.716.716,0,0,0-1.122-.188l-.071.066-.806-1.613a.716.716,0,0,0-1.282,0l-.806,1.613-.071-.066a.716.716,0,0,0-1.122.188l-.979,1.849-.2-.162a.716.716,0,0,0-.987.073,5.1,5.1,0,0,0-1.163,3.208,4.305,4.305,0,0,0,.729,2.166h-1.031a6.257,6.257,0,0,1-2.853-4.567.716.716,0,0,0-1.429.111,7.814,7.814,0,0,0,2.021,4.456H138.1a.716.716,0,1,0,0,1.433h21.229a.716.716,0,0,0,0-1.433Zm-15.147-2.166a3.647,3.647,0,0,1,.419-1.67l.262.216a.717.717,0,0,0,1.089-.218l.952-1.8.088.082a.716.716,0,0,0,1.13-.2l.595-1.189.594,1.189a.716.716,0,0,0,1.13.2l.088-.082.952,1.8a.716.716,0,0,0,1.089.218l.262-.215a3.645,3.645,0,0,1,.419,1.669,2.968,2.968,0,0,1-1.286,2.166h-6.493A2.969,2.969,0,0,1,144.179,330.374Z" transform="translate(13398.51 -12522.973)" fill="#00b5dd"/>
    <path id="Trazado_384" data-name="Trazado 384" d="M316.782,264.31a1.3,1.3,0,0,0-.6,1.036.731.731,0,0,0,1.433,0c0-.053,0-.061.17-.2a1.191,1.191,0,0,0,0-2.071c-.17-.135-.17-.144-.17-.2s0-.061.17-.2a1.192,1.192,0,0,0,0-2.071c-.17-.135-.17-.143-.17-.2s0-.061.17-.2a1.3,1.3,0,0,0,.6-1.035.731.731,0,0,0-1.433,0c0,.053,0,.061-.169.2a1.191,1.191,0,0,0,0,2.071c.17.135.17.143.17.2s0,.061-.17.2a1.191,1.191,0,0,0,0,2.071c.17.135.17.143.17.2s0,.061-.17.2" transform="translate(13236.79 -12470.179)" fill="#00b5dd"/>
    <path id="Trazado_385" data-name="Trazado 385" d="M173.339,264.31a1.3,1.3,0,0,0-.6,1.036.731.731,0,0,0,1.433,0c0-.053,0-.061.17-.2a1.191,1.191,0,0,0,0-2.071c-.17-.135-.17-.144-.17-.2s0-.061.17-.2a1.192,1.192,0,0,0,0-2.071c-.17-.135-.17-.143-.17-.2s0-.061.17-.2a1.3,1.3,0,0,0,.6-1.035.731.731,0,0,0-1.433,0c0,.053,0,.061-.17.2a1.191,1.191,0,0,0,0,2.071c.17.135.17.143.17.2s0,.061-.17.2a1.191,1.191,0,0,0,0,2.071c.17.135.17.143.17.2s0,.061-.17.2" transform="translate(13366.531 -12470.179)" fill="#00b5dd"/>
    <path id="Trazado_386" data-name="Trazado 386" d="M244.459,231.407a.663.663,0,0,0,.716.591.686.686,0,0,0,.709-.508l.092-.056a1.126,1.126,0,0,0,.687-.936.964.964,0,0,1,0-1.816.964.964,0,0,1,0-1.816.663.663,0,0,0-.716-.591.686.686,0,0,0-.709.508l-.092.056a1.126,1.126,0,0,0-.687.936.964.964,0,0,1,0,1.816.965.965,0,0,1,0,1.817Z" transform="translate(13301.659 -12440.315)" fill="#00b5dd"/>
  </g>
</svg>
