<svg id="Grupo_34929" data-name="Grupo 34929" xmlns="http://www.w3.org/2000/svg" xmlns:xlink="http://www.w3.org/1999/xlink" width="49.993" height="39.995" viewBox="0 0 49.993 39.995">
  <defs>
    <clipPath id="clip-path">
      <rect id="Rectángulo_4094" data-name="Rectángulo 4094" width="49.993" height="39.995" fill="#00b5dd"/>
    </clipPath>
  </defs>
  <g id="Grupo_34928" data-name="Grupo 34928" clip-path="url(#clip-path)">
    <path id="Trazado_306" data-name="Trazado 306" d="M47.494,0H2.5A2.5,2.5,0,0,0,0,2.5v30A2.5,2.5,0,0,0,2.5,35H7.423c-.188,1.218-.857,3.333-3.257,3.333H.833A.833.833,0,0,0,.833,40H49.16a.833.833,0,0,0,0-1.667H45.827c-2.384,0-3.061-2.115-3.254-3.333h4.92a2.5,2.5,0,0,0,2.5-2.5V2.5a2.5,2.5,0,0,0-2.5-2.5M42.2,38.328H7.794A6.724,6.724,0,0,0,9.112,35H40.881A6.724,6.724,0,0,0,42.2,38.328m5.295-5H2.5a.833.833,0,0,1-.833-.833V30.829H20a.833.833,0,0,0,0-1.667H1.667V2.5A.833.833,0,0,1,2.5,1.667H47.494a.833.833,0,0,1,.833.834V29.163H30a.833.833,0,0,0,0,1.667H48.327V32.5a.833.833,0,0,1-.833.833" fill="#00b5dd"/>
    <path id="Trazado_307" data-name="Trazado 307" d="M176.967,224h-3.333a.833.833,0,0,0,0,1.667h3.333a.833.833,0,0,0,0-1.667" transform="translate(-150.304 -194.837)" fill="#00b5dd" fill-rule="evenodd"/>
    <path id="Trazado_308" data-name="Trazado 308" d="M32.835,37.071a.834.834,0,0,0,.59-.244l3.332-3.333a.833.833,0,0,0-1.178-1.178l-3.333,3.333a.833.833,0,0,0,.589,1.422" transform="translate(-27.836 -27.906)" fill="#00b5dd" fill-rule="evenodd"/>
    <path id="Trazado_309" data-name="Trazado 309" d="M40.507,32.315l-8.332,8.332a.833.833,0,1,0,1.178,1.178l8.332-8.332a.833.833,0,0,0-1.178-1.178" transform="translate(-27.764 -27.904)" fill="#00b5dd" fill-rule="evenodd"/>
    <path id="Trazado_310" data-name="Trazado 310" d="M135.2,54.8a10,10,0,1,0-10,10,10,10,0,0,0,10-10m-18.331,0a8.332,8.332,0,1,1,8.332,8.332,8.332,8.332,0,0,1-8.332-8.332" transform="translate(-100.201 -38.968)" fill="#00b5dd"/>
    <path id="Trazado_311" data-name="Trazado 311" d="M173.991,92.633a1.657,1.657,0,0,0-.782-1.416l-4.261-2.666a1.667,1.667,0,0,0-2.55,1.416V95.3a1.667,1.667,0,0,0,2.551,1.416l4.26-2.666a1.658,1.658,0,0,0,.782-1.417M168.065,95.3V89.966l4.26,2.666Z" transform="translate(-144.735 -76.801)" fill="#00b5dd"/>
  </g>
</svg>
