<svg xmlns="http://www.w3.org/2000/svg" width="31.118" height="22.506" viewBox="0 0 31.118 22.506">
  <g id="Grupo_33186" data-name="Grupo 33186" transform="translate(-159.75 -2172.559)">
    <path id="Trazado_148" data-name="Trazado 148" d="M30.618,18.96a3.894,3.894,0,0,1-.249.5,1.474,1.474,0,0,1-1.314.628q-3.423-.005-6.845,0H21.8c.165.334.3.637.467.926.034.06.167.088.255.09.438.009.877,0,1.315.005.347,0,.556.181.549.455s-.21.43-.54.44c-.179.006-.359,0-.538,0H6.984A2.359,2.359,0,0,1,6.655,22a.458.458,0,0,1-.418-.464.439.439,0,0,1,.459-.42c.458-.011.917-.014,1.375,0a.331.331,0,0,0,.363-.227c.109-.253.241-.5.39-.8H1.651A1.456,1.456,0,0,1,0,18.435Q0,10.05,0,1.666A1.456,1.456,0,0,1,1.647.009Q15.233.009,28.819,0a1.641,1.641,0,0,1,1.8,1.14Zm-.9-1.686v-.347q0-7.64,0-15.279c0-.586-.157-.742-.747-.742H1.645c-.59,0-.748.156-.748.742q0,7.64,0,15.279v.347H26.012a3.017,3.017,0,0,1,.388.012.406.406,0,0,1,.374.4.394.394,0,0,1-.319.443,1.989,1.989,0,0,1-.444.038q-12.349,0-24.7,0h-.4c-.062.883.064,1.02.889,1.02h8.4c.1,0,.2,0,.3,0a.434.434,0,0,1,.447.425.428.428,0,0,1-.416.457c-.177.021-.359,0-.537.015-.07.005-.172.031-.2.081-.162.292-.306.595-.465.912H21.281c-.129-.262-.258-.487-.351-.725a.4.4,0,0,0-.451-.277c-2.591.009-5.183.006-7.774.005a1.781,1.781,0,0,1-.327-.017.439.439,0,0,1,.046-.874c.109-.008.219-.005.329-.005H28.9a2.941,2.941,0,0,0,.3,0,.522.522,0,0,0,.523-.543c.008-.146,0-.294,0-.472-.463,0-.9,0-1.334,0-.373,0-.583-.178-.576-.462s.21-.43.567-.432c.436,0,.872,0,1.344,0" transform="translate(160 2172.809)" fill="#7d7d7d" stroke="#7d7d7d" stroke-width="0.5"/>
    <path id="Trazado_149" data-name="Trazado 149" d="M147.634,39.2a1.988,1.988,0,0,1-.1.232.828.828,0,0,1-.139.155q-5.633,5.635-11.268,11.269c-.07.07-.15.179-.228.182-.173.007-.408.015-.507-.086s-.089-.336-.074-.508c.008-.088.127-.171.2-.248q5.6-5.6,11.206-11.2a1.292,1.292,0,0,1,.248-.213.447.447,0,0,1,.663.422" transform="translate(34.83 2136.991)" fill="#7d7d7d" stroke="#7d7d7d" stroke-width="0.5"/>
    <path id="Trazado_150" data-name="Trazado 150" d="M148.536,51.8a2.328,2.328,0,0,1-.255.412q-3.279,3.291-6.567,6.572a.472.472,0,0,1-.709.066c-.193-.2-.167-.453.088-.708q3.272-3.276,6.548-6.55c.159-.159.344-.277.556-.157a1.7,1.7,0,0,1,.34.365" transform="translate(29.674 2125.267)" fill="#7d7d7d" stroke="#7d7d7d" stroke-width="0.5"/>
  </g>
</svg>
