<svg xmlns="http://www.w3.org/2000/svg" width="17.85" height="21.75" viewBox="0 0 17.85 21.75">
  <g id="User" transform="translate(-3.075 -1.125)">
    <path id="Vector" d="M14.925,6a6,6,0,1,0-6,6A6.008,6.008,0,0,0,14.925,6ZM5.175,6a3.75,3.75,0,1,1,3.75,3.75A3.751,3.751,0,0,1,5.175,6Zm5.55,7.5h-3.6A7.131,7.131,0,0,0,0,20.625,1.123,1.123,0,0,0,1.125,21.75h15.6a1.123,1.123,0,0,0,1.125-1.125A7.131,7.131,0,0,0,10.725,13.5Zm-8.347,6a4.89,4.89,0,0,1,4.747-3.75h3.6a4.89,4.89,0,0,1,4.748,3.75Z" transform="translate(3.075 1.125)" fill="#ff5a5f"/>
  </g>
</svg>
