<svg id="Grupo_34974" data-name="Grupo 34974" xmlns="http://www.w3.org/2000/svg" xmlns:xlink="http://www.w3.org/1999/xlink" width="41.864" height="31.963" viewBox="0 0 41.864 31.963">
  <defs>
    <clipPath id="clip-path">
      <rect id="Rectángulo_4093" data-name="Rectángulo 4093" width="41.864" height="31.963" fill="#00b5dd"/>
    </clipPath>
  </defs>
  <g id="Grupo_34926" data-name="Grupo 34926" clip-path="url(#clip-path)">
    <path id="Trazado_294" data-name="Trazado 294" d="M147.5,22.355h-2.536l-.682-20.673a1.74,1.74,0,0,0-3.477,0l-.682,20.673H135.68a.614.614,0,1,0,0,1.229H147.5a1.025,1.025,0,0,1,1.024,1.024v5.1a1.025,1.025,0,0,1-1.024,1.024H121.708a.614.614,0,1,0,0,1.229H147.5a2.255,2.255,0,0,0,2.253-2.253v-5.1a2.256,2.256,0,0,0-2.253-2.253M142.036,1.723a.511.511,0,0,1,1.021,0l.681,20.633h-2.382Z" transform="translate(-107.892)" fill="#00b5dd"/>
    <path id="Trazado_295" data-name="Trazado 295" d="M11.359,30.734H2.253A1.025,1.025,0,0,1,1.229,29.71v-5.1a1.025,1.025,0,0,1,1.024-1.024H25.33a.614.614,0,1,0,0-1.229H9.63L8.948,1.682a1.739,1.739,0,0,0-3.477,0l-.31,9.407a.614.614,0,0,0,1.228.04L6.7,1.723a.511.511,0,0,1,1.021,0L8.4,22.355H6.019l.289-8.769a.614.614,0,1,0-1.228-.04l-.291,8.81H2.253A2.256,2.256,0,0,0,0,24.608v5.1a2.255,2.255,0,0,0,2.253,2.253h9.106a.614.614,0,1,0,0-1.229" fill="#00b5dd"/>
    <path id="Trazado_296" data-name="Trazado 296" d="M38.658,255.481a.614.614,0,1,0,0,1.229H40.62a.614.614,0,0,0,0-1.229Z" transform="translate(-33.896 -227.628)" fill="#00b5dd"/>
    <path id="Trazado_297" data-name="Trazado 297" d="M83.124,255.481H81.162a.614.614,0,1,0,0,1.229h1.963a.614.614,0,0,0,0-1.229" transform="translate(-71.766 -227.628)" fill="#00b5dd"/>
    <path id="Trazado_298" data-name="Trazado 298" d="M123.662,255.481a.614.614,0,1,0,0,1.229h1.963a.614.614,0,0,0,0-1.229Z" transform="translate(-109.632 -227.628)" fill="#00b5dd"/>
    <path id="Trazado_299" data-name="Trazado 299" d="M166.166,255.481a.614.614,0,1,0,0,1.229h1.963a.614.614,0,1,0,0-1.229Z" transform="translate(-147.503 -227.628)" fill="#00b5dd"/>
    <path id="Trazado_300" data-name="Trazado 300" d="M277.538,256.71a.614.614,0,0,0,0-1.229h-1.963a.614.614,0,1,0,0,1.229Z" transform="translate(-244.985 -227.628)" fill="#00b5dd"/>
    <path id="Trazado_301" data-name="Trazado 301" d="M319.46,256.71a.614.614,0,1,0,0-1.229H317.5a.614.614,0,1,0,0,1.229Z" transform="translate(-282.336 -227.628)" fill="#00b5dd"/>
    <path id="Trazado_302" data-name="Trazado 302" d="M114.431,57.23a10.65,10.65,0,0,1,15.045,0,.614.614,0,1,0,.869-.869,11.88,11.88,0,0,0-16.783,0,.614.614,0,0,0,.869.869" transform="translate(-101.021 -47.124)" fill="#00b5dd"/>
    <path id="Trazado_303" data-name="Trazado 303" d="M147.059,86.484a.615.615,0,0,0,0-.869,8.582,8.582,0,0,0-12.111-.01.615.615,0,1,0,.861.876,7.351,7.351,0,0,1,10.381,0,.615.615,0,0,0,.869,0" transform="translate(-120.065 -74.048)" fill="#00b5dd"/>
    <path id="Trazado_304" data-name="Trazado 304" d="M163.028,115.347a.614.614,0,0,0,.434-1.049,5.338,5.338,0,0,0-7.548,0,.614.614,0,1,0,.869.869,4.109,4.109,0,0,1,5.81,0,.612.612,0,0,0,.435.18" transform="translate(-138.756 -100.445)" fill="#00b5dd"/>
    <path id="Trazado_305" data-name="Trazado 305" d="M174.268,139.435a.614.614,0,1,0,.87.867,1.279,1.279,0,0,1,1.8,0,.614.614,0,0,0,.869-.869,2.51,2.51,0,0,0-3.544,0" transform="translate(-155.107 -123.582)" fill="#00b5dd"/>
  </g>
</svg>
