<svg xmlns="http://www.w3.org/2000/svg" width="22.19" height="17.071" viewBox="0 0 22.19 17.071">
  <g id="Grupo_33183" data-name="Grupo 33183" transform="translate(-163.75 -2094.369)">
    <path id="Trazado_140" data-name="Trazado 140" d="M11.046,0A14.868,14.868,0,0,1,21.322,4.268a1.281,1.281,0,0,1,.318.448.635.635,0,0,1-.271.734.667.667,0,0,1-.806-.058c-.3-.262-.586-.551-.894-.807A13.439,13.439,0,0,0,9.631,1.414,13.368,13.368,0,0,0,1.291,5.22c-.054.052-.105.106-.163.154a.671.671,0,0,1-.936-.04A.633.633,0,0,1,.214,4.4,23.924,23.924,0,0,1,2.231,2.717,15.028,15.028,0,0,1,11.046,0" transform="translate(164 2094.619)" fill="#7d7d7d" stroke="#7d7d7d" stroke-width="0.5"/>
    <path id="Trazado_141" data-name="Trazado 141" d="M46.142,52.88a10.783,10.783,0,0,1,7.221,3.155.684.684,0,0,1,.087,1.014A.675.675,0,0,1,52.433,57a9.773,9.773,0,0,0-13.469-.169c-.069.063-.133.131-.2.193a.678.678,0,0,1-.978,0,.663.663,0,0,1,.056-.973,10.855,10.855,0,0,1,2.542-1.868,11.634,11.634,0,0,1,5.76-1.306" transform="translate(129.22 2045.7)" fill="#7d7d7d" stroke="#7d7d7d" stroke-width="0.5"/>
    <path id="Trazado_142" data-name="Trazado 142" d="M80.1,105.4a7,7,0,0,1,4.72,1.971,1.125,1.125,0,0,1,.282.4.635.635,0,0,1-.258.738.65.65,0,0,1-.783-.025c-.213-.166-.4-.36-.619-.525a5.837,5.837,0,0,0-7.533.359,1.193,1.193,0,0,1-.631.292.558.558,0,0,1-.574-.411.66.66,0,0,1,.173-.743,7.068,7.068,0,0,1,2.322-1.53,7.436,7.436,0,0,1,2.9-.531" transform="translate(94.933 1997.117)" fill="#7d7d7d" stroke="#7d7d7d" stroke-width="0.5"/>
    <path id="Trazado_143" data-name="Trazado 143" d="M117.8,160.44a2.36,2.36,0,1,1-2.362-2.378,2.367,2.367,0,0,1,2.362,2.378m-1.346-.011a1.013,1.013,0,1,0-1.014,1.019,1.018,1.018,0,0,0,1.014-1.019" transform="translate(59.391 1948.395)" fill="#7d7d7d" stroke="#7d7d7d" stroke-width="0.5"/>
  </g>
</svg>
