<svg xmlns="http://www.w3.org/2000/svg" xmlns:xlink="http://www.w3.org/1999/xlink" width="67.125" height="54.224" viewBox="0 0 67.125 54.224">
  <defs>
    <linearGradient id="linear-gradient" x1="0.5" y1="-0.527" x2="0.5" y2="1" gradientUnits="objectBoundingBox">
      <stop offset="0" stop-color="#2ddab4"/>
      <stop offset="1" stop-color="#00b5dd"/>
    </linearGradient>
  </defs>
  <path d="M31.464,53.093A20.506,20.506,0,0,1,16.842,30.169,20.2,20.2,0,0,1,30.731,14.292q-.309-1.865-.618-3.731c-.032-.193-.043-.389-.063-.584l.167-.457A1.56,1.56,0,0,1,31.5,8.967c.473,0,.948-.026,1.42-.072.069-.007.136-.01.2-.01a1.407,1.407,0,0,1,1.272.762c.7,1.145,1.442,2.265,2.149,3.407a.523.523,0,0,0,.281.244,3.508,3.508,0,0,1,.417.025q11.479-.6,22.959-1.176A8.44,8.44,0,0,1,64.93,13.4a3.179,3.179,0,0,1,.644.522,1.26,1.26,0,0,1,.091,1.913A7.1,7.1,0,0,1,64.035,17.1,8.47,8.47,0,0,1,60.1,18.2c-1.8.061-3.6.181-5.4.265a.564.564,0,0,0-.483.257q-3.976,5.427-7.96,10.847a1.52,1.52,0,0,1-1.277.7c-.739.016-1.478.076-2.217.108a1.176,1.176,0,0,1-1.334-1.429q.547-4.806,1.112-9.611c.007-.066.007-.132.011-.223H42.41c-.089,0-.173,0-.256,0l-4.958.255a3.338,3.338,0,0,1-.4.029c-.145,0-.289.008-.433.014L36,19.431a14.135,14.135,0,0,0-3.662,27.541,21.454,21.454,0,0,0,13.738-11.89L53.687,24.6a27.1,27.1,0,0,1-.6,8.594A27.185,27.185,0,0,1,33.433,53a2.667,2.667,0,0,1-1.073.22A3.242,3.242,0,0,1,31.464,53.093ZM16.286,51.6A27.038,27.038,0,0,1,.164,24.073,27.2,27.2,0,0,1,16.919,1.914,26.063,26.063,0,0,1,26.767,0,27.485,27.485,0,0,1,39.732,3.278l-.22.014a2.259,2.259,0,0,0-2.2,3.089c.272.993.552,1.984.832,2.974l-.024-.016A20.819,20.819,0,0,0,6.122,27.9,21.185,21.185,0,0,0,19.365,46.328c1.526.647,1.843,2.895,1.095,4.174a2.837,2.837,0,0,1-2.551,1.442A4.193,4.193,0,0,1,16.286,51.6Zm25.2-41.189c-.3-1.128-.633-2.249-.94-3.375a1.173,1.173,0,0,1,1.144-1.6c.79-.049,1.58-.112,2.371-.112h.051A1.522,1.522,0,0,1,45,5.6c1.836,1.475,3.647,2.982,5.464,4.48a1.037,1.037,0,0,1,.1.134l-5.3.272c-1.13.058-2.261.114-3.39.181l-.071,0C41.636,10.668,41.54,10.618,41.484,10.409Z" transform="translate(0.513 0.5)" stroke="rgba(0,0,0,0)" stroke-miterlimit="10" stroke-width="1" fill="url(#linear-gradient)"/>
</svg>