<svg xmlns="http://www.w3.org/2000/svg" width="23.58" height="20.002" viewBox="0 0 23.58 20.002">
  <path id="Unión_5" data-name="Unión 5" d="M10.737,18.955a7.337,7.337,0,0,1-4.99-8.184A7.118,7.118,0,0,1,10.487,5.1q-.106-.666-.211-1.332c-.011-.069-.015-.139-.022-.209l.057-.163a.522.522,0,0,1,.439-.2c.162,0,.324-.009.484-.026a.675.675,0,0,1,.068,0,.477.477,0,0,1,.434.272c.239.409.492.809.733,1.216a.181.181,0,0,0,.1.087,1.145,1.145,0,0,1,.142.009q3.917-.214,7.835-.42a2.783,2.783,0,0,1,1.614.448,1.1,1.1,0,0,1,.22.186.464.464,0,0,1,.031.683,2.44,2.44,0,0,1-.556.452,2.8,2.8,0,0,1-1.344.394c-.615.022-1.229.065-1.844.095a.19.19,0,0,0-.165.092q-1.357,1.937-2.716,3.873a.514.514,0,0,1-.436.248c-.252.006-.5.027-.756.038a.412.412,0,0,1-.455-.51q.187-1.716.38-3.431c0-.024,0-.047,0-.08h-.046c-.031,0-.059,0-.087,0l-1.692.091a1.09,1.09,0,0,1-.137.01c-.049,0-.1,0-.148.005l-.122.007a4.973,4.973,0,0,0-4.506,4.25,5.126,5.126,0,0,0,3.256,5.582,7.431,7.431,0,0,0,4.688-4.245l2.6-3.743a10.111,10.111,0,0,1-.2,3.068,9.505,9.505,0,0,1-6.708,7.073.876.876,0,0,1-.366.079A1.061,1.061,0,0,1,10.737,18.955Zm-5.18-.534a9.723,9.723,0,0,1-5.5-9.827A9.667,9.667,0,0,1,5.774.683,8.552,8.552,0,0,1,9.134,0a9.053,9.053,0,0,1,4.424,1.17l-.075.005a.8.8,0,0,0-.752,1.1c.093.355.188.708.284,1.062l-.008-.006A6.889,6.889,0,0,0,5.622,3.17a7.594,7.594,0,0,0,.986,13.37,1.125,1.125,0,0,1,.374,1.49.96.96,0,0,1-.871.515A1.377,1.377,0,0,1,5.558,18.421Zm8.6-14.705c-.1-.4-.216-.8-.321-1.2a.416.416,0,0,1,.39-.573c.269-.018.539-.04.809-.04h.017a.5.5,0,0,1,.3.1c.627.527,1.244,1.065,1.865,1.6a.369.369,0,0,1,.034.048l-1.81.1c-.386.021-.772.041-1.157.065h-.024C14.208,3.809,14.176,3.791,14.157,3.716Z" transform="translate(0.504 0.5)" fill="#ff5a5f" stroke="rgba(0,0,0,0)" stroke-miterlimit="10" stroke-width="1"/>
</svg>
