<svg id="Grupo_34975" data-name="Grupo 34975" xmlns="http://www.w3.org/2000/svg" xmlns:xlink="http://www.w3.org/1999/xlink" width="40.556" height="35.323" viewBox="0 0 40.556 35.323">
  <defs>
    <clipPath id="clip-path">
      <rect id="Rect치ngulo_4098" data-name="Rect치ngulo 4098" width="40.556" height="35.323" fill="#00b5dd"/>
    </clipPath>
  </defs>
  <g id="Grupo_34934" data-name="Grupo 34934" clip-path="url(#clip-path)">
    <path id="Trazado_344" data-name="Trazado 344" d="M37.285,96H3.271A3.275,3.275,0,0,0,0,99.271v10.466a3.275,3.275,0,0,0,3.271,3.271H26.165v5.233a2.617,2.617,0,0,0,2.616,2.616h6.541a2.617,2.617,0,0,0,2.616-2.616v-5.3a3.276,3.276,0,0,0,2.616-3.2V99.271A3.275,3.275,0,0,0,37.285,96M6.541,110.391H26.165V111.7H6.541Zm0-1.308v-.654a.654.654,0,0,1,.654-.654h18.97v1.308Zm30.09,9.158a1.308,1.308,0,0,1-1.308,1.308H28.781a1.308,1.308,0,0,1-1.308-1.308V106.466a1.308,1.308,0,0,1,1.308-1.308h6.541a1.308,1.308,0,0,1,1.308,1.308Zm2.616-8.5a1.962,1.962,0,0,1-1.308,1.842v-5.113a2.617,2.617,0,0,0-2.616-2.616H28.781a2.617,2.617,0,0,0-2.616,2.616H7.2a1.962,1.962,0,0,0-1.962,1.962V111.7H3.271a1.962,1.962,0,0,1-1.962-1.962V99.271a1.962,1.962,0,0,1,1.962-1.962H37.285a1.962,1.962,0,0,1,1.962,1.962Z" transform="translate(0 -85.534)" fill="#00b5dd"/>
    <path id="Trazado_345" data-name="Trazado 345" d="M168.426,49.962A1.962,1.962,0,1,0,170.388,48a1.962,1.962,0,0,0-1.962,1.962m2.616,0a.654.654,0,1,1-.654-.654.654.654,0,0,1,.654.654" transform="translate(-150.064 -42.767)" fill="#00b5dd"/>
    <path id="Trazado_346" data-name="Trazado 346" d="M162.96,25.347a4.513,4.513,0,0,0-6.425,0l.929.92a3.206,3.206,0,0,1,4.566,0Z" transform="translate(-139.469 -21.387)" fill="#00b5dd"/>
    <path id="Trazado_347" data-name="Trazado 347" d="M144.782,1.308A5.755,5.755,0,0,1,148.9,3.03l.929-.92a7.083,7.083,0,0,0-10.087,0l.929.92a5.755,5.755,0,0,1,4.114-1.722" transform="translate(-124.504)" fill="#00b5dd"/>
    <path id="Trazado_348" data-name="Trazado 348" d="M269.434,223.5l-.866.981a1.962,1.962,0,1,1-2.6,0l-.866-.981a3.271,3.271,0,1,0,4.327,0" transform="translate(-235.218 -199.134)" fill="#00b5dd"/>
    <rect id="Rect치ngulo_4097" data-name="Rect치ngulo 4097" width="1.308" height="2.616" transform="translate(31.398 23.548)" fill="#00b5dd"/>
    <path id="Trazado_349" data-name="Trazado 349" d="M27.271,120H24.654a.654.654,0,0,0-.654.654v2.616a.654.654,0,0,0,.654.654h2.616a.654.654,0,0,0,.654-.654v-2.616a.654.654,0,0,0-.654-.654m-.654,2.616H25.308v-1.308h1.308Z" transform="translate(-21.384 -106.918)" fill="#00b5dd"/>
    <path id="Trazado_350" data-name="Trazado 350" d="M75.271,120H72.654a.654.654,0,0,0-.654.654v2.616a.654.654,0,0,0,.654.654h2.616a.654.654,0,0,0,.654-.654v-2.616a.654.654,0,0,0-.654-.654m-.654,2.616H73.308v-1.308h1.308Z" transform="translate(-64.151 -106.918)" fill="#00b5dd"/>
  </g>
</svg>
