<svg viewBox="0 0 32 32" xmlns="http://www.w3.org/2000/svg" style="height: 23px; width: 23px; fill: #7d7d7d;">
    <path d="m1.66675 2.67728c0-1.29010774 1.19757945-2.22892485 2.43214873-1.95293212l.14254843.03728562 11.76455284 3.5293665 11.7747926-3.3852093c1.1836744-.3403064 2.3638086.45712676 2.5321485 1.63303369l.0152796.14287691.0051793.1462187v23.09468c0 .8279727-.5091718 1.5640524-1.2698418 1.8619846l-.155411.0536419-12.6207 3.7862c-.1499506.0449851-.3078242.0539821-.4609439.026991l-.1137505-.026991-12.62071315-3.786204c-.79308169-.2379357-1.35183119-.937138-1.41857691-1.7513494l-.00671274-.1642731zm1.99999664.00000464v23.24528886l12.33325336 3.6994265 12.3334-3.6994076v-23.0946724l-12.0569924 3.46639925c-.1474472.0423911-.3021582.05014891-.4521925.02334213l-.1114623-.02658488zm21.66607876 17.47821536v2.088l-9.333 2.8v-2.087zm0-6v2.088l-9.333 2.8v-2.087zm0-5.999v2.087l-9.333 2.8v-2.087z"></path>
</svg>