<svg xmlns="http://www.w3.org/2000/svg" width="20" height="22" viewBox="0 0 20 22">
  <path id="Vector" d="M10,18a1,1,0,1,0-.707-.293A1,1,0,0,0,10,18Zm5,0a1,1,0,1,0-.707-.293A1,1,0,0,0,15,18Zm0-4a1,1,0,1,0-.707-.293A1,1,0,0,0,15,14Zm-5,0a1,1,0,1,0-.707-.293A1,1,0,0,0,10,14ZM17,2H16V1a1,1,0,1,0-2,0V2H6V1A1,1,0,0,0,4,1V2H3A3,3,0,0,0,0,5V19a3,3,0,0,0,3,3H17a3,3,0,0,0,3-3V5a3,3,0,0,0-3-3Zm1,17a1,1,0,0,1-1,1H3a1,1,0,0,1-1-1V10H18ZM18,8H2V5A1,1,0,0,1,3,4H4V5A1,1,0,0,0,6,5V4h8V5a1,1,0,1,0,2,0V4h1a1,1,0,0,1,1,1ZM5,14a1,1,0,1,0-.707-.293A1,1,0,0,0,5,14Zm0,4a1,1,0,1,0-.707-.293A1,1,0,0,0,5,18Z" fill="#ff5a5f"/>
</svg>
