<svg xmlns="http://www.w3.org/2000/svg" width="53.615" height="53.615" viewBox="0 0 53.615 53.615">
  <path d="M30.376,3.991l-8.751,8.75a13.532,13.532,0,0,0-3.353,5.527,13.621,13.621,0,0,0-5.532,3.357l-8.75,8.751A13.611,13.611,0,0,0,23.24,49.626l8.75-8.75a13.523,13.523,0,0,0,3.353-5.527,13.614,13.614,0,0,0,5.532-3.357l8.75-8.75A13.611,13.611,0,0,0,30.376,3.991ZM18.665,27.548a13.609,13.609,0,0,0,7.4,7.4l-8.75,8.75a5.235,5.235,0,0,1-7.4-7.4l8.75-8.751h0ZM30.51,39.395l-8.751,8.75A11.517,11.517,0,0,1,5.471,31.857l8.75-8.751A11.546,11.546,0,0,1,17.747,20.7a13.681,13.681,0,0,0,.234,4.68,7.338,7.338,0,0,0-.8.69l-8.75,8.75A7.329,7.329,0,0,0,18.8,45.183l8.75-8.75a7.332,7.332,0,0,0,0-10.365,5.239,5.239,0,0,1-1.171-5.615A11.52,11.52,0,0,1,30.51,39.395ZM48.145,21.759l-8.75,8.751a11.546,11.546,0,0,1-3.525,2.408,13.691,13.691,0,0,0-.234-4.68,7.334,7.334,0,0,0,.8-.69l8.751-8.75A7.33,7.33,0,0,0,35.74,7.651a1.047,1.047,0,0,0,1.218,1.7A5.236,5.236,0,0,1,43.7,17.317l-8.751,8.75h0a13.612,13.612,0,0,0-7.4-7.4L31.116,15.1a1.047,1.047,0,0,0-1.481-1.481l-3.568,3.568a7.332,7.332,0,0,0,0,10.365,5.239,5.239,0,0,1,1.171,5.615,11.52,11.52,0,0,1-4.133-18.942l8.751-8.75A11.517,11.517,0,0,1,48.145,21.759Zm0,0" transform="translate(-0.001 -0.001)" fill="#00b5dd"/>
  <path d="M310.45,99.852a1.047,1.047,0,1,1-1.047-1.047A1.047,1.047,0,0,1,310.45,99.852Zm0,0" transform="translate(-276.066 -88.459)" fill="#00b5dd"/>
  <path d="M82.545,82.545a1.047,1.047,0,0,0,0-1.481L78.1,76.622A1.047,1.047,0,0,0,76.622,78.1l4.442,4.442A1.047,1.047,0,0,0,82.545,82.545Zm0,0" transform="translate(-68.324 -68.324)" fill="#00b5dd"/>
  <path d="M29.074,168.012a1.047,1.047,0,0,0,0,2.094h6.283a1.047,1.047,0,0,0,0-2.094Zm0,0" transform="translate(-25.092 -150.419)" fill="#00b5dd"/>
  <path d="M168.012,26.074v6.282a1.047,1.047,0,1,0,2.094,0V26.074a1.047,1.047,0,1,0-2.094,0Zm0,0" transform="translate(-150.419 -22.407)" fill="#00b5dd"/>
  <path d="M373.572,373.575a1.047,1.047,0,0,0,0,1.481l4.442,4.442a1.047,1.047,0,1,0,1.481-1.481l-4.442-4.442a1.048,1.048,0,0,0-1.481,0Zm0,0" transform="translate(-334.179 -334.181)" fill="#00b5dd"/>
  <path d="M325.086,414.314v-6.283a1.047,1.047,0,0,0-2.094,0v6.283a1.047,1.047,0,0,0,2.094,0Zm0,0" transform="translate(-289.17 -364.367)" fill="#00b5dd"/>
  <path d="M414.314,325.086a1.047,1.047,0,0,0,0-2.094h-6.283a1.047,1.047,0,0,0,0,2.094Zm0,0" transform="translate(-364.367 -289.17)" fill="#00b5dd"/>
</svg>