<svg id="Grupo_33258" data-name="Grupo 33258" xmlns="http://www.w3.org/2000/svg" xmlns:xlink="http://www.w3.org/1999/xlink" width="23.849" height="27.125" viewBox="0 0 23.849 27.125">
  <defs>
    <clipPath id="clip-path">
      <rect id="Rectángulo_3399" data-name="Rectángulo 3399" width="23.849" height="27.125" fill="#333"/>
    </clipPath>
  </defs>
  <g id="Grupo_33257" data-name="Grupo 33257" clip-path="url(#clip-path)">
    <path id="Trazado_161" data-name="Trazado 161" d="M2.124,49.307A6.356,6.356,0,0,1,1,48.83a2.213,2.213,0,0,1-.986-1.922,32.6,32.6,0,0,1,.2-5.022,19.8,19.8,0,0,1,1.683-5.657C2.256,35.466,2.7,34.74,3.1,34c.029-.054.078-.111.076-.165a10.772,10.772,0,0,0-.091-1.9,2.279,2.279,0,0,0-2.18-1.8c-.669-.06-.921-.346-.895-1.013a5.542,5.542,0,0,1,5.346-5.337c1.7-.05,3.409-.014,5.113-.015q3.034,0,6.067,0c.657,0,.954.3.955.953q0,1.444,0,2.887a.818.818,0,0,1-.927.928c-.75,0-1.5,0-2.211,0-.169.358-.3.7-.487,1.015a1.93,1.93,0,0,1-.94.786c-.175.072-.2.167-.186.341a4.632,4.632,0,0,0,1.237,2.748,2.17,2.17,0,0,1,.153.183.768.768,0,0,1-.537,1.264,8.175,8.175,0,0,1-2.736-.143,8.219,8.219,0,0,1-.945-.4,3.076,3.076,0,0,1-.331-.2l-.089.031c.076.66.119,1.327.235,1.98A7.7,7.7,0,0,0,10.864,39a11.18,11.18,0,0,1,1.609,3.745,12.13,12.13,0,0,1,.249,2.789c-.01.556.022,1.116-.037,1.666A2.307,2.307,0,0,1,10.7,49.269a.5.5,0,0,0-.1.038ZM7.953,33.295c0-.747,0-1.469,0-2.192a.868.868,0,0,1,.72-.992c1.128-.378,2.258-.753,3.385-1.133a.831.831,0,0,0,.663-.924q0-1.232,0-2.463c0-.075-.01-.15-.015-.224-2.482,0-4.937-.018-7.391.016a3.652,3.652,0,0,0-1.4.353A3.885,3.885,0,0,0,1.657,28.6a4.145,4.145,0,0,1,3.113,4.692ZM1.595,44.548c0,.786,0,1.543,0,2.3a.8.8,0,0,0,.879.867q3.892,0,7.783,0a.8.8,0,0,0,.877-.868c0-.671,0-1.341,0-2.012,0-.094-.01-.188-.015-.285H6.363c0,.258,0,.5,0,.747a.795.795,0,1,1-1.587-.01c0-.244,0-.488,0-.74Zm9.274-1.611c-.011-.064-.018-.116-.03-.166a9.91,9.91,0,0,0-1.163-2.682c-.357-.6-.661-1.224-.971-1.846a.258.258,0,0,0-.277-.171c-.627.007-1.254,0-1.881,0a1.278,1.278,0,0,0-.169.022v4.84Zm-9.212-.008h3.1V38.075c-.62,0-1.227,0-1.834.007-.055,0-.138.1-.158.164-.248.817-.518,1.63-.717,2.459-.174.725-.265,1.47-.4,2.224M7.948,34.9H4.668a.587.587,0,0,0-.132,0c-.056.013-.135.024-.158.063-.288.49-.568.984-.87,1.513H8.147l-.2-1.578m3.934-1.614c-.151-.374-.325-.74-.446-1.123s-.192-.782-.29-1.2l-1.514.506a2.308,2.308,0,0,0,2.25,1.815m4-7.91H14.328v1.566h1.554Z" transform="translate(0 -22.182)" fill="#333"/>
    <path id="Trazado_162" data-name="Trazado 162" d="M336.332,0a.8.8,0,0,1,.8.785A.793.793,0,0,1,335.546.8a.8.8,0,0,1,.785-.8" transform="translate(-313.284 0)" fill="#333"/>
    <path id="Trazado_163" data-name="Trazado 163" d="M288.411,25.542a.793.793,0,1,1,.8-.785.8.8,0,0,1-.8.785" transform="translate(-268.542 -22.367)" fill="#333"/>
    <path id="Trazado_164" data-name="Trazado 164" d="M336.332,49.5a.793.793,0,1,1,.8-.785.8.8,0,0,1-.8.785" transform="translate(-313.284 -44.734)" fill="#333"/>
    <path id="Trazado_165" data-name="Trazado 165" d="M288.43,73.455a.793.793,0,1,1,.781-.8.8.8,0,0,1-.781.8" transform="translate(-268.541 -67.101)" fill="#333"/>
    <path id="Trazado_166" data-name="Trazado 166" d="M336.332,97.413a.793.793,0,1,1,.8-.786.8.8,0,0,1-.8.786" transform="translate(-313.284 -89.47)" fill="#333"/>
  </g>
</svg>
