<svg id="Grupo_34933" data-name="Grupo 34933" xmlns="http://www.w3.org/2000/svg" xmlns:xlink="http://www.w3.org/1999/xlink" width="49.993" height="37.495" viewBox="0 0 49.993 37.495">
  <defs>
    <clipPath id="clip-path">
      <rect id="Rectángulo_4096" data-name="Rectángulo 4096" width="49.993" height="37.495" fill="#00b5dd"/>
    </clipPath>
  </defs>
  <g id="Grupo_34932" data-name="Grupo 34932" clip-path="url(#clip-path)">
    <path id="Trazado_343" data-name="Trazado 343" d="M48.284,27.974H40.075v-.136A2.38,2.38,0,0,0,37.7,25.461h-.743l-1.227-2.848h9.054a2.2,2.2,0,0,0,2.2-2.2V4.5a2.2,2.2,0,0,0-2.2-2.2H20.87a2.193,2.193,0,0,0-1.739.857l-.46-.431a1.761,1.761,0,0,0-2.1-.242l-.165.1-.891-1.542a.732.732,0,0,0-1.268.732l.891,1.542-.166.1a1.762,1.762,0,0,0-.839,1.937l.195.836L10,10.517a2.471,2.471,0,0,0-3.338,3.338L3.229,17.286a.732.732,0,0,0,1.035,1.036L7.7,14.891a2.47,2.47,0,0,0,.419.174v10.4H6.43a2.307,2.307,0,0,0-2.3,2.3v.209H1.709A1.711,1.711,0,0,0,0,29.683V30.9a1.711,1.711,0,0,0,1.709,1.709h2.71v4.652a.732.732,0,0,0,1.465,0V32.609H8.9L7.374,37.023a.732.732,0,1,0,1.385.478l1.687-4.891h4.678a.732.732,0,1,0,0-1.465H1.709a.244.244,0,0,1-.244-.244V29.683a.245.245,0,0,1,.244-.244H48.284a.245.245,0,0,1,.244.244V30.9a.244.244,0,0,1-.244.244H18.054a.732.732,0,1,0,0,1.465H39.547L41.235,37.5a.732.732,0,0,0,1.385-.478L41.1,32.609H44.11v4.652a.732.732,0,0,0,1.465,0V32.609h2.71A1.711,1.711,0,0,0,49.993,30.9V29.683a1.711,1.711,0,0,0-1.709-1.709M35.359,25.461H30.293l1.227-2.848h2.613Zm9.423-4.313H20.87a.733.733,0,0,1-.732-.732V19.2a2.184,2.184,0,0,0,.732.126H44.781a2.188,2.188,0,0,0,.733-.126v1.211a.733.733,0,0,1-.732.732M17.67,3.8l4.886,4.576a.071.071,0,0,1,.023.063.07.07,0,0,1-.037.055l-5.35,3.089a.071.071,0,0,1-.067,0,.069.069,0,0,1-.042-.051l-1.521-6.52a.306.306,0,0,1,.145-.336l1.6-.923a.3.3,0,0,1,.363.042M8.847,11.7A1.007,1.007,0,1,1,7.84,12.7,1.008,1.008,0,0,1,8.847,11.7m.732,3.369a2.47,2.47,0,0,0,1.454-3.512l3.689-3.689.934,4a1.524,1.524,0,0,0,.886,1.062,1.526,1.526,0,0,0,1.381-.079l.749-.433v.952a.732.732,0,1,0,1.465,0v-1.8l3.137-1.811a1.539,1.539,0,0,0,.283-2.455L20.215,4.174a.732.732,0,0,1,.656-.406H44.782a.733.733,0,0,1,.732.732V17.133a.733.733,0,0,1-.732.732H20.87a.733.733,0,0,1-.732-.732V16.3a.732.732,0,1,0-1.465,0v4.118a2.2,2.2,0,0,0,2.2,2.2h9.054L28.7,25.461h-.743a2.38,2.38,0,0,0-2.378,2.377v.136H13.569v-.209a2.307,2.307,0,0,0-2.3-2.3H9.58ZM5.59,27.974v-.209a.841.841,0,0,1,.84-.84h4.834a.841.841,0,0,1,.84.84v.209Zm21.451,0v-.136a.914.914,0,0,1,.913-.913H37.7a.914.914,0,0,1,.913.913v.136Z" transform="translate(0 -0.587)" fill="#00b5dd"/>
  </g>
</svg>
