<svg xmlns="http://www.w3.org/2000/svg" width="21.131" height="28.307" viewBox="0 0 21.131 28.307">
  <g id="Grupo_33191" data-name="Grupo 33191" transform="translate(-540.75 -2179.363)">
    <path id="Trazado_115" data-name="Trazado 115" d="M0,13.876q0-6.6,0-13.2C0,.12.119,0,.672,0H19.958c.553,0,.673.12.673.672q0,13.231,0,26.462c0,.552-.121.673-.673.673H.673c-.553,0-.673-.12-.673-.673q0-6.629,0-13.259m10.783,10.77h6.246V5.844H10.783Zm-7.176,0H9.853V5.844H3.607ZM19.721.918H.911v4H6.728c0-.866,0-1.714,0-2.563,0-.4.157-.559.561-.559q3.027,0,6.054,0c.4,0,.559.158.56.561,0,.757,0,1.514,0,2.27V4.92h5.817ZM.919,5.844v20.54c.54-.451,1.041-.883,1.56-1.293a.53.53,0,0,0,.216-.472q-.007-9.231,0-18.462V5.844Zm18.8,20.541V5.853H17.94V18.342q0,3.152,0,6.3a.479.479,0,0,0,.089.325c.54.472,1.1.926,1.682,1.414m-.784.515c-.5-.416-.95-.78-1.385-1.161a.7.7,0,0,0-.5-.177q-6.6.007-13.2-.006a1.3,1.3,0,0,0-.974.36c-.355.333-.743.631-1.165.984ZM7.637,4.914h5.347V2.706H7.637Z" transform="translate(541 2179.613)" fill="#7d7d7d" stroke="#7d7d7d" stroke-width="0.5"/>
    <path id="Trazado_116" data-name="Trazado 116" d="M163.536,203.585c.42,0,.841,0,1.261,0,.452.006.647.31.449.714-.419.854-.839,1.709-1.283,2.55a.709.709,0,0,1-.419.308c-.213.053-.355-.117-.449-.306-.42-.843-.844-1.685-1.261-2.529-.215-.436-.023-.734.468-.738.411,0,.822,0,1.233,0m-.615.906.618,1.228.61-1.228Z" transform="translate(391.367 1991.277)" fill="#7d7d7d" stroke="#7d7d7d" stroke-width="0.5"/>
    <path id="Trazado_117" data-name="Trazado 117" d="M163.574,147.624c-.4,0-.8,0-1.2,0-.49,0-.685-.3-.472-.735.412-.836.834-1.668,1.248-2.5a.478.478,0,0,1,.9-.006c.419.844.846,1.683,1.262,2.528.2.4,0,.71-.448.715-.429.006-.859,0-1.288,0m-.586-.914h1.22l-.612-1.221-.608,1.221" transform="translate(391.307 2046.341)" fill="#7d7d7d" stroke="#7d7d7d" stroke-width="0.5"/>
    <path id="Trazado_118" data-name="Trazado 118" d="M67.72,203.576c.42,0,.841-.005,1.261,0a.451.451,0,0,1,.443.7c-.427.871-.857,1.741-1.31,2.6a.446.446,0,0,1-.815,0c-.457-.866-.892-1.744-1.321-2.624a.444.444,0,0,1,.426-.674c.439-.009.878,0,1.317,0m-.629.9.616,1.228.613-1.228Z" transform="translate(480.021 1991.286)" fill="#7d7d7d" stroke="#7d7d7d" stroke-width="0.5"/>
    <path id="Trazado_119" data-name="Trazado 119" d="M67.728,147.655c-.42,0-.84.005-1.26,0a.453.453,0,0,1-.435-.705c.419-.854.838-1.707,1.283-2.547a.7.7,0,0,1,.427-.3c.208-.046.358.111.453.3.419.843.846,1.683,1.261,2.528a.455.455,0,0,1-.441.719c-.429.006-.859,0-1.288,0m.02-2.132-.605,1.214h1.215l-.61-1.214" transform="translate(479.979 2046.31)" fill="#7d7d7d" stroke="#7d7d7d" stroke-width="0.5"/>
  </g>
</svg>
