<svg id="Grupo_34918" data-name="Grupo 34918" xmlns="http://www.w3.org/2000/svg" xmlns:xlink="http://www.w3.org/1999/xlink" width="45.133" height="45.382" viewBox="0 0 45.133 45.382">
  <defs>
    <clipPath id="clip-path">
      <rect id="Rectángulo_4085" data-name="Rectángulo 4085" width="45.133" height="45.382" fill="#00b5dd"/>
    </clipPath>
  </defs>
  <g id="Grupo_34917" data-name="Grupo 34917" transform="translate(0 0)" clip-path="url(#clip-path)">
    <path id="Trazado_273" data-name="Trazado 273" d="M45.049,37.282a3.162,3.162,0,0,0-2.1-2.347L41.1,34.44a4.4,4.4,0,0,0,.3-.78,7.054,7.054,0,0,0-.055-3.692c-.77-2.873-2.874-4.722-4.789-4.209l-.533.143a19.676,19.676,0,0,0-.314-11.182A20.377,20.377,0,0,0,33.15,9.339a.884.884,0,0,0-1.585.363,6.939,6.939,0,0,1-1.858,3.625c.624-5.253-1.081-8.476-2.745-10.312a10.515,10.515,0,0,0-4.6-2.984A.884.884,0,0,0,21.359,1.31c1.978,3.6,1.1,4.785-.345,6.75a14.954,14.954,0,0,0-1.788,2.9,9.34,9.34,0,0,0-3.451-3.865.884.884,0,0,0-1.351.946c.873,3.526-.859,5.57-2.694,7.733-2.1,2.479-4.454,5.255-2.324,10.176l-.7-.188c-1.915-.513-4.019,1.336-4.789,4.209a6.484,6.484,0,0,0,.25,4.472l-1.848.5a3.162,3.162,0,0,0-2.1,2.347A7.552,7.552,0,0,0,2.074,44.2a3.435,3.435,0,0,0,2.345,1.068,2.488,2.488,0,0,0,.646-.084h0l17.57-4.708,17.571,4.708a2.5,2.5,0,0,0,.65.085c1.721,0,3.456-1.743,4.139-4.294A7.056,7.056,0,0,0,45.049,37.282Zm-8.027-9.815c.808-.216,2.1,1,2.623,2.958.041.154.076.308.105.462l-1.632.437a.884.884,0,1,0,.458,1.708l1.233-.33a3.709,3.709,0,0,1-.1.471,1.486,1.486,0,0,1-.855,1.125L7.172,42.788a7.016,7.016,0,0,0-.065-3.644,7.08,7.08,0,0,0-1.763-3.189ZM13.079,16.914c1.578-1.862,3.328-3.925,3.351-6.988a7.534,7.534,0,0,1,1.9,5.547.884.884,0,1,0,1.768,0,9.494,9.494,0,0,1,2.337-6.364C23.7,7.4,24.9,5.77,23.914,2.721a9.028,9.028,0,0,1,1.793,1.544C28,6.847,28.636,10.523,27.593,15.192a.884.884,0,0,0,1.25.988,8.876,8.876,0,0,0,3.849-4.158,20.7,20.7,0,0,1,1.36,3.293,17.42,17.42,0,0,1-.036,11.127L28.573,27.9c.05-.321.091-.641.12-.958a.884.884,0,0,0-1.761-.162,14.372,14.372,0,0,1-.249,1.627l-4.048,1.085-5.129-1.374a5.761,5.761,0,0,1,.7-4.726,5.058,5.058,0,0,0,1.644,2.321.884.884,0,0,0,1.046.006,10.855,10.855,0,0,0,4.046-6.69c.137.2.274.4.408.625a.884.884,0,0,0,1.512-.917A13.027,13.027,0,0,0,24.7,16.048a.884.884,0,0,0-1.484.749,7.713,7.713,0,0,1-1.437,5.434,10.084,10.084,0,0,1-1.36,1.577,5.2,5.2,0,0,1-.881-2.407.884.884,0,0,0-1.507-.56,7.569,7.569,0,0,0-2.409,6.771l-3.929-1.053C8.962,21.77,10.783,19.621,13.079,16.914ZM5.6,30.527l1.686.452a.884.884,0,0,0,.458-1.708l-1.468-.393c.61-1.011,1.41-1.561,1.974-1.41l10.972,2.94L5.943,33.964A4.207,4.207,0,0,1,5.6,30.527m-3.615,9.99a5.352,5.352,0,0,1-.063-2.749,1.486,1.486,0,0,1,.855-1.125.743.743,0,0,1,.193-.025,1.726,1.726,0,0,1,1.11.571A5.351,5.351,0,0,1,5.4,39.6c.524,1.955.014,3.658-.793,3.874a1.487,1.487,0,0,1-1.3-.547,5.351,5.351,0,0,1-1.32-2.412M29.65,38.6l.041.013,2.726.73a.884.884,0,0,0,.614-1.649l6.28-1.683a2.47,2.47,0,0,0,.35-.123l.264.071A7.554,7.554,0,0,0,38.1,42.788L26.051,39.56Zm13.636,1.921c-.524,1.955-1.818,3.174-2.623,2.958s-1.317-1.919-.793-3.874a5.35,5.35,0,0,1,1.32-2.412,1.726,1.726,0,0,1,1.11-.571.747.747,0,0,1,.193.025,1.486,1.486,0,0,1,.855,1.125,5.351,5.351,0,0,1-.063,2.749" transform="translate(-0.02 0.107)" fill="#00b5dd"/>
    <path id="Trazado_274" data-name="Trazado 274" d="M301.966,249.762a.884.884,0,1,0,.885-.884h0a.884.884,0,0,0-.884.884" transform="translate(-275.287 -226.766)" fill="#00b5dd"/>
    <path id="Trazado_275" data-name="Trazado 275" d="M116.108,415.379a.886.886,0,0,0,.229-.03l1.948-.522a.884.884,0,0,0-.458-1.708l-1.948.522a.884.884,0,0,0,.228,1.738Z" transform="translate(-105.057 -376.458)" fill="#00b5dd"/>
    <path id="Trazado_276" data-name="Trazado 276" d="M268.094,370.33a.885.885,0,0,0,.229-.03l1.947-.522a.884.884,0,0,0-.458-1.708l-1.947.522a.884.884,0,0,0,.228,1.738" transform="translate(-243.605 -335.392)" fill="#00b5dd"/>
  </g>
</svg>
