<svg xmlns="http://www.w3.org/2000/svg" width="27.299" height="22.281" viewBox="0 0 27.299 22.281">
  <g id="Grupo_33189" data-name="Grupo 33189" transform="translate(-537.75 -2102.431)">
    <path id="Trazado_104" data-name="Trazado 104" d="M8.252,18.629a10.879,10.879,0,0,1-.01,1.389A2.015,2.015,0,0,1,6.257,21.77c-.935.016-1.87.015-2.8,0a2.079,2.079,0,0,1-2.1-2.075c-.009-.3.009-.6-.009-.9-.005-.09-.093-.173-.136-.263A1.373,1.373,0,0,1,1,18.056c-.019-.99-.01-1.981-.01-2.971,0-1.608.007-3.215-.006-4.822a1.209,1.209,0,0,1,.279-.819c.4-.493.764-1.006,1.186-1.567-.274,0-.484,0-.695,0A1.747,1.747,0,0,1,0,6.134c0-.234,0-.467,0-.7A1.109,1.109,0,0,1,1.173,4.274c.813,0,1.625,0,2.465,0L4.089,2.4c.068-.281.133-.563.2-.844A1.88,1.88,0,0,1,6.271.005q6.927,0,13.854,0a4.737,4.737,0,0,1,.867.029,1.792,1.792,0,0,1,1.5,1.374c.247.938.46,1.885.7,2.866h.293c.72,0,1.44,0,2.159,0A1.1,1.1,0,0,1,26.8,5.416a5.9,5.9,0,0,1-.046,1.06,1.7,1.7,0,0,1-1.685,1.4c-.2,0-.408,0-.659,0,.064.1.1.171.148.233.37.493.753.978,1.106,1.483a1.007,1.007,0,0,1,.177.537c.011,2.626.007,5.252.01,7.879a.575.575,0,0,1-.277.569.311.311,0,0,0-.1.229c-.012.317,0,.636-.009.953a2.054,2.054,0,0,1-2.009,2.011q-1.444.026-2.888,0a2.055,2.055,0,0,1-2.012-2.007c-.01-.371,0-.743,0-1.133Zm16.675-3.392V13.877h-.353c-1.467,0-2.935,0-4.4,0-.456,0-.651-.308-.447-.709Q20.4,11.83,21.1,10.5a1.133,1.133,0,0,1,.917-.614c.389-.047.78-.081,1.17-.125.44-.049.879-.1,1.368-.159-.394-.524-.759-1-1.105-1.479a.549.549,0,0,0-.507-.257q-7.375.011-14.749.006c-1.458,0-2.916,0-4.374,0a.43.43,0,0,0-.3.087C3.1,8.492,2.705,9.032,2.284,9.59c.115.023.194.046.275.055.715.08,1.429.165,2.145.233a1.252,1.252,0,0,1,1.081.727c.416.825.848,1.642,1.272,2.463.266.515.089.809-.491.809q-2.159,0-4.318,0H1.9v1.35a1.356,1.356,0,0,0,.173.023q3.281,0,6.561,0a.247.247,0,0,0,.275-.206c.245-.754.5-1.5.751-2.256.116-.345.235-.433.593-.433q3.155,0,6.309,0c.36,0,.478.087.594.431.244.725.495,1.448.725,2.177a.34.34,0,0,0,.388.289c2.122-.011,4.243-.006,6.365-.007.092,0,.183-.008.289-.012M22.881,6.965a1.594,1.594,0,0,0-.02-.2q-.595-2.491-1.194-4.981A1,1,0,0,0,20.551.9H6.277a1.013,1.013,0,0,0-1.119.878q-.335,1.388-.666,2.776c-.19.8-.377,1.593-.57,2.408ZM5.726,17.681H21.109V16.163H5.726ZM9.8,15.215h7.224c-.216-.643-.42-1.26-.636-1.872-.016-.044-.118-.083-.179-.083q-2.789-.007-5.578,0a.286.286,0,0,0-.218.145c-.21.587-.4,1.18-.614,1.807M2.285,18.637a10.232,10.232,0,0,0,.011,1.3,1.1,1.1,0,0,0,1.1.933q1.429.018,2.859,0a1.091,1.091,0,0,0,1.084-.919,9.979,9.979,0,0,0,.012-1.316Zm17.166,0c0,.384-.009.746,0,1.107a1.15,1.15,0,0,0,1.125,1.132c.951.015,1.9.012,2.855,0a1.087,1.087,0,0,0,1.087-.879,9.159,9.159,0,0,0,.014-1.361Zm1.388-5.669h4.089V10.5a.987.987,0,0,0-.131-.006c-.891.1-1.782.189-2.672.294a.331.331,0,0,0-.224.14c-.355.664-.7,1.334-1.062,2.036m-14.887,0a.3.3,0,0,0-.01-.093c-.328-.638-.65-1.279-.994-1.908a.469.469,0,0,0-.312-.183c-.451-.068-.907-.113-1.361-.162s-.9-.093-1.368-.14v2.487ZM4.8,16.165H1.91v1.5H4.8Zm20.142,0H22.046v1.5h2.893ZM3.425,5.171H1.276c-.047,0-.108-.018-.137,0-.085.067-.221.147-.224.227a4.133,4.133,0,0,0,.04.917.748.748,0,0,0,.83.659c.336,0,.672.008,1.007-.006.079,0,.209-.067.225-.127.145-.547.271-1.1.409-1.675m19.98,0c.14.584.268,1.143.415,1.7.014.052.139.1.215.105.326.012.653.006.979,0a.744.744,0,0,0,.834-.653,3.846,3.846,0,0,0,.042-.916.34.34,0,0,0-.242-.228c-.735-.018-1.471-.01-2.244-.01" transform="translate(538 2102.679)" fill="#7d7d7d" stroke="#7d7d7d" stroke-width="0.5"/>
  </g>
</svg>
