<svg id="Grupo_34977" data-name="Grupo 34977" xmlns="http://www.w3.org/2000/svg" width="44.115" height="41.745" viewBox="0 0 44.115 41.745">
  <path id="Trazado_361" data-name="Trazado 361" d="M41.174,93.867a2.944,2.944,0,0,0-2.941,2.941v2.941a.735.735,0,1,0,1.47,0V96.808a1.47,1.47,0,0,1,2.941,0V107.1h-1.47V104.9a1.472,1.472,0,0,0-1.471-1.47H1.471A1.472,1.472,0,0,0,0,104.9v5.882a1.472,1.472,0,0,0,1.471,1.47v16.176a1.472,1.472,0,0,0,1.47,1.47H38.233a1.472,1.472,0,0,0,1.47-1.47V119.6h2.941v9.558a.735.735,0,1,0,1.47,0V96.808a2.944,2.944,0,0,0-2.941-2.941m-6.617,34.557v-13.97a.735.735,0,1,0-1.471,0v13.97H30.145v-13.97a.735.735,0,1,0-1.471,0v13.97H25.734v-13.97a.735.735,0,1,0-1.47,0v13.97H21.322v-13.97a.735.735,0,1,0-1.47,0v13.97H16.911v-13.97a.735.735,0,1,0-1.47,0v13.97H12.5v-13.97a.735.735,0,1,0-1.471,0v13.97H8.088v-13.97a.735.735,0,1,0-1.471,0v13.97H2.941V112.248H38.233v16.176Zm4.411-17.646H1.471V104.9H39.7v5.882Zm3.676,7.352H39.7v-5.882a1.472,1.472,0,0,0,1.471-1.47v-2.206h1.47Z" transform="translate(0 -88.149)" fill="#00b5dd"/>
  <g id="Grupo_34944" data-name="Grupo 34944" transform="translate(25.216)">
    <path id="Trazado_362" data-name="Trazado 362" d="M283.356,8.052a.736.736,0,0,0,.927-.471,5.43,5.43,0,0,0,.246-1.7,5.215,5.215,0,0,0-.832-2.938,3.816,3.816,0,0,1-.638-2.209.735.735,0,1,0-1.471,0,5.217,5.217,0,0,0,.832,2.938,3.818,3.818,0,0,1,.638,2.208,4,4,0,0,1-.174,1.243.735.735,0,0,0,.472.927" transform="translate(-281.588)" fill="#00b5dd"/>
    <path id="Trazado_363" data-name="Trazado 363" d="M282.337,113.29a.735.735,0,0,0,.735-.735,4.88,4.88,0,0,1,.039-.639.735.735,0,0,0-1.458-.192,6.352,6.352,0,0,0-.052.831.735.735,0,0,0,.735.735" transform="translate(-281.6 -101.525)" fill="#00b5dd"/>
  </g>
  <g id="Grupo_34943" data-name="Grupo 34943" transform="translate(18.108 2.097)">
    <path id="Trazado_364" data-name="Trazado 364" d="M214.112,44.874a.736.736,0,0,0,.73-.831,4.938,4.938,0,0,1-.039-.639.735.735,0,0,0-1.471,0,6.422,6.422,0,0,0,.052.832.735.735,0,0,0,.728.639" transform="translate(-213.331 -42.668)" fill="#00b5dd"/>
    <path id="Trazado_365" data-name="Trazado 365" d="M214.055,93.48a.735.735,0,0,0,.735-.735,3.817,3.817,0,0,1,.638-2.209,5.219,5.219,0,0,0,.832-2.938,5.412,5.412,0,0,0-.247-1.7.735.735,0,0,0-1.4.456,3.976,3.976,0,0,1,.174,1.243,3.813,3.813,0,0,1-.638,2.209,5.215,5.215,0,0,0-.832,2.938.735.735,0,0,0,.735.735" transform="translate(-213.319 -81.716)" fill="#00b5dd"/>
  </g>
  <g id="Grupo_34945" data-name="Grupo 34945" transform="translate(31.536 2.097)">
    <path id="Trazado_366" data-name="Trazado 366" d="M350.647,44.874a.736.736,0,0,0,.73-.831,4.886,4.886,0,0,1-.039-.639.735.735,0,0,0-1.47,0,6.349,6.349,0,0,0,.052.832.735.735,0,0,0,.728.639" transform="translate(-349.866 -42.668)" fill="#00b5dd"/>
    <path id="Trazado_367" data-name="Trazado 367" d="M350.59,93.48a.735.735,0,0,0,.735-.735,3.816,3.816,0,0,1,.638-2.209A5.22,5.22,0,0,0,352.8,87.6a5.411,5.411,0,0,0-.247-1.7.735.735,0,0,0-1.4.456,3.975,3.975,0,0,1,.174,1.243,3.816,3.816,0,0,1-.638,2.209,5.218,5.218,0,0,0-.832,2.938.735.735,0,0,0,.735.735" transform="translate(-349.854 -81.716)" fill="#00b5dd"/>
  </g>
  <g id="Grupo_34942" data-name="Grupo 34942" transform="translate(11)">
    <path id="Trazado_368" data-name="Trazado 368" d="M146.821,8.052a.735.735,0,0,0,.927-.471,5.431,5.431,0,0,0,.246-1.7,5.217,5.217,0,0,0-.832-2.938,3.817,3.817,0,0,1-.638-2.209.735.735,0,1,0-1.471,0,5.215,5.215,0,0,0,.832,2.938,3.817,3.817,0,0,1,.638,2.208,3.984,3.984,0,0,1-.174,1.243.735.735,0,0,0,.471.927" transform="translate(-145.053)" fill="#00b5dd"/>
    <path id="Trazado_369" data-name="Trazado 369" d="M145.8,113.29a.735.735,0,0,0,.735-.735,4.9,4.9,0,0,1,.039-.639.735.735,0,0,0-1.457-.192,6.355,6.355,0,0,0-.052.831.735.735,0,0,0,.735.735" transform="translate(-145.066 -101.525)" fill="#00b5dd"/>
  </g>
  <g id="Grupo_34941" data-name="Grupo 34941" transform="translate(3.891 2.097)">
    <path id="Trazado_370" data-name="Trazado 370" d="M77.58,44.874a.736.736,0,0,0,.73-.831,4.877,4.877,0,0,1-.039-.639.735.735,0,0,0-1.471,0,6.423,6.423,0,0,0,.052.832.735.735,0,0,0,.728.639" transform="translate(-76.8 -42.668)" fill="#00b5dd"/>
    <path id="Trazado_371" data-name="Trazado 371" d="M77.524,93.48a.735.735,0,0,0,.735-.735,3.816,3.816,0,0,1,.638-2.209A5.217,5.217,0,0,0,79.73,87.6a5.412,5.412,0,0,0-.247-1.7.735.735,0,0,0-1.4.456,3.966,3.966,0,0,1,.175,1.243,3.816,3.816,0,0,1-.638,2.209,5.218,5.218,0,0,0-.832,2.938.735.735,0,0,0,.735.735" transform="translate(-76.788 -81.716)" fill="#00b5dd"/>
  </g>
</svg>
