<svg id="Grupo_34925" data-name="Grupo 34925" xmlns="http://www.w3.org/2000/svg" xmlns:xlink="http://www.w3.org/1999/xlink" width="52.473" height="50.15" viewBox="0 0 52.473 50.15">
  <defs>
    <clipPath id="clip-path">
      <rect id="Rectángulo_4092" data-name="Rectángulo 4092" width="52.473" height="50.15" fill="#00b5dd"/>
    </clipPath>
  </defs>
  <g id="Grupo_34924" data-name="Grupo 34924" transform="translate(0 0)" clip-path="url(#clip-path)">
    <path id="Trazado_285" data-name="Trazado 285" d="M51.7,137.9H50.611v-3.836a3.748,3.748,0,0,0-.811-2.324l-.547-.688v-1.867a1.282,1.282,0,0,0-1.281-1.281h-.834a1.282,1.282,0,0,0-1.281,1.281v1.867l-.547.688a3.747,3.747,0,0,0-.811,2.324V137.9h-.891v-1.889a3.748,3.748,0,0,0-.811-2.324L42.249,133V131.13a1.282,1.282,0,0,0-1.281-1.281h-.834a1.282,1.282,0,0,0-1.281,1.281V133l-.547.688a3.749,3.749,0,0,0-.811,2.324V137.9h-2.7v-.3a1.686,1.686,0,0,0-1.684-1.684H31.816a.769.769,0,0,0,0,1.537H33.11a.147.147,0,0,1,.147.147v.3H27.005v-1.216a.769.769,0,0,0-1.537,0V137.9H19.216v-.3a.147.147,0,0,1,.147-.147h1.294a.769.769,0,0,0,0-1.537H19.363a1.686,1.686,0,0,0-1.685,1.684v.3H5.79v-5.213a1.452,1.452,0,1,1,2.9,0v2.6a.769.769,0,0,0,1.537,0v-2.6a2.989,2.989,0,1,0-5.978,0v2.682h-.94a.769.769,0,1,0,0,1.537h.94v.994H.769a.768.768,0,0,0-.769.769V151.3a.769.769,0,0,0,1.537,0v-2h13.17v14.077H1.794a.256.256,0,0,1-.256-.256v-8.745a.769.769,0,0,0-1.537,0v8.745a1.8,1.8,0,0,0,1.794,1.794H50.68a1.8,1.8,0,0,0,1.794-1.794v-8.745a.769.769,0,0,0-1.537,0v8.745a.256.256,0,0,1-.256.256H37.766V149.294h13.17v2a.769.769,0,0,0,1.537,0v-12.63a.768.768,0,0,0-.769-.769m-5.669-3.836a2.2,2.2,0,0,1,.477-1.367l.714-.9a.768.768,0,0,0,.167-.478v-1.879h.322v1.879a.765.765,0,0,0,.167.478l.714.9a2.205,2.205,0,0,1,.478,1.367V137.9H46.036Zm-7,1.947a2.2,2.2,0,0,1,.477-1.367l.714-.9a.769.769,0,0,0,.167-.478v-1.879h.321v1.879a.768.768,0,0,0,.167.478l.714.9a2.2,2.2,0,0,1,.477,1.367V137.9H39.032ZM1.537,139.435h49.4v1.323H1.537Zm34.692,8.322H16.244v-5.462H36.229ZM1.537,142.295h13.17v5.462H1.537Zm34.692,21.077H16.244V149.294H36.229Zm1.537-21.077h13.17v5.462H37.766Z" transform="translate(0 -114.777)" fill="#00b5dd"/>
    <path id="Trazado_286" data-name="Trazado 286" d="M192.417,278.335a2.019,2.019,0,1,0-2.019-2.019,2.021,2.021,0,0,0,2.019,2.019m0-2.5a.482.482,0,1,1-.482.482.482.482,0,0,1,.482-.482" transform="translate(-170.885 -246.168)" fill="#00b5dd"/>
    <path id="Trazado_287" data-name="Trazado 287" d="M284.214,278.335a2.019,2.019,0,1,0-2.019-2.019,2.022,2.022,0,0,0,2.019,2.019m0-2.5a.482.482,0,1,1-.482.482.482.482,0,0,1,.482-.482" transform="translate(-253.274 -246.168)" fill="#00b5dd"/>
    <path id="Trazado_288" data-name="Trazado 288" d="M144.781,11.274h20.5a1.282,1.282,0,0,0,1.281-1.281V7.6c0-.006,0-.011,0-.017V7.578s0-.009,0-.013,0-.006,0-.008,0-.007,0-.011a.078.078,0,0,0,0-.009.023.023,0,0,0,0-.005.761.761,0,0,0-.156-.4h0l-.007-.009,0,0-.011-.013,0-.005-.005-.006-.007-.008,0,0-.01-.011,0,0-.008-.008,0,0-.011-.011,0,0-.009-.008,0,0-.008-.007-.008-.006-.007-.006L166.275,7l0,0a.765.765,0,0,0-.133-.086l-6.887-3.681V.769a.769.769,0,1,0-1.537,0V3.388a1.279,1.279,0,0,0,.677,1.13l4.331,2.315H147.337l4.33-2.315a1.279,1.279,0,0,0,.677-1.13V.769a.769.769,0,0,0-1.537,0V3.234l-6.887,3.682a.785.785,0,0,0-.133.086l0,0-.008.006-.007.006-.008.007-.008.007,0,0-.009.008,0,0-.011.011,0,0-.008.009,0,0-.01.011,0,0-.007.008-.005.006,0,.006-.011.013,0,0-.007.009h0a.764.764,0,0,0-.157.4.022.022,0,0,1,0,.005s0,.006,0,.009a.1.1,0,0,0,0,.011s0,.006,0,.008,0,.009,0,.014,0,0,0,.005V9.993a1.282,1.282,0,0,0,1.281,1.281m20.241-1.537H145.037V8.369h19.985Z" transform="translate(-128.793 0.017)" fill="#00b5dd"/>
    <path id="Trazado_289" data-name="Trazado 289" d="M411.509,280.2h-3.741a.769.769,0,0,0,0,1.537h3.741a.769.769,0,0,0,0-1.537" transform="translate(-365.288 -251.469)" fill="#00b5dd"/>
    <path id="Trazado_290" data-name="Trazado 290" d="M58.009,280.2H54.269a.769.769,0,0,0,0,1.537h3.741a.769.769,0,0,0,0-1.537" transform="translate(-48.017 -251.469)" fill="#00b5dd"/>
    <path id="Trazado_291" data-name="Trazado 291" d="M378,376.644v3.224a.769.769,0,0,0,1.537,0v-3.224a.769.769,0,1,0-1.537,0" transform="translate(-339.26 -337.336)" fill="#00b5dd"/>
    <path id="Trazado_292" data-name="Trazado 292" d="M120.537,379.868v-3.224a.769.769,0,1,0-1.537,0v3.224a.769.769,0,0,0,1.537,0" transform="translate(-106.804 -337.336)" fill="#00b5dd"/>
    <path id="Trazado_293" data-name="Trazado 293" d="M172.781,360.794h14.758a1.282,1.282,0,0,0,1.281-1.281V350.6a1.283,1.283,0,0,0-1.281-1.281H172.781A1.283,1.283,0,0,0,171.5,350.6v8.916a1.282,1.282,0,0,0,1.281,1.281m.256-9.941h14.246v8.4H173.037Z" transform="translate(-153.924 -313.499)" fill="#00b5dd"/>
  </g>
</svg>
