<svg xmlns="http://www.w3.org/2000/svg" width="29.206" height="27.153" viewBox="0 0 29.206 27.153">
  <g id="Grupo_33184" data-name="Grupo 33184" transform="translate(-160.75 -2052.456)">
    <path id="Trazado_129" data-name="Trazado 129" d="M0,111.928a.778.778,0,0,1,.767-.394c1.541.014,3.083.006,4.624.006h.332a8.61,8.61,0,0,1,3.9-6.648,8.278,8.278,0,0,1,5.149-1.412,8.408,8.408,0,0,1,5.617,2.461,8.57,8.57,0,0,1,2.586,5.6h.307q2.34,0,4.681,0a1.247,1.247,0,0,1,.385.048.538.538,0,0,1,.356.573.559.559,0,0,1-.469.489,1.923,1.923,0,0,1-.28.009H17.076c-.075,0-.15,0-.224,0a.556.556,0,0,1-.536-.542.567.567,0,0,1,.51-.57,2.092,2.092,0,0,1,.252-.005H21.81a7.479,7.479,0,0,0-14.919,0h.3q2.228,0,4.456,0a1.3,1.3,0,0,1,.332.029.546.546,0,0,1,.405.568.557.557,0,0,1-.5.517,2.3,2.3,0,0,1-.252.006q-5.437,0-10.875.006a.745.745,0,0,1-.758-.4Z" transform="translate(161 1956.988)" fill="#7d7d7d" stroke="#7d7d7d" stroke-width="0.5"/>
    <path id="Trazado_130" data-name="Trazado 130" d="M70.889,256.05a3.42,3.42,0,0,1-2.392-1,2.113,2.113,0,0,0-2.384-.451,3.317,3.317,0,0,0-.866.6,3.346,3.346,0,0,1-4.258.165c-.111-.084-.214-.18-.319-.273a2.22,2.22,0,0,0-3.214.024,3.309,3.309,0,0,1-2.529.923,3.24,3.24,0,0,1-2.108-.922.549.549,0,0,1-.063-.819.555.555,0,0,1,.823,0,2.158,2.158,0,0,0,2.309.484,2.615,2.615,0,0,0,.84-.536,3.36,3.36,0,0,1,4.664-.016,2.22,2.22,0,0,0,3.253-.01,3.345,3.345,0,0,1,4.618,0,2.22,2.22,0,0,0,3.2.063.56.56,0,0,1,.822.018.55.55,0,0,1-.063.8,3.263,3.263,0,0,1-2.329.938" transform="translate(112.339 1818.374)" fill="#7d7d7d" stroke="#7d7d7d" stroke-width="0.5"/>
    <path id="Trazado_131" data-name="Trazado 131" d="M115.87,319.653a3.265,3.265,0,0,1-2.264-.884,2.231,2.231,0,0,0-3.316-.005,3.341,3.341,0,0,1-4.532.027.867.867,0,0,1-.263-.521.532.532,0,0,1,.8-.469,1.275,1.275,0,0,1,.222.169,2.2,2.2,0,0,0,3.026-.043,3.48,3.48,0,0,1,1.914-.97,3.257,3.257,0,0,1,2.805.893,2.3,2.3,0,0,0,1.575.691,2.209,2.209,0,0,0,1.519-.546,1.209,1.209,0,0,1,.371-.239.531.531,0,0,1,.62.265.565.565,0,0,1-.118.691,3.284,3.284,0,0,1-2.073.939c-.093.008-.187,0-.28,0" transform="translate(63.407 1759.523)" fill="#7d7d7d" stroke="#7d7d7d" stroke-width="0.5"/>
    <path id="Trazado_132" data-name="Trazado 132" d="M34.631,61.164a1.336,1.336,0,0,1,.333.2q1.868,1.851,3.722,3.717a.562.562,0,1,1-.794.788q-1.863-1.856-3.72-3.719a.554.554,0,0,1-.14-.664.575.575,0,0,1,.6-.32" transform="translate(129.569 1996.123)" fill="#7d7d7d" stroke="#7d7d7d" stroke-width="0.5"/>
    <path id="Trazado_133" data-name="Trazado 133" d="M284.233,66.092a.611.611,0,0,1-.506-.885,1.228,1.228,0,0,1,.2-.233q1.789-1.792,3.582-3.58a.954.954,0,0,1,.337-.235.505.505,0,0,1,.6.184.529.529,0,0,1,.022.651,1.319,1.319,0,0,1-.184.209q-1.78,1.782-3.564,3.558a3.185,3.185,0,0,1-.485.332" transform="translate(-101.407 1996.159)" fill="#7d7d7d" stroke="#7d7d7d" stroke-width="0.5"/>
    <path id="Trazado_134" data-name="Trazado 134" d="M185.257,3.2q0,1.261,0,2.522c0,.437-.21.683-.57.677-.344,0-.55-.252-.551-.668q0-2.536,0-5.071c0-.417.207-.659.555-.662s.564.238.565.652c0,.85,0,1.7,0,2.55" transform="translate(-9.344 2052.706)" fill="#7d7d7d" stroke="#7d7d7d" stroke-width="0.5"/>
    <path id="Trazado_135" data-name="Trazado 135" d="M118.624,50.8a.673.673,0,0,1-.439.556.513.513,0,0,1-.648-.248c-.248-.551-.478-1.112-.695-1.676a.526.526,0,0,1,.259-.62c.22-.126.549-.12.659.1.316.617.58,1.26.864,1.893" transform="translate(52.936 2007.628)" fill="#7d7d7d" stroke="#7d7d7d" stroke-width="0.5"/>
    <path id="Trazado_136" data-name="Trazado 136" d="M243.579,51.466a.553.553,0,0,1-.55-.742c.2-.541.427-1.072.665-1.6a.525.525,0,0,1,.711-.256.536.536,0,0,1,.3.695c-.2.53-.422,1.054-.646,1.575a.5.5,0,0,1-.478.327" transform="translate(-63.792 2007.544)" fill="#7d7d7d" stroke="#7d7d7d" stroke-width="0.5"/>
    <path id="Trazado_137" data-name="Trazado 137" d="M326.218,130.4a.491.491,0,0,1,.32-.442c.513-.221,1.026-.442,1.547-.644a.546.546,0,0,1,.737.314.54.54,0,0,1-.311.715c-.511.224-1.027.44-1.55.636a.553.553,0,0,1-.743-.578" transform="translate(-140.785 1933.123)" fill="#7d7d7d" stroke="#7d7d7d" stroke-width="0.5"/>
    <path id="Trazado_138" data-name="Trazado 138" d="M24.343,145.066c0,.5-.335.786-.7.656-.56-.2-1.109-.435-1.651-.68a.518.518,0,0,1-.245-.692.53.53,0,0,1,.688-.311c.539.206,1.077.418,1.6.668.158.076.251.285.313.359" transform="translate(140.926 1919.489)" fill="#7d7d7d" stroke="#7d7d7d" stroke-width="0.5"/>
    <path id="Trazado_139" data-name="Trazado 139" d="M185.283,211.817a.559.559,0,0,1-1.117.023.559.559,0,1,1,1.117-.023" transform="translate(-9.373 1857.261)" fill="#7d7d7d" stroke="#7d7d7d" stroke-width="0.5"/>
  </g>
</svg>
