<svg viewBox="0 0 32 32" xmlns="http://www.w3.org/2000/svg" style="height: 23px; width: 23px; fill: #7d7d7d;">
    <path d="M24 1a2 2 0 0 1 1.995 1.85L26 3v2h2a2 2 0 0 1 1.995 1.85L30 7v21a3 3 0 0 1-3 3H5a3 3 0 0 1-2.995-2.824L2 28V3a2 2 0 0 1 1.85-1.995L4 1zm4 6h-2v21a1 1 0 0 0 1.993.117L28 28zM8 3H4v25a1 1 0 0 0 .883.993L5 29h19V3h-4a6 6 0 0 1-11.996.225zm6 22a1 1 0 1 1 0 2 1 1 0 0 1 0-2zm0-4.667a1 1 0 1 1 0 2 1 1 0 0 1 0-2zm0-4.666a1 1 0 1 1 0 2 1 1 0 0 1 0-2zM14 11a1 1 0 1 1 0 2 1 1 0 0 1 0-2zm4-8h-8a4 4 0 0 0 7.995.2z"></path>
</svg>