<svg xmlns="http://www.w3.org/2000/svg" width="19" height="24.938" viewBox="0 0 19 24.938">
  <path id="Icon_material-lock-outline" data-name="Icon material-lock-outline" d="M15.5,20.5a2.375,2.375,0,1,0-2.375-2.375A2.382,2.382,0,0,0,15.5,20.5ZM22.625,9.813H21.438V7.438a5.938,5.938,0,0,0-11.875,0V9.813H8.375A2.382,2.382,0,0,0,6,12.188V24.063a2.382,2.382,0,0,0,2.375,2.375h14.25A2.382,2.382,0,0,0,25,24.063V12.188A2.382,2.382,0,0,0,22.625,9.813ZM11.819,7.438a3.681,3.681,0,1,1,7.362,0V9.813H11.819ZM22.625,24.063H8.375V12.188h14.25Z" transform="translate(-6 -1.5)" fill="#ff5a5f"/>
</svg>
