<svg xmlns="http://www.w3.org/2000/svg" width="17.317" height="20.145" viewBox="0 0 17.317 20.145">
  <g id="Icon_material-message" data-name="Icon material-message" transform="translate(-0.997 -1)" fill="none">
    <path d="M14.983,3H4.331A1.33,1.33,0,0,0,3.007,4.331L3,16.314l2.663-2.663h9.32a1.335,1.335,0,0,0,1.331-1.331V4.331A1.335,1.335,0,0,0,14.983,3Zm-1.331,7.988H5.663V9.657h7.988Zm0-2H5.663V7.66h7.988Zm0-2H5.663V5.663h7.988Z" stroke="none"/>
    <path d="M 4.331392288208008 3.000001907348633 C 3.599122047424316 3.000001907348633 3.00665283203125 3.599122047424316 3.00665283203125 4.331392288208008 L 3.000001907348633 16.31390190124512 L 5.662781715393066 13.65112209320068 L 14.98251152038574 13.65112209320068 C 15.71478176116943 13.65112209320068 16.31390190124512 13.052001953125 16.31390190124512 12.31973171234131 L 16.31390190124512 4.331392288208008 C 16.31390190124512 3.599122047424316 15.71478176116943 3.000001907348633 14.98251152038574 3.000001907348633 L 4.331392288208008 3.000001907348633 M 13.65112209320068 6.994172096252441 L 5.662781715393066 6.994172096252441 L 5.662781715393066 5.662781715393066 L 13.65112209320068 5.662781715393066 L 13.65112209320068 6.994172096252441 M 13.65112209320068 8.991251945495605 L 5.662781715393066 8.991251945495605 L 5.662781715393066 7.65986156463623 L 13.65112209320068 7.65986156463623 L 13.65112209320068 8.991251945495605 M 13.65112209320068 10.98834228515625 L 5.662781715393066 10.98834228515625 L 5.662781715393066 9.656951904296875 L 13.65112209320068 9.656951904296875 L 13.65112209320068 10.98834228515625 M 4.331392288208008 1.000001907348633 L 14.98251152038574 1.000001907348633 C 16.81944274902344 1.000001907348633 18.31390190124512 2.494461059570312 18.31390190124512 4.331392288208008 L 18.31390190124512 12.31973171234131 C 18.31390190124512 14.15666198730469 16.81944274902344 15.65112209320068 14.98251152038574 15.65112209320068 L 6.491202354431152 15.65112209320068 L 0.9973220825195312 21.14501190185547 L 1.00665283203125 4.330282211303711 C 1.00665283203125 2.494461059570312 2.49812126159668 1.000001907348633 4.331392288208008 1.000001907348633 Z" stroke="none" fill="#ff5a5f"/>
  </g>
</svg>
