<svg xmlns="http://www.w3.org/2000/svg" xmlns:xlink="http://www.w3.org/1999/xlink" width="36" height="36" viewBox="0 0 36 36">
  <defs>
    <clipPath id="clip-path">
      <rect id="Rectángulo_4114" data-name="Rectángulo 4114" width="36" height="36" transform="translate(0 0)" fill="#00b5dd"/>
    </clipPath>
  </defs>
  <g id="Grupo_34979" data-name="Grupo 34979" transform="translate(-0.256 -0.255)">
    <g id="Grupo_34978" data-name="Grupo 34978" transform="translate(0.256 0.255)" clip-path="url(#clip-path)">
      <path id="Trazado_394" data-name="Trazado 394" d="M18.177,36.353A18.177,18.177,0,1,1,36.353,18.177,18.177,18.177,0,0,1,18.177,36.353m0-35.142A16.965,16.965,0,1,0,35.142,18.177,16.965,16.965,0,0,0,18.177,1.212" transform="translate(-0.177 -0.177)" fill="#00b5dd"/>
      <path id="Trazado_395" data-name="Trazado 395" d="M216.312,33.26a.606.606,0,0,1-.047-1.212c.417-.031.841-.048,1.259-.048a.606.606,0,0,1,0,1.212c-.387,0-.778.015-1.164.046Z" transform="translate(-199.524 -29.753)" fill="#00b5dd"/>
      <path id="Trazado_396" data-name="Trazado 396" d="M32.606,53.739A.606.606,0,0,1,32,53.133,15.725,15.725,0,0,1,43.972,37.838a.606.606,0,0,1,.291,1.177A14.516,14.516,0,0,0,33.212,53.133a.606.606,0,0,1-.606.606" transform="translate(-29.753 -35.133)" fill="#00b5dd"/>
      <path id="Trazado_397" data-name="Trazado 397" d="M203.029,206.059a3.029,3.029,0,1,1,3.029-3.029,3.029,3.029,0,0,1-3.029,3.029m0-4.847a1.818,1.818,0,1,0,1.818,1.818,1.818,1.818,0,0,0-1.818-1.818" transform="translate(-185.03 -185.029)" fill="#00b5dd"/>
      <path id="Trazado_398" data-name="Trazado 398" d="M299.029,206.059a3.029,3.029,0,1,1,3.029-3.029,3.029,3.029,0,0,1-3.029,3.029m0-4.847a1.818,1.818,0,1,0,1.818,1.818,1.818,1.818,0,0,0-1.818-1.818" transform="translate(-273.759 -185.029)" fill="#00b5dd"/>
      <path id="Trazado_399" data-name="Trazado 399" d="M107.029,206.059a3.029,3.029,0,1,1,3.029-3.029,3.029,3.029,0,0,1-3.029,3.029m0-4.847a1.818,1.818,0,1,0,1.818,1.818,1.818,1.818,0,0,0-1.818-1.818" transform="translate(-96.3 -185.029)" fill="#00b5dd"/>
    </g>
  </g>
</svg>
