<svg id="Grupo_33711" data-name="Grupo 33711" xmlns="http://www.w3.org/2000/svg" xmlns:xlink="http://www.w3.org/1999/xlink" width="21.463" height="21.038" viewBox="0 0 21.463 21.038">
  <defs>
    <clipPath id="clip-path">
      <rect id="Rectángulo_3628" data-name="Rectángulo 3628" width="21.463" height="21.038" fill="#e3edf3"/>
    </clipPath>
  </defs>
  <g id="Grupo_33710" data-name="Grupo 33710" clip-path="url(#clip-path)">
    <path id="Trazado_205" data-name="Trazado 205" d="M126.2,4.1a.84.84,0,0,1-.874.548c-.208,0-.415,0-.644,0v.284q0,7.4,0,14.794a1.18,1.18,0,0,1-.852,1.244,1.748,1.748,0,0,1-.434.057c-.356.008-.713-.009-1.068,0a1.251,1.251,0,0,1-1.347-1.334c.016-4.91.008-9.82.008-14.731V4.653c-.186,0-.352,0-.516,0a2.1,2.1,0,0,1-.415-.037.666.666,0,0,1-.418-1.108c.269-.374.562-.73.845-1.094q.76-.975,1.52-1.949a.978.978,0,0,1,1.661,0q1.161,1.472,2.3,2.958a3.459,3.459,0,0,1,.23.393Z" transform="translate(-104.733 0)" fill="#e3edf3"/>
    <path id="Trazado_206" data-name="Trazado 206" d="M87.551,62.994c0-1.9.018-3.8-.008-5.7A1.267,1.267,0,0,1,88.9,55.942c.369.024.74,0,1.11.005a1.214,1.214,0,0,1,1.234,1.215c0,.042,0,.084,0,.126q0,5.72,0,11.441a1.292,1.292,0,0,1-.448,1.06,1.238,1.238,0,0,1-.814.283q-.555,0-1.11,0a1.221,1.221,0,0,1-1.322-1.316q0-2.881,0-5.762" transform="translate(-76.746 -49.04)" fill="#e3edf3"/>
    <path id="Trazado_207" data-name="Trazado 207" d="M44.176,87.62q0-2.063,0-4.127a1.213,1.213,0,0,1,1.306-1.306c.391,0,.782,0,1.173,0A1.2,1.2,0,0,1,47.865,83.4q.006,4.232,0,8.463a1.2,1.2,0,0,1-1.19,1.213c-.432.015-.866.014-1.3,0a1.207,1.207,0,0,1-1.2-1.247c0-1.4,0-2.807,0-4.211" transform="translate(-38.727 -72.05)" fill="#e3edf3"/>
    <path id="Trazado_208" data-name="Trazado 208" d="M3.691,109.368c0,.88,0,1.76,0,2.64a1.31,1.31,0,0,1-1.363,1.378c-.328,0-.657.006-.985,0A1.309,1.309,0,0,1,0,112.028q0-2.661,0-5.322a1.307,1.307,0,0,1,1.343-1.355q.5,0,1.006,0a1.3,1.3,0,0,1,1.34,1.336c0,.894,0,1.788,0,2.682" transform="translate(0 -92.355)" fill="#e3edf3"/>
  </g>
</svg>
