<svg id="Grupo_34916" data-name="Grupo 34916" xmlns="http://www.w3.org/2000/svg" xmlns:xlink="http://www.w3.org/1999/xlink" width="54.567" height="50.62" viewBox="0 0 54.567 50.62">
  <defs>
    <clipPath id="clip-path">
      <rect id="Rectángulo_4084" data-name="Rectángulo 4084" width="54.568" height="50.62" fill="#00b5dd"/>
    </clipPath>
  </defs>
  <g id="Grupo_34915" data-name="Grupo 34915" clip-path="url(#clip-path)">
    <path id="Trazado_269" data-name="Trazado 269" d="M442.329,292.716l2.519-13.153a1.066,1.066,0,1,0-2.094-.4L440.7,289.874a3.075,3.075,0,0,0-1.467-.37h-9.316a3.1,3.1,0,0,0-.9,6.059l-2.21,8.225a1.066,1.066,0,0,0,2.059.553l2.323-8.645h6.673l2.323,8.645a1.066,1.066,0,0,0,2.058-.553l-2.2-8.2a3.1,3.1,0,0,0,2.283-2.872m-12.41-1.081h9.316a.965.965,0,0,1,0,1.93h-9.316a.965.965,0,0,1,0-1.93" transform="translate(-390.299 -254.511)" fill="#00b5dd" fill-rule="evenodd"/>
    <path id="Trazado_270" data-name="Trazado 270" d="M15.844,295.562a3.1,3.1,0,0,0-.9-6.059H5.631a3.077,3.077,0,0,0-1.468.37L2.113,279.162a1.066,1.066,0,1,0-2.094.4l2.518,13.153a3.1,3.1,0,0,0,2.284,2.872l-2.2,8.2a1.066,1.066,0,1,0,2.058.553L7,295.695h6.674L16,304.34a1.066,1.066,0,0,0,2.058-.553ZM5.631,291.634h9.316a.965.965,0,0,1,0,1.93H5.631a.965.965,0,1,1,0-1.93" transform="translate(0 -254.509)" fill="#00b5dd" fill-rule="evenodd"/>
    <path id="Trazado_271" data-name="Trazado 271" d="M70.322,48.656C67,46.533,64.94,42.388,64.94,37.839a12.832,12.832,0,0,1,5.13-10.65h4.95a1.066,1.066,0,1,0,0-2.131H64.94V14.739a5.039,5.039,0,0,0,2.734.818,5.142,5.142,0,0,0,3.8-1.723,5.051,5.051,0,0,0,7.6,0,5.142,5.142,0,0,0,3.8,1.723,5.273,5.273,0,0,0,4.776-3.235,1.065,1.065,0,0,0-.519-1.39L78.052,6.62a1.066,1.066,0,0,0-.915,1.925l8,3.8a3.021,3.021,0,0,1-2.27,1.078,3.145,3.145,0,0,1-2.823-1.959,1.066,1.066,0,0,0-1.952,0,3.014,3.014,0,0,1-5.647,0,1.066,1.066,0,0,0-1.953,0,3.014,3.014,0,0,1-5.646,0l0-.006a1.069,1.069,0,0,0-.062-.119l-.014-.023a1.036,1.036,0,0,0-.081-.111l-.016-.017a1.089,1.089,0,0,0-.082-.083l-.024-.021a1.022,1.022,0,0,0-.107-.082L64.446,11a1,1,0,0,0-.107-.06l-.024-.012a1.119,1.119,0,0,0-.131-.05l-.009,0a1.069,1.069,0,0,0-.126-.028l-.033-.005a1.036,1.036,0,0,0-.141-.01h0a1.044,1.044,0,0,0-.141.01l-.033.005a1.03,1.03,0,0,0-.126.028l-.009,0a1.086,1.086,0,0,0-.13.05l-.025.012A1.074,1.074,0,0,0,63.3,11l-.016.01a1.05,1.05,0,0,0-.106.081l-.025.023a.97.97,0,0,0-.08.081l-.017.019a1.06,1.06,0,0,0-.08.109l-.016.025a1.053,1.053,0,0,0-.06.115l0,.008a3.014,3.014,0,0,1-5.647,0,1.066,1.066,0,0,0-1.952,0,3.014,3.014,0,0,1-5.647,0,1.066,1.066,0,0,0-1.952,0,3.144,3.144,0,0,1-2.823,1.959,3.019,3.019,0,0,1-2.269-1.078l21.267-10.1,5.561,2.642a1.066,1.066,0,0,0,.915-1.925L64.332.1a1.064,1.064,0,0,0-.915,0l-22.8,10.829a1.066,1.066,0,0,0-.519,1.39,5.274,5.274,0,0,0,4.776,3.235,5.143,5.143,0,0,0,3.8-1.723,5.051,5.051,0,0,0,7.6,0,5.142,5.142,0,0,0,3.8,1.723,5.036,5.036,0,0,0,2.734-.818V25.057H52.729a1.066,1.066,0,1,0,0,2.131h4.949a12.832,12.832,0,0,1,5.131,10.65c0,4.549-2.063,8.694-5.383,10.818a1.066,1.066,0,1,0,1.149,1.8,13.7,13.7,0,0,0,5.3-6.735,13.7,13.7,0,0,0,5.3,6.735,1.066,1.066,0,1,0,1.149-1.8m-9.4-21.467h5.895a14.471,14.471,0,0,0-2.948,4.771,14.476,14.476,0,0,0-2.947-4.771" transform="translate(-36.59 0)" fill="#00b5dd" fill-rule="evenodd"/>
    <path id="Trazado_272" data-name="Trazado 272" d="M423.287,56.983a1.066,1.066,0,1,0-1.066-1.066,1.068,1.068,0,0,0,1.066,1.066" transform="translate(-386.133 -50.163)" fill="#00b5dd" fill-rule="evenodd"/>
  </g>
</svg>
