<svg xmlns="http://www.w3.org/2000/svg" xmlns:xlink="http://www.w3.org/1999/xlink" width="49.994" height="42.188" viewBox="0 0 49.994 42.188">
  <defs>
    <clipPath id="clip-path">
      <rect id="Rectángulo_4100" data-name="Rectángulo 4100" width="49.993" height="42.187" fill="#00b5dd"/>
    </clipPath>
  </defs>
  <g id="Grupo_34948" data-name="Grupo 34948" transform="translate(-13472 12546)">
    <path id="Trazado_351" data-name="Trazado 351" d="M135.121,84.068a.762.762,0,0,0-.748.77v.641a2.488,2.488,0,0,0-2.282,2.395,2.722,2.722,0,0,0,1.005,2.17,5.7,5.7,0,0,0,1.8.837,4.993,4.993,0,0,1,1.345.59,1,1,0,0,1,.415.973c0,1.269-3.04,1.269-3.04,0a.762.762,0,1,0-1.523,0,2.492,2.492,0,0,0,2.282,2.4v.638a.762.762,0,1,0,1.523,0v-.638a2.493,2.493,0,0,0,2.283-2.4,2.723,2.723,0,0,0-1.007-2.17,5.7,5.7,0,0,0-1.8-.839,5,5,0,0,1-1.345-.589,1,1,0,0,1-.415-.973c0-1.269,3.04-1.269,3.04,0a.762.762,0,0,0,1.525,0,2.492,2.492,0,0,0-2.283-2.393v-.643a.762.762,0,0,0-.775-.77" transform="translate(13339.909 -12626.771)" fill="#00b5dd"/>
    <g id="Grupo_34947" data-name="Grupo 34947" transform="translate(13472 -12546)">
      <g id="Grupo_34938" data-name="Grupo 34938" clip-path="url(#clip-path)">
        <path id="Trazado_352" data-name="Trazado 352" d="M396.886,42.078a.535.535,0,0,1,.595-.486h2.44a2.472,2.472,0,0,1,2.756,2.732V44.4a2.535,2.535,0,0,1-2.853,2.756h-1.36v2.817c0,.328-.4.5-.789.5s-.789-.17-.789-.5V42.078Zm1.578.9v2.938h1.36c.789,0,1.275-.449,1.275-1.4v-.146c0-.947-.486-1.4-1.275-1.4h-1.36Z" transform="translate(-358.133 -37.531)" fill="#00b5dd"/>
        <path id="Trazado_353" data-name="Trazado 353" d="M115.414,41.165a10.778,10.778,0,0,1,15.242,0,.712.712,0,0,0,1.007-1.007,12.2,12.2,0,0,0-17.257,0,.712.712,0,0,0,1.007,1.007" transform="translate(-103.048 -33.012)" fill="#00b5dd"/>
        <path id="Trazado_354" data-name="Trazado 354" d="M155.375,82.746a.712.712,0,0,0,.5-1.216,8.056,8.056,0,0,0-11.38,0,.712.712,0,0,0,1.007,1.007,6.63,6.63,0,0,1,9.366,0,.71.71,0,0,0,.5.209" transform="translate(-130.201 -71.446)" fill="#00b5dd"/>
        <path id="Trazado_355" data-name="Trazado 355" d="M174.112,122.2a.712.712,0,1,0,1.007,1.007,2.536,2.536,0,0,1,3.583,0,.712.712,0,1,0,1.007-1.007,3.962,3.962,0,0,0-5.6,0" transform="translate(-156.923 -109.221)" fill="#00b5dd"/>
        <path id="Trazado_356" data-name="Trazado 356" d="M90.98,226.793c-.308-.17-.612-.355-.9-.552l-4.711-3.182a8.584,8.584,0,0,0-4.823-1.476H71.9a8.561,8.561,0,0,0-6.081,2.512,11.541,11.541,0,0,1-2.83,2.07,1.853,1.853,0,0,0,.854,3.5h2.948a.712.712,0,1,0,0-1.424H63.84a.428.428,0,0,1-.2-.809,12.964,12.964,0,0,0,3.179-2.326,7.145,7.145,0,0,1,5.075-2.1h1.936v5.231H71.467a.712.712,0,1,0,0,1.424H90.995a1.063,1.063,0,0,0,1.062-1.062,2.066,2.066,0,0,0-1.076-1.807m-15.723,1.445v-5.231h5.286a7.165,7.165,0,0,1,4.025,1.232l4.711,3.182c.327.221.668.43,1.015.62a.663.663,0,0,1,.221.2Z" transform="translate(-55.934 -199.946)" fill="#00b5dd"/>
        <path id="Trazado_357" data-name="Trazado 357" d="M189.054,315.418h-2.2a.712.712,0,1,0,0,1.424h2.2a.712.712,0,1,0,0-1.424" transform="translate(-167.967 -284.62)" fill="#00b5dd"/>
        <path id="Trazado_358" data-name="Trazado 358" d="M49.378,30.2l-.225-.373a5.862,5.862,0,0,0-3.869-2.718l-1.839-.366v-9.32H48.2a1.779,1.779,0,0,0,1.777-1.777V1.777A1.779,1.779,0,0,0,48.2,0H34.334a1.779,1.779,0,0,0-1.777,1.777V7.038a.712.712,0,1,0,1.424,0V1.777a.353.353,0,0,1,.352-.352H48.2a.353.353,0,0,1,.352.352v13.87A.353.353,0,0,1,48.2,16H34.334a.353.353,0,0,1-.352-.352V11.668a.712.712,0,1,0-1.424,0v3.979a1.779,1.779,0,0,0,1.777,1.777h5.4V26l-.945-.188a10.042,10.042,0,0,1-3.42-1.616l-4.711-3.182a10.761,10.761,0,0,0-6.045-1.851H15.963a10.731,10.731,0,0,0-7.622,3.149A9.353,9.353,0,0,1,3.646,24.85l-1.023.214A3.314,3.314,0,0,0,0,28.294v6.9a2.086,2.086,0,0,0,1.238,1.9l2.837,1.261a4.722,4.722,0,0,0,9.183.388H36.91a4.722,4.722,0,0,0,9.091,0h1.351A2.644,2.644,0,0,0,49.993,36.1V32.41a4.284,4.284,0,0,0-.614-2.209M41.154,17.424h.867V26.46l-.867-.173ZM11.046,39.8a3.3,3.3,0,0,1-5.336-3.7l.013-.029c.017-.036.035-.072.053-.107l.026-.05c.017-.031.034-.062.051-.092l.037-.062c.016-.027.033-.054.05-.08l.048-.071.049-.07c.019-.026.039-.052.059-.078l.047-.06c.023-.029.048-.057.072-.086l.042-.049q.054-.06.112-.119l.01-.01.022-.021c.033-.032.065-.064.1-.094l.027-.023c.033-.03.067-.059.1-.087l.01-.008a3.307,3.307,0,0,1,4.154,0l0,0c.037.03.073.061.109.093l.019.017q.062.056.122.116c.043.043.084.087.125.132l.051.06.062.074c.023.028.044.057.066.085l.036.048q.039.054.076.109l.012.019a3.306,3.306,0,0,1-.428,4.141m32.743,0a3.3,3.3,0,0,1-5.1-4.141l.012-.018q.037-.055.076-.109l.036-.048c.022-.029.043-.057.066-.086l.062-.073L39,35.261c.04-.045.082-.089.125-.132a3.3,3.3,0,0,1,4.667,0c.043.043.084.087.125.132l.052.06.062.074c.023.028.044.057.066.085l.036.048c.026.036.052.072.076.109l.012.019a3.306,3.306,0,0,1-.428,4.141M48.568,36.1a1.218,1.218,0,0,1-1.217,1.217H46.179a4.665,4.665,0,0,0-1.049-2.826l-.013-.017c-.041-.05-.083-.1-.125-.146l-.032-.037c-.045-.05-.092-.1-.14-.147l-.024-.025a4.7,4.7,0,0,0-2.187-1.243,4.8,4.8,0,0,0-2.083-.05,4.692,4.692,0,0,0-2.412,1.293l-.023.025c-.048.049-.095.1-.14.148l-.031.036c-.043.049-.086.1-.127.148l-.012.015a4.666,4.666,0,0,0-1.05,2.828h-23.3a4.666,4.666,0,0,0-1.052-2.831l-.009-.011c-.043-.053-.088-.1-.133-.155l-.025-.028q-.08-.088-.164-.173a4.73,4.73,0,0,0-6.682,0c-.053.053-.1.107-.153.161l-.043.049q-.053.06-.1.12l-.045.055q-.052.065-.1.132l-.031.041q-.134.183-.249.377l-.006.011q-.056.1-.108.193l0,.006a4.7,4.7,0,0,0-.492,1.514l-2.22-.987a.66.66,0,0,1-.392-.6v-6.9a1.884,1.884,0,0,1,1.491-1.836l1.023-.214a10.774,10.774,0,0,0,5.408-2.919,9.315,9.315,0,0,1,6.617-2.733h8.646A9.342,9.342,0,0,1,29.857,22.2l4.711,3.182a11.357,11.357,0,0,0,3.939,1.833l6.5,1.293a4.435,4.435,0,0,1,2.927,2.056l.225.373a2.856,2.856,0,0,1,.41,1.474V36.1Z" transform="translate(0 0)" fill="#00b5dd"/>
        <path id="Trazado_359" data-name="Trazado 359" d="M69.242,361.53a2.162,2.162,0,1,0,1.529.633,2.148,2.148,0,0,0-1.529-.633m.522,2.684a.738.738,0,1,1,0-1.043.733.733,0,0,1,0,1.043" transform="translate(-60.53 -326.23)" fill="#00b5dd"/>
        <path id="Trazado_360" data-name="Trazado 360" d="M404.591,361.53a2.162,2.162,0,1,0,1.529.633,2.148,2.148,0,0,0-1.529-.633m.522,2.684a.738.738,0,1,1,.216-.522.733.733,0,0,1-.216.522" transform="translate(-363.136 -326.23)" fill="#00b5dd"/>
      </g>
    </g>
  </g>
</svg>
