<svg xmlns="http://www.w3.org/2000/svg" width="27.026" height="27.13" viewBox="0 0 27.026 27.13">
  <g id="Grupo_33185" data-name="Grupo 33185" transform="translate(-161.723 -2127.432)">
    <path id="Trazado_144" data-name="Trazado 144" d="M26.5,17.235a2.506,2.506,0,0,1-3.612.29,2.369,2.369,0,0,0-.807-.481,1.427,1.427,0,0,0-1.44.419,2.488,2.488,0,0,1-3.1.288A3.971,3.971,0,0,1,17.1,17.4a1.476,1.476,0,0,0-2.04,0,2.513,2.513,0,0,1-3.6.018,1.478,1.478,0,0,0-2.1.017,2.51,2.51,0,0,1-3.524.017,1.486,1.486,0,0,0-2.172.019A2.511,2.511,0,0,1,.236,17.5a.526.526,0,0,1-.095-.793.535.535,0,0,1,.782.022,1.475,1.475,0,0,0,2.04-.019,2.507,2.507,0,0,1,3.581-.016,1.509,1.509,0,0,0,2.246-.145.34.34,0,0,0,.07-.207q0-5.433,0-10.867a.782.782,0,0,0-.017-.092H.74c-.078,0-.155,0-.233,0A.519.519,0,0,1,0,4.862a.509.509,0,0,1,.511-.511c.491-.01.983,0,1.475,0h.257a9.356,9.356,0,0,1,.217-.911A4.8,4.8,0,0,1,6.478.044,1.156,1.156,0,0,0,6.624,0h.983a.864.864,0,0,0,.144.045,4.856,4.856,0,0,1,4.109,3.8c.035.165.066.33.1.485h1.623c.011-.048.02-.08.026-.113A4.751,4.751,0,0,1,16.529.4,10.277,10.277,0,0,1,17.908,0h1.035a.827.827,0,0,0,.142.046A4.857,4.857,0,0,1,23.146,3.71c.051.206.087.416.133.637.847,0,1.682.011,2.517-.006a.7.7,0,0,1,.7.368v.311a.7.7,0,0,1-.7.368c-.741-.018-1.482-.006-2.223-.006h-.261a.485.485,0,0,0-.017.063q0,5.454,0,10.908a.308.308,0,0,0,.059.185,1.526,1.526,0,0,0,2.189.223c.406-.338.689-.29.958.164Zm-6.321-4.8H11.99v1.009c.073,0,.124.009.176.009.518,0,1.035,0,1.553,0a.52.52,0,0,1,.547.5.526.526,0,0,1-.551.528c-.112,0-.224,0-.336,0h-1.41c0,.652,0,1.271,0,1.891a.268.268,0,0,0,.065.158,1.541,1.541,0,0,0,2.293.133,3.027,3.027,0,0,1,.915-.562,2.422,2.422,0,0,1,2.585.554,1.522,1.522,0,0,0,2.288-.12.229.229,0,0,0,.063-.132c0-.635,0-1.27,0-1.922-.591,0-1.15,0-1.71,0a.512.512,0,0,1-.576-.522c0-.315.221-.509.586-.512.345,0,.69,0,1.035,0h.659ZM3.321,4.348c.281,0,.548-.008.814,0,.162.007.231-.036.278-.21A2.791,2.791,0,0,1,9.9,5q0,5.331,0,10.661v.316h1.035v-.279q0-1.035,0-2.07c0-2.967.02-5.935-.012-8.9A3.794,3.794,0,0,0,7.343,1.04,3.839,3.839,0,0,0,3.321,4.348m11.313-.014h1.039c.021-.071.04-.128.055-.186a2.794,2.794,0,0,1,5.491.811q0,5.367,0,10.735v.28h1.025c0-.073.01-.149.01-.225,0-3.621.015-7.243-.006-10.864A3.634,3.634,0,0,0,20.033,1.4a3.643,3.643,0,0,0-4.085.553,3.684,3.684,0,0,0-1.314,2.377M20.173,5.4H11.986V6.819h8.187Zm-8.185,5.976h8.18V9.945h-8.18Zm-.006-2.487h8.182v-1H11.982ZM8.762,4.34A1.718,1.718,0,0,0,7.029,3.107,1.684,1.684,0,0,0,5.461,4.34Zm11.312,0a1.7,1.7,0,0,0-1.719-1.23,1.683,1.683,0,0,0-1.574,1.23Z" transform="translate(162 2127.682)" fill="#7d7d7d" stroke="#7d7d7d" stroke-width="0.5"/>
    <path id="Trazado_145" data-name="Trazado 145" d="M26.5,269.892a2.445,2.445,0,0,1-3.149.633,3.245,3.245,0,0,1-.539-.4,1.488,1.488,0,0,0-2.138,0,2.508,2.508,0,0,1-3.526.005,1.483,1.483,0,0,0-2.154.015,2.5,2.5,0,0,1-2.9.416,3.134,3.134,0,0,1-.605-.436,1.488,1.488,0,0,0-2.118-.011,2.51,2.51,0,0,1-3.545.012,1.488,1.488,0,0,0-2.175.042,2.517,2.517,0,0,1-3.411.026.526.526,0,0,1-.1-.792.519.519,0,0,1,.779.01,1.474,1.474,0,0,0,2.078-.044,2.511,2.511,0,0,1,3.526-.006,1.48,1.48,0,0,0,2.136.005,2.506,2.506,0,0,1,3.543.015,1.483,1.483,0,0,0,2.1,0,2.509,2.509,0,0,1,3.544-.015,1.478,1.478,0,0,0,2.135-.005,2.512,2.512,0,0,1,3.526.008,1.472,1.472,0,0,0,2.078.042c.351-.292.62-.24.916.175Z" transform="translate(162 1879.166)" fill="#7d7d7d" stroke="#7d7d7d" stroke-width="0.5"/>
    <path id="Trazado_146" data-name="Trazado 146" d="M26.5,325.566a2.474,2.474,0,0,1-3.639.256,1.469,1.469,0,0,0-1.384-.457,1.877,1.877,0,0,0-.767.39,2.527,2.527,0,0,1-3.568.017,1.481,1.481,0,0,0-2.136.011,2.5,2.5,0,0,1-3.485.024,1.49,1.49,0,0,0-2.213.01,2.5,2.5,0,0,1-3.428.007,1.491,1.491,0,0,0-2.25.011,2.508,2.508,0,0,1-3.408-.013.521.521,0,0,1-.086-.775.533.533,0,0,1,.781.011,1.474,1.474,0,0,0,2.058-.027,2.5,2.5,0,0,1,3.562-.007,1.479,1.479,0,0,0,2.116-.012,2.507,2.507,0,0,1,3.506-.023,1.489,1.489,0,0,0,2.192-.012,2.508,2.508,0,0,1,3.468.012A1.487,1.487,0,0,0,20,325a2.5,2.5,0,0,1,3.485,0,1.482,1.482,0,0,0,2.116.055c.343-.288.647-.218.9.207Z" transform="translate(161.994 1827.684)" fill="#7d7d7d" stroke="#7d7d7d" stroke-width="0.5"/>
    <path id="Trazado_147" data-name="Trazado 147" d="M207.873,180.221a.508.508,0,0,1,.492-.527.516.516,0,1,1,.022,1.031.508.508,0,0,1-.514-.5" transform="translate(-30.304 1961.446)" fill="#7d7d7d" stroke="#7d7d7d" stroke-width="0.5"/>
  </g>
</svg>
