<svg id="Grupo_34904" data-name="Grupo 34904" xmlns="http://www.w3.org/2000/svg" xmlns:xlink="http://www.w3.org/1999/xlink" width="38.112" height="43.353" viewBox="0 0 38.112 43.353">
  <defs>
    <clipPath id="clip-path">
      <rect id="Rectángulo_4078" data-name="Rectángulo 4078" width="38.113" height="43.353" fill="#00b5dd"/>
    </clipPath>
  </defs>
  <g id="Grupo_34903" data-name="Grupo 34903" clip-path="url(#clip-path)">
    <path id="Trazado_242" data-name="Trazado 242" d="M36.829,22.926l-1.605.941a2.142,2.142,0,0,1-2.188-.012l-1.5-.9a4.684,4.684,0,0,0-4.786-.026l-1.6.94a2.142,2.142,0,0,1-2.188-.012l-1.5-.9a4.717,4.717,0,0,0-.465-.245V5.261a2.722,2.722,0,0,1,5.444,0V8.133h2.54V5.261a5.262,5.262,0,1,0-10.524,0v10.1H7.775V5.261a2.722,2.722,0,0,1,5.444,0V8.133h2.54V5.261a5.262,5.262,0,1,0-10.524,0V23.723l-.245.144A2.142,2.142,0,0,1,2.8,23.855l-1.491-.9L0,25.136l1.491.9a4.68,4.68,0,0,0,4.782.026l1.6-.94a2.145,2.145,0,0,1,2.192.012l1.5.9a4.68,4.68,0,0,0,4.782.026l1.6-.94a2.145,2.145,0,0,1,2.192.012l1.5.9a4.681,4.681,0,0,0,4.782.026l1.6-.94a2.145,2.145,0,0,1,2.192.012l1.5.9a4.681,4.681,0,0,0,4.782.026l1.605-.941ZM18.452,22.32a4.684,4.684,0,0,0-1.781.607l-1.6.94a2.142,2.142,0,0,1-2.188-.012l-1.5-.9a4.683,4.683,0,0,0-3.6-.517V17.9H18.452Z" transform="translate(-0.002 0.001)" fill="#00b5dd"/>
    <path id="Trazado_243" data-name="Trazado 243" d="M36.827,363.94l-1.605.941a2.142,2.142,0,0,1-2.188-.012l-1.5-.9a4.684,4.684,0,0,0-4.786-.026l-1.6.94a2.142,2.142,0,0,1-2.188-.012l-1.5-.9a4.683,4.683,0,0,0-4.785-.026l-1.6.94a2.141,2.141,0,0,1-2.188-.012l-1.5-.9a4.683,4.683,0,0,0-4.786-.026l-1.6.94a2.142,2.142,0,0,1-2.188-.012l-1.491-.9L0,366.149l1.491.9a4.68,4.68,0,0,0,4.782.026l1.6-.94a2.144,2.144,0,0,1,2.192.012l1.5.9a4.68,4.68,0,0,0,4.782.026l1.6-.94a2.144,2.144,0,0,1,2.192.012l1.5.9a4.681,4.681,0,0,0,4.782.026l1.6-.94a2.144,2.144,0,0,1,2.192.012l1.5.9a4.68,4.68,0,0,0,4.782.026l1.605-.941Z" transform="translate(0 -332.534)" fill="#00b5dd"/>
    <path id="Trazado_244" data-name="Trazado 244" d="M36.829,460.444l-1.605.942a2.141,2.141,0,0,1-2.188-.012l-1.5-.9a4.684,4.684,0,0,0-4.786-.026l-1.6.94a2.142,2.142,0,0,1-2.188-.012l-1.5-.9a4.683,4.683,0,0,0-4.785-.026l-1.6.94a2.142,2.142,0,0,1-2.188-.012l-1.5-.9a4.684,4.684,0,0,0-4.786-.026l-1.6.94a2.142,2.142,0,0,1-2.188-.012l-1.49-.9L0,462.654l1.491.9a4.68,4.68,0,0,0,4.782.026l1.6-.94a2.145,2.145,0,0,1,2.192.012l1.5.9a4.68,4.68,0,0,0,4.782.026l1.6-.94a2.144,2.144,0,0,1,2.192.012l1.5.9a4.68,4.68,0,0,0,4.782.026l1.6-.94a2.145,2.145,0,0,1,2.192.012l1.5.9a4.68,4.68,0,0,0,4.782.026l1.605-.941Z" transform="translate(-0.002 -420.868)" fill="#00b5dd"/>
  </g>
</svg>
