<svg id="_002-document" data-name="002-document" xmlns="http://www.w3.org/2000/svg" width="40.47" height="37.363" viewBox="0 0 40.47 37.363">
  <g id="Grupo_35482" data-name="Grupo 35482" transform="translate(5.584 0)">
    <g id="Grupo_35481" data-name="Grupo 35481">
      <path id="Trazado_2001" data-name="Trazado 2001" d="M75.426,19.652a4.6,4.6,0,0,0-4.618,4.567L70.64,47.9l2.519.018.168-23.686a2.081,2.081,0,0,1,2.1-2.057H100.74V19.652Z" transform="translate(-70.64 -19.652)" fill="#ff5a5f"/>
    </g>
  </g>
  <g id="Grupo_35484" data-name="Grupo 35484" transform="translate(0 0)">
    <g id="Grupo_35483" data-name="Grupo 35483">
      <path id="Trazado_2002" data-name="Trazado 2002" d="M35.684,19.652A4.791,4.791,0,0,0,30.9,24.438V51.012a3.484,3.484,0,0,1-6.969,0V47.947a1.259,1.259,0,0,0-1.259-1.259H1.259A1.259,1.259,0,0,0,0,47.947v3.065a6.01,6.01,0,0,0,6,6V54.5a3.488,3.488,0,0,1-3.484-3.484V49.207H21.41v1.805a6,6,0,0,0,12.007,0V31.323H39.21a1.259,1.259,0,0,0,1.259-1.259V24.438A4.791,4.791,0,0,0,35.684,19.652ZM37.951,28.8H33.417V24.438a2.267,2.267,0,0,1,4.534,0V28.8Z" transform="translate(0 -19.652)" fill="#ff5a5f"/>
    </g>
  </g>
  <g id="Grupo_35486" data-name="Grupo 35486" transform="translate(5.751 34.844)">
    <g id="Grupo_35485" data-name="Grupo 35485">
      <rect id="Rectángulo_16828" data-name="Rectángulo 16828" width="21.368" height="2.519" fill="#ff5a5f"/>
    </g>
  </g>
  <g id="Grupo_35488" data-name="Grupo 35488" transform="translate(10.957 7.011)">
    <g id="Grupo_35487" data-name="Grupo 35487">
      <path id="Trazado_2003" data-name="Trazado 2003" d="M146.389,108.349h-6.507a1.259,1.259,0,1,0,0,2.519h6.507a1.259,1.259,0,0,0,0-2.519Z" transform="translate(-138.622 -108.349)" fill="#ff5a5f"/>
    </g>
  </g>
  <g id="Grupo_35490" data-name="Grupo 35490" transform="translate(10.957 12.048)">
    <g id="Grupo_35489" data-name="Grupo 35489">
      <path id="Trazado_2004" data-name="Trazado 2004" d="M153.945,172.083H139.881a1.259,1.259,0,1,0,0,2.519h14.064a1.259,1.259,0,0,0,0-2.519Z" transform="translate(-138.622 -172.083)" fill="#ff5a5f"/>
    </g>
  </g>
  <g id="Grupo_35492" data-name="Grupo 35492" transform="translate(10.957 17.086)">
    <g id="Grupo_35491" data-name="Grupo 35491">
      <path id="Trazado_2005" data-name="Trazado 2005" d="M153.945,235.817H139.881a1.259,1.259,0,1,0,0,2.519h14.064a1.259,1.259,0,0,0,0-2.519Z" transform="translate(-138.622 -235.817)" fill="#ff5a5f"/>
    </g>
  </g>
  <g id="Grupo_35494" data-name="Grupo 35494" transform="translate(10.957 22.124)">
    <g id="Grupo_35493" data-name="Grupo 35493">
      <path id="Trazado_2006" data-name="Trazado 2006" d="M153.945,299.552H139.881a1.259,1.259,0,1,0,0,2.519h14.064a1.259,1.259,0,0,0,0-2.519Z" transform="translate(-138.622 -299.552)" fill="#ff5a5f"/>
    </g>
  </g>
</svg>