<svg xmlns="http://www.w3.org/2000/svg" width="53.614" height="53.614" viewBox="0 0 53.614 53.614">
  <g transform="translate(0 0)">
    <g transform="translate(0 0)">
      <g>
        <path d="M51.455,16.51A27.862,27.862,0,0,0,37.1,2.16a25.629,25.629,0,0,0-20.6,0A27.862,27.862,0,0,0,2.16,16.51a25.629,25.629,0,0,0,0,20.595,27.862,27.862,0,0,0,14.35,14.35,25.629,25.629,0,0,0,20.6,0A27.862,27.862,0,0,0,51.455,37.1a25.629,25.629,0,0,0,0-20.595ZM26.807,51.52A25.044,25.044,0,0,1,2.094,26.807,25.044,25.044,0,0,1,26.807,2.094,25.044,25.044,0,0,1,51.52,26.807,25.044,25.044,0,0,1,26.807,51.52Z" fill="#00b5dd"/>
      </g>
    </g>
    <g transform="translate(4.503 4.503)">
      <g>
        <path d="M85.826,56.7A22.909,22.909,0,0,0,73.912,44.783,21.654,21.654,0,0,0,65.3,43a22.133,22.133,0,0,0-12.141,3.977,1.047,1.047,0,1,0,1.159,1.744A20.057,20.057,0,0,1,65.3,45.094,20.21,20.21,0,1,1,45.094,65.3,20.065,20.065,0,0,1,48.72,54.322a1.047,1.047,0,1,0-1.744-1.159A22.141,22.141,0,0,0,43,65.3a21.654,21.654,0,0,0,1.783,8.607A22.91,22.91,0,0,0,56.7,85.826a21.669,21.669,0,0,0,17.214,0A22.909,22.909,0,0,0,85.826,73.912a21.669,21.669,0,0,0,0-17.214Z" transform="translate(-43 -43)" fill="#00b5dd"/>
      </g>
    </g>
    <g transform="translate(10.995 10.995)">
      <g>
        <path d="M106.047,105a1.047,1.047,0,1,0,1.047,1.047A1.048,1.048,0,0,0,106.047,105Z" transform="translate(-105 -105)" fill="#00b5dd"/>
      </g>
    </g>
    <g transform="translate(13.194 17.383)">
      <g>
        <path d="M152,167.227a4.187,4.187,0,0,0-5.923,0l-9.6,9.6-3.321-3.321a4.188,4.188,0,1,0-5.923,5.923l6.283,6.283a4.187,4.187,0,0,0,5.923,0L152,173.15a4.187,4.187,0,0,0,0-5.923Zm-1.481,4.442-12.566,12.566a2.093,2.093,0,0,1-2.961,0l-6.283-6.283a2.094,2.094,0,1,1,2.961-2.961l4.8,4.8,11.085-11.085a2.094,2.094,0,1,1,2.961,2.961Z" transform="translate(-126 -166)" fill="#00b5dd"/>
      </g>
    </g>
  </g>
</svg>