<svg xmlns="http://www.w3.org/2000/svg" width="65.36" height="53.614" viewBox="0 0 65.36 53.614">
  <g transform="translate(0 0)">
    <g transform="translate(47.452 15.355)">
      <g>
        <path d="M373.9,166.666a1.277,1.277,0,1,0-1.812,1.8l.008.008a1.263,1.263,0,0,0,.9.375,1.279,1.279,0,0,0,.9-2.182Z" transform="translate(-371.717 -166.288)" fill="#00b5dd"/>
      </g>
    </g>
    <g transform="translate(11.746 0)">
      <g>
        <path d="M145.251,77.088,133.395,65.231a1.277,1.277,0,0,0-1.805,1.805L141,76.449H118.557a3.38,3.38,0,0,1-3.377-3.377V50.627l9.087,9.087a1.277,1.277,0,0,0,1.805-1.805L114.541,46.378a1.277,1.277,0,0,0-1.805,0L92.385,66.729a1.277,1.277,0,0,0,0,1.805l30.71,30.71a1.277,1.277,0,0,0,1.805,0l20.351-20.351a1.277,1.277,0,0,0,0-1.805ZM112.627,50.1V66.355H96.37ZM122.721,95.26,96.37,68.908h16.258v4.164a5.936,5.936,0,0,0,5.93,5.93h4.164Zm2.553,0V79h16.258Z" transform="translate(-92.011 -46.004)" fill="#00b5dd"/>
      </g>
    </g>
    <g transform="translate(0 26.552)">
      <g>
        <path d="M8.761,254H1.277a1.277,1.277,0,0,0,0,2.553H8.761a1.277,1.277,0,0,0,0-2.553Z" transform="translate(0 -253.999)" fill="#00b5dd"/>
      </g>
    </g>
    <g transform="translate(11.271 26.552)">
      <g>
        <path d="M89.592,254h-.019a1.277,1.277,0,0,0,0,2.553h.019a1.277,1.277,0,0,0,0-2.553Z" transform="translate(-88.296 -253.999)" fill="#00b5dd"/>
      </g>
    </g>
    <g transform="translate(0.002 13.148)">
      <g>
        <path data-name="Trazado 2006" d="M5.375,149H1.29a1.277,1.277,0,1,0,0,2.553H5.375a1.277,1.277,0,1,0,0-2.553Z" transform="translate(-0.013 -149.002)" fill="#00b5dd"/>
      </g>
    </g>
    <g transform="translate(8.257 13.148)">
      <g>
        <path data-name="Trazado 2007" d="M70.788,149H65.959a1.277,1.277,0,1,0,0,2.553h4.829a1.277,1.277,0,1,0,0-2.553Z" transform="translate(-64.682 -149.002)" fill="#00b5dd"/>
      </g>
    </g>
    <g transform="translate(8.717 33.573)">
      <g>
        <path data-name="Trazado 2008" d="M76.708,309H69.56a1.277,1.277,0,1,0,0,2.553h7.149a1.277,1.277,0,1,0,0-2.553Z" transform="translate(-68.283 -308.998)" fill="#00b5dd"/>
      </g>
    </g>
    <g transform="translate(3.448 41.742)">
      <g>
        <path data-name="Trazado 2009" d="M46.285,373h-18a1.277,1.277,0,0,0,0,2.553h18a1.277,1.277,0,0,0,0-2.553Z" transform="translate(-27.009 -372.996)" fill="#00b5dd"/>
      </g>
    </g>
  </g>
</svg>