<svg id="Grupo_34910" data-name="Grupo 34910" xmlns="http://www.w3.org/2000/svg" xmlns:xlink="http://www.w3.org/1999/xlink" width="49.993" height="50.002" viewBox="0 0 49.993 50.002">
  <defs>
    <clipPath id="clip-path">
      <rect id="Rectángulo_4081" data-name="Rectángulo 4081" width="49.993" height="50.001" fill="#00b5dd"/>
    </clipPath>
  </defs>
  <g id="Grupo_34909" data-name="Grupo 34909" clip-path="url(#clip-path)">
    <path id="Trazado_251" data-name="Trazado 251" d="M2.5,50.084H35.828a2.5,2.5,0,0,0,2.5-2.5V2.591a2.5,2.5,0,0,0-2.5-2.5H2.5A2.5,2.5,0,0,0,0,2.591V47.584a2.5,2.5,0,0,0,2.5,2.5M1.666,2.591A.833.833,0,0,1,2.5,1.757H35.828a.833.833,0,0,1,.833.833V47.584a.833.833,0,0,1-.833.833H2.5a.833.833,0,0,1-.833-.833Z" transform="translate(0 -0.082)" fill="#00b5dd"/>
    <path id="Trazado_252" data-name="Trazado 252" d="M35.8,77.551H64.129A1.666,1.666,0,0,0,65.8,75.885V35.89a1.666,1.666,0,0,0-1.666-1.666H35.8a1.666,1.666,0,0,0-1.666,1.666V75.885A1.666,1.666,0,0,0,35.8,77.551M40.732,35.89H59.2a5.832,5.832,0,0,0,4.933,4.933v10.14a4.993,4.993,0,0,0,0,9.849v10.14A5.832,5.832,0,0,0,59.2,75.885H40.732A5.832,5.832,0,0,0,35.8,70.952V60.812a4.993,4.993,0,0,0,0-9.849V40.823A5.832,5.832,0,0,0,40.732,35.89ZM64.129,59.1a3.317,3.317,0,0,1,0-6.429ZM35.8,59.1V52.673a3.317,3.317,0,0,1,0,6.429m0,13.533a4.179,4.179,0,0,1,3.25,3.25H35.8Zm25.08,3.25a4.18,4.18,0,0,1,3.25-3.25v3.25Zm3.25-36.745a4.179,4.179,0,0,1-3.25-3.25h3.25Zm-25.08-3.25a4.18,4.18,0,0,1-3.25,3.25V35.89Z" transform="translate(-30.8 -30.882)" fill="#00b5dd"/>
    <path id="Trazado_253" data-name="Trazado 253" d="M104.761,90.423a2.484,2.484,0,0,0,1.666-.65,2.461,2.461,0,0,0,3.333,0,2.461,2.461,0,0,0,3.333,0,2.461,2.461,0,0,0,3.333,0,2.5,2.5,0,1,0,0-3.7,2.461,2.461,0,0,0-3.333,0,2.461,2.461,0,0,0-3.333,0,2.461,2.461,0,0,0-3.333,0,2.5,2.5,0,1,0-1.666,4.349Zm13.331-3.333a.833.833,0,1,1-.833.833.833.833,0,0,1,.833-.833m-3.333,0a.833.833,0,1,1-.833.833.833.833,0,0,1,.833-.833m-3.333,0a.833.833,0,1,1-.833.833.833.833,0,0,1,.833-.833m-3.333,0a.833.833,0,1,1-.833.833.833.833,0,0,1,.833-.833m-3.333,0a.833.833,0,1,1-.833.833.833.833,0,0,1,.833-.833" transform="translate(-92.263 -77.083)" fill="#00b5dd"/>
    <path id="Trazado_254" data-name="Trazado 254" d="M173.167,221.958a2.5,2.5,0,1,0,2.5,2.5,2.5,2.5,0,0,0-2.5-2.5m0,3.333a.833.833,0,1,1,.833-.833.833.833,0,0,1-.833.833" transform="translate(-154.003 -200.286)" fill="#00b5dd"/>
    <path id="Trazado_255" data-name="Trazado 255" d="M173.167,384.091a2.5,2.5,0,1,0,2.5,2.5,2.5,2.5,0,0,0-2.5-2.5m0,3.333a.833.833,0,1,1,.833-.833.833.833,0,0,1-.833.833" transform="translate(-154.003 -346.588)" fill="#00b5dd"/>
    <path id="Trazado_256" data-name="Trazado 256" d="M145.561,153.691a2.484,2.484,0,0,0-1.666.65,2.461,2.461,0,0,0-3.333,0,2.5,2.5,0,1,0,0,3.7,2.461,2.461,0,0,0,3.333,0,2.5,2.5,0,1,0,1.666-4.349Zm-6.666,3.333a.833.833,0,1,1,.833-.833.833.833,0,0,1-.833.833m3.333,0a.833.833,0,1,1,.833-.833.833.833,0,0,1-.833.833m3.333,0a.833.833,0,1,1,.833-.833.833.833,0,0,1-.833.833" transform="translate(-123.065 -138.684)" fill="#00b5dd"/>
    <path id="Trazado_257" data-name="Trazado 257" d="M449.653,4.175c0-.008,0-.013,0-.021l-.029-1.661a2.559,2.559,0,0,0-5.116,0l-.025,1.661c0,.008,0,.013,0,.021v.018l-.746,42.462A3.249,3.249,0,0,0,444.67,49a3.364,3.364,0,0,0,4.784,0,3.25,3.25,0,0,0,.941-2.347L449.65,4.192c0-.006,0-.011,0-.018m-3.527.833H448l.452,25.829h-2.776Zm.936-3.333a.882.882,0,0,1,.892.847l.015.819h-1.813l.015-.819A.882.882,0,0,1,447.062,1.675Zm1.2,46.16a1.736,1.736,0,0,1-2.406,0,1.59,1.59,0,0,1-.463-1.151l.25-14.18h2.833l.25,14.18A1.59,1.59,0,0,1,448.265,47.835Z" transform="translate(-400.402)" fill="#00b5dd"/>
  </g>
</svg>
