<svg xmlns="http://www.w3.org/2000/svg" width="53.615" height="53.596" viewBox="0 0 53.615 53.596">
  <g transform="translate(0 0)">
    <g>
      <path d="M128.87,29.829A14.87,14.87,0,1,0,114,14.96,14.887,14.887,0,0,0,128.87,29.829Zm0-27.645A12.775,12.775,0,1,1,116.094,14.96,12.79,12.79,0,0,1,128.87,2.184Z" transform="translate(-102.062 -0.09)" fill="#00b5dd"/>
      <path d="M336.57,134.3h.889a1.047,1.047,0,1,0,0-2.094h-.889a1.047,1.047,0,0,0,0,2.094Z" transform="translate(-300.388 -118.368)" fill="#00b5dd"/>
      <path d="M150.968,133.025a1.047,1.047,0,0,0-1.047-1.047h-.889a1.047,1.047,0,0,0,0,2.094h.889A1.047,1.047,0,0,0,150.968,133.025Z" transform="translate(-132.488 -118.167)" fill="#00b5dd"/>
      <path d="M247.159,37.057a1.047,1.047,0,0,0,1.047-1.047V35.12a1.047,1.047,0,1,0-2.094,0v.889A1.047,1.047,0,0,0,247.159,37.057Z" transform="translate(-220.34 -30.514)" fill="#00b5dd"/>
      <path d="M246.935,221.613a1.047,1.047,0,0,0-1.047,1.047v.889a1.047,1.047,0,0,0,2.094,0v-.889A1.047,1.047,0,0,0,246.935,221.613Z" transform="translate(-220.14 -198.416)" fill="#00b5dd"/>
      <path d="M207.689,71.977l.012.012a1.047,1.047,0,0,0,1.479,0l7.239-7.239a1.047,1.047,0,0,0-1.481-1.481l-6.5,6.5-3.775-3.775a1.047,1.047,0,1,0-1.481,1.481Z" transform="translate(-181.632 -56.377)" fill="#00b5dd"/>
      <path d="M72.206,274.912a3.8,3.8,0,0,0-5.069.274l-7.377,7.377a3.6,3.6,0,0,0-2.7-3.038l-9.9-2.481a8.736,8.736,0,0,0-6.124.707l-6.071,3.124-.572-.991a1.66,1.66,0,0,0-2.268-.608l-6,3.467a1.662,1.662,0,0,0-.608,2.268l7.583,13.135a1.65,1.65,0,0,0,1.008.774,1.67,1.67,0,0,0,.433.057,1.651,1.651,0,0,0,.827-.223l6-3.467a1.662,1.662,0,0,0,.608-2.268l-5.963-10.328,5.981-3.078a6.642,6.642,0,0,1,4.656-.537l9.9,2.481a1.507,1.507,0,0,1-.366,2.969H48.4a1.047,1.047,0,0,0,0,2.094h8.685a3.78,3.78,0,0,0,2.691-1.115l8.839-8.839a1.7,1.7,0,0,1,2.276-.123,1.706,1.706,0,0,1,.137,2.536l-9.314,9.315a6.68,6.68,0,0,1-4.755,1.97H48.416a1.047,1.047,0,1,0,0,2.094h8.545a8.762,8.762,0,0,0,6.236-2.583l9.314-9.314a3.8,3.8,0,0,0-.306-5.65ZM38.27,294.656l-2.6-4.509a1.047,1.047,0,1,0-1.814,1.047l2.6,4.509-1.765,1.019-7.15-12.383,5.253-3.033,7.149,12.383Z" transform="translate(-22.641 -245.38)" fill="#00b5dd"/>
      <path d="M453.047,3.631a1.047,1.047,0,0,0,1.047-1.047V1.137a1.047,1.047,0,1,0-2.094,0V2.583A1.047,1.047,0,0,0,453.047,3.631Z" transform="translate(-404.668 -0.09)" fill="#00b5dd"/>
      <path d="M453.047,69.82a1.047,1.047,0,0,0,1.047-1.047V67.326a1.047,1.047,0,1,0-2.094,0v1.446A1.047,1.047,0,0,0,453.047,69.82Z" transform="translate(-404.668 -59.348)" fill="#00b5dd"/>
      <path d="M480.682,40.09h-1.446a1.047,1.047,0,1,0,0,2.094h1.446a1.047,1.047,0,0,0,0-2.094Z" transform="translate(-428.114 -35.901)" fill="#00b5dd"/>
      <path d="M413.047,42.184h1.446a1.047,1.047,0,0,0,0-2.094h-1.446a1.047,1.047,0,1,0,0,2.094Z" transform="translate(-368.857 -35.901)" fill="#00b5dd"/>
      <path d="M41.047,209.631a1.047,1.047,0,0,0,1.047-1.047v-1.446a1.047,1.047,0,0,0-2.094,0v1.446A1.047,1.047,0,0,0,41.047,209.631Z" transform="translate(-35.811 -184.518)" fill="#00b5dd"/>
      <path d="M41.047,275.819a1.047,1.047,0,0,0,1.047-1.047v-1.446a1.047,1.047,0,1,0-2.094,0v1.446A1.047,1.047,0,0,0,41.047,275.819Z" transform="translate(-35.811 -243.775)" fill="#00b5dd"/>
      <path d="M67.235,248.184h1.446a1.047,1.047,0,1,0,0-2.094H67.235a1.047,1.047,0,0,0,0,2.094Z" transform="translate(-59.257 -220.33)" fill="#00b5dd"/>
      <path d="M3.541,247.137a1.047,1.047,0,0,0-1.047-1.047H1.047a1.047,1.047,0,0,0,0,2.094H2.493A1.047,1.047,0,0,0,3.541,247.137Z" transform="translate(0 -220.33)" fill="#00b5dd"/>
      <path d="M197.2,429.667a1.047,1.047,0,1,0,.74.307A1.053,1.053,0,0,0,197.2,429.667Z" transform="translate(-175.609 -384.683)" fill="#00b5dd"/>
      <path d="M86.036,388.264a1.046,1.046,0,1,0,.74-.307A1.055,1.055,0,0,0,86.036,388.264Z" transform="translate(-76.752 -347.341)" fill="#00b5dd"/>
    </g>
  </g>
</svg>