<svg xmlns="http://www.w3.org/2000/svg" width="53.639" height="53.615" viewBox="0 0 53.639 53.615">
  <g transform="translate(0)">
    <path d="M53.865,7.624H4.85A2.774,2.774,0,0,1,7.624,4.85H51.09a.925.925,0,1,0,0-1.85H7.624A4.624,4.624,0,0,0,3,7.624V43.692a2.774,2.774,0,0,0,2.774,2.774H7.448a14.8,14.8,0,0,0,28.1,0h18.32a2.774,2.774,0,0,0,2.774-2.774V10.4A2.774,2.774,0,0,0,53.865,7.624ZM21.5,54.789A12.947,12.947,0,1,1,34.444,41.842,12.947,12.947,0,0,1,21.5,54.789Zm33.293-11.1a.925.925,0,0,1-.925.925H36.025a15.176,15.176,0,0,0,.268-2.774,14.8,14.8,0,1,0-29.594,0,15.176,15.176,0,0,0,.268,2.774H5.774a.925.925,0,0,1-.925-.925V9.474H53.865a.925.925,0,0,1,.925.925ZM52.015,22.421H41.842a4.624,4.624,0,0,0,0,9.248H52.015a.925.925,0,0,0,.925-.925v-7.4A.925.925,0,0,0,52.015,22.421Zm-.925,7.4H41.842a2.774,2.774,0,0,1,0-5.549H51.09ZM42.767,25.2a1.85,1.85,0,1,1-1.85,1.85A1.85,1.85,0,0,1,42.767,25.2ZM10.4,13.173a1.85,1.85,0,1,1-1.85-1.85A1.85,1.85,0,0,1,10.4,13.173ZM52.94,40.917a1.85,1.85,0,1,1-1.85-1.85A1.85,1.85,0,0,1,52.94,40.917Zm0-27.744a1.85,1.85,0,1,1-1.85-1.85A1.85,1.85,0,0,1,52.94,13.173ZM30.652,35.692a2.769,2.769,0,0,0-3.921,0l-8.5,8.5L16.271,42.23a2.774,2.774,0,0,0-3.921,3.921l2.608,2.608.657.657a3.7,3.7,0,0,0,5.234,0l9.8-9.8a2.774,2.774,0,0,0,0-3.921Zm-1.3,2.608-9.812,9.812a1.905,1.905,0,0,1-2.617,0l-.647-.657-2.617-2.608a.929.929,0,0,1,1.313-1.313l2.617,2.617a.925.925,0,0,0,1.3,0l9.128-9.128a.925.925,0,0,1,.657-.268.869.869,0,0,1,.657.268.925.925,0,0,1,.018,1.276Z" transform="translate(-3 -3)" fill="#00b5dd"/>
  </g>
</svg>