<svg viewBox="0 0 32 32" xmlns="http://www.w3.org/2000/svg" style="height: 23px; width: 23px; fill: #7d7d7d;">
    <path d="M20.929 2a3.929 3.929 0 0 1 3.929 3.929c0 .866-.286 1.705-.828 2.41l-.03.034V10a5 5 0 0 1 4.995 4.783L29 15v12a2 2 0 0 1-1.85 1.995L27 29h-1v1h-2v-1H8v1H6v-1H5a2 2 0 0 1-1.995-1.85L3 27V17H1v-2h2a5 5 0 0 1 4.783-4.995L8 10V8.38a3.932 3.932 0 0 1-.003-4.899l.143-.168.153-.162a3.929 3.929 0 0 1 2.556-1.145L11.07 2h9.858zM24 12H8a3 3 0 0 0-2.995 2.824L5 15v12h22V15a3 3 0 0 0-2.824-2.995L24 12zM8 23a1 1 0 1 1 0 2 1 1 0 0 1 0-2zM20.929 4H11.07a1.929 1.929 0 0 0-1.364 3.293 1 1 0 0 1 .284.576L10 8v1.999h12V8a1 1 0 0 1 .122-.479l.066-.105.08-.097.12-.128a1.929 1.929 0 0 0-1.308-3.185L20.929 4z"></path>
</svg>