<svg xmlns="http://www.w3.org/2000/svg" width="21.686" height="21.686" viewBox="0 0 21.686 21.686">
  <path id="Icon_material-g-translate" data-name="Icon material-g-translate" d="M22.517,6.253H12.628L11.674,3H5.169A2.175,2.175,0,0,0,3,5.169v14.1a2.175,2.175,0,0,0,2.169,2.169h7.59l1.084,3.253h8.674a2.175,2.175,0,0,0,2.169-2.169V8.421A2.175,2.175,0,0,0,22.517,6.253ZM8.606,16.651a4.435,4.435,0,0,1,0-8.869,4.282,4.282,0,0,1,2.971,1.16l.076.065-1.334,1.279-.065-.054a2.355,2.355,0,0,0-1.648-.64,2.624,2.624,0,0,0,0,5.248,2.222,2.222,0,0,0,2.3-1.583h-2.4V11.577h4.283l.011.076a3.4,3.4,0,0,1,.054.661,4.111,4.111,0,0,1-4.25,4.337ZM15.144,14.8a10.823,10.823,0,0,0,1.29,1.843l-.586.575Zm.835-.824H14.905l-.336-1.128H18.9A8.328,8.328,0,0,1,17.2,15.816a9.955,9.955,0,0,1-1.225-1.843ZM23.6,22.517A1.087,1.087,0,0,1,22.517,23.6h-7.59L17.1,21.433l-.878-3,1-1,2.906,2.917.792-.792-2.938-2.906a9.467,9.467,0,0,0,2.082-3.806h1.377V11.718H17.486V10.59H16.358v1.128H14.233l-1.279-4.38h9.563A1.087,1.087,0,0,1,23.6,8.421Z" transform="translate(-3 -3)" fill="#fff"/>
</svg>
