<svg xmlns="http://www.w3.org/2000/svg" width="17.595" height="15.002" viewBox="0 0 17.595 15.002">
  <path id="Unión_9" data-name="Unión 9" d="M7.88,13.968A5.408,5.408,0,0,1,4.218,7.937,5.239,5.239,0,0,1,7.7,3.76q-.077-.491-.155-.981c-.008-.051-.011-.1-.016-.154l.042-.12a.382.382,0,0,1,.322-.146c.119,0,.238-.007.356-.019l.05,0a.35.35,0,0,1,.319.2c.175.3.361.6.538.9a.133.133,0,0,0,.07.064.837.837,0,0,1,.1.007q2.875-.158,5.75-.309a2.036,2.036,0,0,1,1.184.33.805.805,0,0,1,.161.137.343.343,0,0,1,.023.5,1.792,1.792,0,0,1-.408.333,2.045,2.045,0,0,1-.986.29c-.451.016-.9.048-1.353.07a.14.14,0,0,0-.121.068q-1,1.428-1.993,2.854a.377.377,0,0,1-.32.183c-.185,0-.37.02-.555.028a.3.3,0,0,1-.334-.376q.137-1.264.279-2.528c0-.017,0-.035,0-.059h-.1L9.315,5.1a.8.8,0,0,1-.1.008l-.108,0-.09,0A3.656,3.656,0,0,0,5.71,8.244,3.779,3.779,0,0,0,8.1,12.357a5.461,5.461,0,0,0,3.44-3.128l1.9-2.758a7.481,7.481,0,0,1-.15,2.261,6.992,6.992,0,0,1-4.922,5.212A.641.641,0,0,1,8.1,14,.776.776,0,0,1,7.88,13.968Zm-3.8-.393A7.17,7.17,0,0,1,.041,6.333,7.121,7.121,0,0,1,4.237.5,6.254,6.254,0,0,1,6.7,0,6.622,6.622,0,0,1,9.95.862l-.055,0a.59.59,0,0,0-.552.813c.068.261.138.522.208.783l-.006,0a5.038,5.038,0,0,0-5.42-.121,5.606,5.606,0,0,0,.724,9.852.831.831,0,0,1,.274,1.1.7.7,0,0,1-.639.379A1.007,1.007,0,0,1,4.078,13.574Zm6.31-10.836c-.076-.3-.158-.592-.235-.888a.307.307,0,0,1,.287-.422c.2-.013.4-.03.594-.029h.013a.369.369,0,0,1,.224.074c.46.388.913.785,1.368,1.179a.272.272,0,0,1,.025.035l-1.328.071c-.283.015-.566.03-.849.048h-.018C10.427,2.806,10.4,2.793,10.389,2.738Z" transform="translate(0.522 0.5)" fill="#ff5a5f" stroke="rgba(0,0,0,0)" stroke-miterlimit="10" stroke-width="1"/>
</svg>
