<svg xmlns="http://www.w3.org/2000/svg" xmlns:xlink="http://www.w3.org/1999/xlink" width="38.067" height="46.841" viewBox="0 0 38.067 46.841">
  <defs>
    <clipPath id="clip-path">
      <rect id="Rectángulo_4091" data-name="Rectángulo 4091" width="38.067" height="46.841" fill="#00b5dd"/>
    </clipPath>
  </defs>
  <g id="Grupo_34922" data-name="Grupo 34922" clip-path="url(#clip-path)">
    <path id="Trazado_279" data-name="Trazado 279" d="M37.227,0H.841A.841.841,0,0,0,0,.841V46a.841.841,0,0,0,.841.841H37.226A.841.841,0,0,0,38.067,46V.841A.841.841,0,0,0,37.227,0m-.841,9.1H15.011V1.682H36.386Zm-23.056,0H1.682V1.682H13.329ZM1.682,10.781h34.7V45.159H1.682Z" transform="translate(0)" fill="#00b5dd"/>
    <path id="Trazado_280" data-name="Trazado 280" d="M72.442,154.812A13.656,13.656,0,1,0,86.1,168.468a13.671,13.671,0,0,0-13.656-13.656m0,25.629a11.974,11.974,0,1,1,11.974-11.974,11.987,11.987,0,0,1-11.974,11.974" transform="translate(-53.408 -140.649)" fill="#00b5dd"/>
    <path id="Trazado_281" data-name="Trazado 281" d="M124.719,207.964a9.039,9.039,0,1,0,0,12.7.841.841,0,0,0,0-1.182,7.353,7.353,0,0,1,0-10.337.841.841,0,0,0,0-1.182m-3.8,6.35a8.974,8.974,0,0,0,2.025,5.7,7.357,7.357,0,1,1,0-11.4,8.974,8.974,0,0,0-2.025,5.7" transform="translate(-99.255 -186.496)" fill="#00b5dd"/>
    <path id="Trazado_282" data-name="Trazado 282" d="M322.239,35.518a2.62,2.62,0,1,0-2.62-2.62,2.623,2.623,0,0,0,2.62,2.62m0-3.558a.938.938,0,1,1-.938.938.939.939,0,0,1,.938-.938" transform="translate(-290.378 -27.508)" fill="#00b5dd"/>
    <path id="Trazado_283" data-name="Trazado 283" d="M181.083,35.519h6.227a.841.841,0,0,0,.841-.841V31.12a.841.841,0,0,0-.841-.841h-6.227a.841.841,0,0,0-.841.841v3.558a.841.841,0,0,0,.841.841m.841-3.558h4.545v1.876h-4.545Z" transform="translate(-163.752 -27.509)" fill="#00b5dd"/>
    <path id="Trazado_284" data-name="Trazado 284" d="M42.356,53.512h5.516a.841.841,0,1,0,0-1.682H42.356a.841.841,0,1,0,0,1.682" transform="translate(-37.717 -47.088)" fill="#00b5dd"/>
  </g>
</svg>
