<svg xmlns="http://www.w3.org/2000/svg" width="20.808" height="19.968" viewBox="0 0 20.808 19.968">
  <g id="Icon_material-work" data-name="Icon material-work" transform="translate(-1 -1)" fill="none">
    <path d="M18.127,6.362H14.766V4.681A1.675,1.675,0,0,0,13.085,3H9.723A1.675,1.675,0,0,0,8.042,4.681V6.362H4.681A1.668,1.668,0,0,0,3.008,8.042L3,17.287a1.675,1.675,0,0,0,1.681,1.681H18.127a1.675,1.675,0,0,0,1.681-1.681V8.042A1.675,1.675,0,0,0,18.127,6.362Zm-5.042,0H9.723V4.681h3.362Z" stroke="none"/>
    <path d="M 9.723194122314453 2.999994277954102 C 8.79035472869873 2.999994277954102 8.042394638061523 3.747955322265625 8.042394638061523 4.680795669555664 L 8.042394638061523 6.361595153808594 L 4.680793762207031 6.361595153808594 C 3.747955322265625 6.361595153808594 3.008403778076172 7.109555244445801 3.008403778076172 8.04239559173584 L 3.000003814697266 17.28679466247559 C 3.000003814697266 18.21963500976562 3.747955322265625 18.96758460998535 4.680793762207031 18.96758460998535 L 18.12719345092773 18.96758460998535 C 19.06003379821777 18.96758460998535 19.80798530578613 18.21963500976562 19.80798530578613 17.28679466247559 L 19.80798530578613 8.04239559173584 C 19.80798530578613 7.109555244445801 19.06003379821777 6.361595153808594 18.12719345092773 6.361595153808594 L 14.76559448242188 6.361595153808594 L 14.76559448242188 4.680795669555664 C 14.76559448242188 3.747955322265625 14.01763439178467 2.999994277954102 13.08479499816895 2.999994277954102 L 9.723194122314453 2.999994277954102 M 13.08479499816895 6.361595153808594 L 9.723194122314453 6.361595153808594 L 9.723194122314453 4.680795669555664 L 13.08479499816895 4.680795669555664 L 13.08479499816895 6.361595153808594 M 9.723194122314453 0.9999942779541016 L 13.08479499816895 0.9999942779541016 C 15.00686931610107 0.9999942779541016 16.58957481384277 2.480873107910156 16.75188064575195 4.361595153808594 L 18.12719345092773 4.361595153808594 C 20.15678405761719 4.361595153808594 21.80798530578613 6.012795448303223 21.80798530578613 8.04239559173584 L 21.80798530578613 17.28679466247559 C 21.80798530578613 19.31638526916504 20.15678405761719 20.96758460998535 18.12719345092773 20.96758460998535 L 4.680793762207031 20.96758460998535 C 2.651205062866211 20.96758460998535 1.000003814697266 19.31638526916504 1.000003814697266 17.28679466247559 L 1.008403778076172 8.04057502746582 C 1.008403778076172 7.059115409851074 1.387434005737305 6.13592529296875 2.075664520263672 5.44288444519043 C 2.768123626708984 4.74560546875 3.693304061889648 4.361595153808594 4.680793762207031 4.361595153808594 L 6.056110382080078 4.361595153808594 C 6.218414306640625 2.480873107910156 7.801119804382324 0.9999942779541016 9.723194122314453 0.9999942779541016 Z" stroke="none" fill="#ff5a5f"/>
  </g>
</svg>
