<svg xmlns="http://www.w3.org/2000/svg" width="21.604" height="18.002" viewBox="0 0 21.604 18.002">
  <path id="Unión_4" data-name="Unión 4" d="M9.785,16.96A6.557,6.557,0,0,1,5.238,9.637,6.4,6.4,0,0,1,9.557,4.565q-.1-.6-.192-1.192c-.01-.062-.013-.124-.02-.187L9.4,3.041a.479.479,0,0,1,.4-.177c.147,0,.295-.008.441-.023.022,0,.042,0,.062,0a.436.436,0,0,1,.4.243c.218.366.449.723.668,1.088a.164.164,0,0,0,.087.078,1.062,1.062,0,0,1,.13.008q3.57-.191,7.14-.376a2.572,2.572,0,0,1,1.47.4.994.994,0,0,1,.2.167.41.41,0,0,1,.028.611,2.216,2.216,0,0,1-.507.4,2.581,2.581,0,0,1-1.225.352c-.56.019-1.12.058-1.68.085a.174.174,0,0,0-.15.082q-1.236,1.733-2.475,3.465a.47.47,0,0,1-.4.222c-.23.005-.46.024-.689.034a.371.371,0,0,1-.415-.456q.17-1.535.346-3.07c0-.021,0-.042,0-.071h-.122l-1.542.081a1.011,1.011,0,0,1-.124.009l-.135,0-.111.006a4.5,4.5,0,0,0-4.106,3.8A4.577,4.577,0,0,0,10.058,15a6.729,6.729,0,0,0,4.272-3.8L16.7,7.857a8.887,8.887,0,0,1-.186,2.745A8.574,8.574,0,0,1,10.4,16.932a.811.811,0,0,1-.334.07A.983.983,0,0,1,9.785,16.96Zm-4.72-.478A8.684,8.684,0,0,1,5.261.611,7.918,7.918,0,0,1,8.324,0a8.368,8.368,0,0,1,4.032,1.047l-.069,0a.719.719,0,0,0-.685.987c.084.317.172.634.259.95l-.007-.005a6.376,6.376,0,0,0-6.73-.147,6.739,6.739,0,0,0,.9,11.963,1,1,0,0,1,.34,1.334.878.878,0,0,1-.793.46A1.275,1.275,0,0,1,5.065,16.483ZM12.9,3.325c-.094-.36-.2-.718-.292-1.078a.373.373,0,0,1,.356-.513c.246-.016.491-.036.737-.036h.016a.465.465,0,0,1,.278.09c.571.471,1.134.953,1.7,1.431a.331.331,0,0,1,.031.043l-1.65.087c-.352.019-.7.036-1.054.058H13C12.948,3.408,12.918,3.392,12.9,3.325Z" transform="translate(0.527 0.5)" fill="#fff" stroke="rgba(0,0,0,0)" stroke-miterlimit="10" stroke-width="1"/>
</svg>
