<svg xmlns="http://www.w3.org/2000/svg" xmlns:xlink="http://www.w3.org/1999/xlink" width="261.968" height="54.224" viewBox="0 0 261.968 54.224">
  <defs>
    <clipPath id="clip-path">
      <rect id="Rectángulo_103" data-name="Rectángulo 103" width="261.455" height="53.225" fill="#fff"/>
    </clipPath>
  </defs>
  <g id="Logo" transform="translate(0.513 0.5)">
    <g id="Grupo_87" data-name="Grupo 87">
      <g id="Grupo_86" data-name="Grupo 86" clip-path="url(#clip-path)">
        <path id="Trazado_73" data-name="Trazado 73" d="M267.867,42.014l-11.5,28.611h-5.442l-11.5-28.611h4.965a1.873,1.873,0,0,1,1.164.351,1.608,1.608,0,0,1,.6.827L252.5,59.854q.393,1.178.7,2.328t.533,2.328q.224-1.178.547-2.314t.715-2.342l6.452-16.662a1.712,1.712,0,0,1,.617-.842,1.768,1.768,0,0,1,1.094-.337Z" transform="translate(-164.802 -28.919)" fill="#fff"/>
        <path id="Trazado_74" data-name="Trazado 74" d="M361.916,42.014l-11.5,28.611h-5.442l-11.5-28.611h4.965a1.874,1.874,0,0,1,1.164.351,1.608,1.608,0,0,1,.6.827l6.339,16.662q.393,1.178.7,2.328t.533,2.328q.224-1.178.547-2.314t.715-2.342l6.452-16.662a1.712,1.712,0,0,1,.617-.842,1.768,1.768,0,0,1,1.094-.337Z" transform="translate(-229.539 -28.919)" fill="#fff"/>
        <path id="Trazado_75" data-name="Trazado 75" d="M433.162,40.573a15.189,15.189,0,0,1,5.736,1.038,12.3,12.3,0,0,1,4.376,2.946,13.085,13.085,0,0,1,2.791,4.628,19.534,19.534,0,0,1,0,12.23,13.219,13.219,0,0,1-2.791,4.643,12.206,12.206,0,0,1-4.376,2.959,16.449,16.449,0,0,1-11.5,0,12.34,12.34,0,0,1-4.39-2.959,13.1,13.1,0,0,1-2.805-4.643,19.535,19.535,0,0,1,0-12.23,12.97,12.97,0,0,1,2.805-4.628,12.44,12.44,0,0,1,4.39-2.946,15.269,15.269,0,0,1,5.764-1.038m0,24.769a6.666,6.666,0,0,0,5.764-2.595q1.893-2.595,1.893-7.42t-1.893-7.447a6.638,6.638,0,0,0-5.764-2.623,6.735,6.735,0,0,0-5.835,2.623q-1.908,2.623-1.907,7.447t1.907,7.42a6.765,6.765,0,0,0,5.835,2.595" transform="translate(-288.561 -27.928)" fill="#fff"/>
        <path id="Trazado_76" data-name="Trazado 76" d="M540.545,42.014V70.625H536.9a1.464,1.464,0,0,1-1.543-1.15l-.449-2.664a17.378,17.378,0,0,1-1.893,1.739A12.273,12.273,0,0,1,530.9,69.9a11.24,11.24,0,0,1-2.4.87,11.633,11.633,0,0,1-2.735.309,10.285,10.285,0,0,1-4.151-.785,8.238,8.238,0,0,1-3.016-2.216,9.54,9.54,0,0,1-1.837-3.436,14.959,14.959,0,0,1-.617-4.418v-18.2h6.031v18.2a6.817,6.817,0,0,0,1.332,4.488,4.976,4.976,0,0,0,4.053,1.6,7.836,7.836,0,0,0,3.717-.911,12.57,12.57,0,0,0,3.24-2.511V42.014Z" transform="translate(-355.274 -28.919)" fill="#fff"/>
        <path id="Trazado_77" data-name="Trazado 77" d="M612.43,51.189a7.236,7.236,0,0,1-5.484-2.006,7.839,7.839,0,0,1-1.921-5.652V26.869h-3.142a1.268,1.268,0,0,1-.87-.323,1.224,1.224,0,0,1-.365-.968v-2.44l4.628-.673L606.6,14.19a1.594,1.594,0,0,1,.477-.772,1.316,1.316,0,0,1,.9-.294h3.086v9.4h7.938v4.348h-7.938V43.11a3.336,3.336,0,0,0,.757,2.357,2.627,2.627,0,0,0,2.02.813,3.553,3.553,0,0,0,1.206-.182,5.468,5.468,0,0,0,.87-.393q.364-.21.631-.392a.857.857,0,0,1,1.332.378l1.8,2.946a9.786,9.786,0,0,1-3.31,1.893,11.95,11.95,0,0,1-3.927.659" transform="translate(-413.444 -9.034)" fill="#fff"/>
        <rect id="Rectángulo_102" data-name="Rectángulo 102" width="6.031" height="41.515" transform="translate(207.626 0.191)" fill="#fff"/>
        <path id="Trazado_78" data-name="Trazado 78" d="M701.3,55.805a14.351,14.351,0,0,0,.757,4.222,8.7,8.7,0,0,0,1.725,2.959,6.7,6.7,0,0,0,2.581,1.753,9.3,9.3,0,0,0,3.352.575,10.219,10.219,0,0,0,3.058-.407,14.308,14.308,0,0,0,2.244-.9q.953-.49,1.627-.9a2.431,2.431,0,0,1,1.234-.407,1.288,1.288,0,0,1,1.122.561l1.711,2.216a10.856,10.856,0,0,1-2.412,2.132,14.041,14.041,0,0,1-2.861,1.417,16.187,16.187,0,0,1-3.114.785,21.145,21.145,0,0,1-3.114.238,14.967,14.967,0,0,1-5.512-1,12.251,12.251,0,0,1-4.4-2.931,13.528,13.528,0,0,1-2.917-4.8,19.046,19.046,0,0,1-1.052-6.592,16.106,16.106,0,0,1,.94-5.554A13.247,13.247,0,0,1,698.96,44.7a12.644,12.644,0,0,1,4.264-3.015,13.928,13.928,0,0,1,5.68-1.108,13.6,13.6,0,0,1,4.881.856,10.711,10.711,0,0,1,3.871,2.511,11.558,11.558,0,0,1,2.539,4.053,15.276,15.276,0,0,1,.912,5.456,3.852,3.852,0,0,1-.309,1.879,1.234,1.234,0,0,1-1.122.477Zm14.39-3.7a8.869,8.869,0,0,0-.435-2.819,6.605,6.605,0,0,0-1.276-2.272,5.822,5.822,0,0,0-2.09-1.515,7.105,7.105,0,0,0-2.875-.547,6.975,6.975,0,0,0-5.161,1.879A9.12,9.12,0,0,0,701.47,52.1Z" transform="translate(-478.613 -27.928)" fill="#fff"/>
        <path id="Trazado_79" data-name="Trazado 79" d="M789.639,51.189a7.237,7.237,0,0,1-5.484-2.006,7.84,7.84,0,0,1-1.922-5.652V26.869h-3.142a1.268,1.268,0,0,1-.87-.323,1.225,1.225,0,0,1-.365-.968v-2.44l4.628-.673L783.8,14.19a1.6,1.6,0,0,1,.477-.772,1.314,1.314,0,0,1,.9-.294h3.086v9.4H796.2v4.348h-7.939V43.11a3.334,3.334,0,0,0,.758,2.357,2.626,2.626,0,0,0,2.019.813,3.553,3.553,0,0,0,1.206-.182,5.452,5.452,0,0,0,.87-.393q.364-.21.632-.392a.856.856,0,0,1,1.332.378l1.8,2.946a9.786,9.786,0,0,1-3.31,1.893,11.951,11.951,0,0,1-3.927.659" transform="translate(-535.421 -9.034)" fill="#fff"/>
      </g>
    </g>
    <path id="Unión_1" data-name="Unión 1" d="M31.464,53.093A20.506,20.506,0,0,1,16.842,30.169,20.2,20.2,0,0,1,30.731,14.292q-.309-1.865-.618-3.731c-.032-.193-.043-.389-.063-.584l.167-.457A1.56,1.56,0,0,1,31.5,8.967c.473,0,.948-.026,1.42-.072.069-.007.136-.01.2-.01a1.407,1.407,0,0,1,1.272.762c.7,1.145,1.442,2.265,2.149,3.407a.523.523,0,0,0,.281.244,3.508,3.508,0,0,1,.417.025q11.479-.6,22.959-1.176A8.44,8.44,0,0,1,64.93,13.4a3.179,3.179,0,0,1,.644.522,1.26,1.26,0,0,1,.091,1.913A7.1,7.1,0,0,1,64.035,17.1,8.47,8.47,0,0,1,60.1,18.2c-1.8.061-3.6.181-5.4.265a.564.564,0,0,0-.483.257q-3.976,5.427-7.96,10.847a1.52,1.52,0,0,1-1.277.7c-.739.016-1.478.076-2.217.108a1.176,1.176,0,0,1-1.334-1.429q.547-4.806,1.112-9.611c.007-.066.007-.132.011-.223H42.41c-.089,0-.173,0-.256,0l-4.958.255a3.338,3.338,0,0,1-.4.029c-.145,0-.289.008-.433.014L36,19.431a14.135,14.135,0,0,0-3.662,27.541,21.454,21.454,0,0,0,13.738-11.89L53.687,24.6a27.1,27.1,0,0,1-.6,8.594A27.185,27.185,0,0,1,33.433,53a2.667,2.667,0,0,1-1.073.22A3.242,3.242,0,0,1,31.464,53.093ZM16.286,51.6A27.038,27.038,0,0,1,.164,24.073,27.2,27.2,0,0,1,16.919,1.914,26.063,26.063,0,0,1,26.767,0,27.485,27.485,0,0,1,39.732,3.278l-.22.014a2.259,2.259,0,0,0-2.2,3.089c.272.993.552,1.984.832,2.974l-.024-.016A20.819,20.819,0,0,0,6.122,27.9,21.185,21.185,0,0,0,19.365,46.328c1.526.647,1.843,2.895,1.095,4.174a2.837,2.837,0,0,1-2.551,1.442A4.193,4.193,0,0,1,16.286,51.6Zm25.2-41.189c-.3-1.128-.633-2.249-.94-3.375a1.173,1.173,0,0,1,1.144-1.6c.79-.049,1.58-.112,2.371-.112h.051A1.522,1.522,0,0,1,45,5.6c1.836,1.475,3.647,2.982,5.464,4.48a1.037,1.037,0,0,1,.1.134l-5.3.272c-1.13.058-2.261.114-3.39.181l-.071,0C41.636,10.668,41.54,10.618,41.484,10.409Z" transform="translate(0 0)" fill="#fff" stroke="rgba(0,0,0,0)" stroke-miterlimit="10" stroke-width="1"/>
  </g>
</svg>
